/* XPM */
static char *_42388a1ddac41a4acd7c9382d94a3b9ALBbTbW2pgZeUaDb[] = {
/* columns rows colors chars-per-pixel */
"64 64 213 2 ",
"   c #9E7A38",
".  c #A37C39",
"X  c #9A7F42",
"o  c #9E746A",
"O  c #9F796E",
"+  c #A37B6F",
"@  c #A17970",
"#  c #57856B",
"$  c #5B866B",
"%  c #5E896D",
"&  c #4F8E74",
"*  c #558D74",
"=  c #5C8D73",
"-  c #49947E",
";  c #5A957A",
":  c #5C967A",
">  c #62886B",
",  c #628B6E",
"<  c #628E71",
"1  c #6A8F70",
"2  c #669274",
"3  c #699374",
"4  c #63957B",
"5  c #68967A",
"6  c #65997C",
"7  c #6A9A7D",
"8  c #739572",
"9  c #7BA976",
"0  c #A9853C",
"q  c #AB853E",
"w  c #B0883E",
"e  c #9E8547",
"r  c #9E8D54",
"t  c #9B975C",
"y  c #AB8741",
"u  c #AC8A43",
"i  c #A68A48",
"p  c #B28D44",
"a  c #AD9447",
"s  c #B49346",
"d  c #BA9345",
"f  c #B49B46",
"g  c #B6944A",
"h  c #B9954A",
"j  c #B69B4A",
"k  c #BB9A4C",
"l  c #A89857",
"z  c #B59C54",
"x  c #9BA25E",
"c  c #B4A747",
"v  c #BBA34B",
"b  c #BBAC4C",
"n  c #B6B449",
"m  c #BCB34C",
"M  c #BCBC4C",
"N  c #A5A25F",
"B  c #BAA45A",
"V  c #BEBE50",
"C  c #8B9D6F",
"Z  c #979965",
"A  c #9D9B66",
"S  c #9C9E6A",
"D  c #B48B6C",
"F  c #A49F66",
"G  c #A7847A",
"H  c #BB9779",
"J  c #89A36A",
"K  c #97A369",
"L  c #8AA678",
"P  c #98A777",
"I  c #95A579",
"U  c #88B17B",
"Y  c #A5A766",
"T  c #ADAB70",
"R  c #AAB17A",
"E  c #C29B4B",
"W  c #C09F51",
"Q  c #C2A152",
"!  c #C4AC52",
"~  c #C3B150",
"^  c #BDC34D",
"/  c #BDCB4E",
"(  c #BFD24F",
")  c #BFC350",
"_  c #C0C64F",
"`  c #C0CA4F",
"'  c #C0D34F",
"]  c #C0C350",
"[  c #C0CD50",
"{  c #C1D451",
"}  c #C3DE52",
"|  c #C4E053",
" . c #C6E15A",
".. c #C8E15F",
"X. c #C9E264",
"o. c #CBE36B",
"O. c #CEE474",
"+. c #CFE578",
"@. c #D1E57C",
"#. c #3D9F8C",
"$. c #3BA592",
"%. c #38A996",
"&. c #34AD9C",
"*. c #39AC9A",
"=. c #39B09D",
"-. c #2CB4A5",
";. c #24BBAC",
":. c #2BBAAA",
">. c #36B7A4",
",. c #21BFB2",
"<. c #469C86",
"1. c #5B9D81",
"2. c #639A80",
"3. c #699D83",
"4. c #45A28C",
"5. c #4AA48D",
"6. c #57A288",
"7. c #44AB95",
"8. c #4DAA92",
"9. c #53AC91",
"0. c #4AB89B",
"q. c #57BB9A",
"w. c #6EA186",
"e. c #6DA58B",
"r. c #72A68A",
"t. c #75A88A",
"y. c #65B48A",
"u. c #6EB68E",
"i. c #6BAD98",
"p. c #73AB93",
"a. c #7AAF95",
"s. c #7EB196",
"d. c #75B29A",
"f. c #7DB399",
"g. c #47BBA2",
"h. c #65BAA4",
"j. c #1EC3B7",
"k. c #1CC6BA",
"l. c #1BC9BD",
"z. c #34C4AE",
"x. c #24C4B6",
"c. c #24CBBB",
"v. c #55C09C",
"b. c #47C4AB",
"n. c #66CBB4",
"m. c #0DCEC4",
"M. c #14CEC4",
"N. c #1ACEC2",
"B. c #0ED2CA",
"V. c #13D0C6",
"C. c #12D0C7",
"Z. c #12D1C8",
"A. c #1FD2C9",
"S. c #3CD4C9",
"D. c #49D2C1",
"F. c #B99B8A",
"G. c #88A986",
"H. c #8CAE8B",
"J. c #95AC82",
"K. c #99B48A",
"L. c #83B295",
"P. c #86B799",
"I. c #92B996",
"U. c #A7B684",
"Y. c #BEA695",
"T. c #83BCA1",
"R. c #C8AB8C",
"E. c #C5AB94",
"W. c #CBB496",
"Q. c #CDBA9A",
"!. c #D0B292",
"~. c #D5BA95",
"^. c #D4BF9C",
"/. c #C0AAA0",
"(. c #C7B2A9",
"). c #C9B8A8",
"_. c #CEC99F",
"`. c #D7C79C",
"'. c #D4D79B",
"]. c #D3E685",
"[. c #D5E48C",
"{. c #D9E799",
"}. c #D6C8A4",
"|. c #D6C4AE",
" X c #D6C9B4",
".X c #D3C5BA",
"XX c #DBDBB0",
"oX c #E5CDA5",
"OX c #E8CFA6",
"+X c #E9D6AB",
"@X c #DCE5A6",
"#X c #DFE4B3",
"$X c #E0ECAD",
"%X c #EBE3B4",
"&X c #E2EAB4",
"*X c #E4EEB9",
"=X c #EEEAB9",
"-X c #F0E7B8",
";X c #F1ECBC",
":X c #F2F0BF",
">X c #E3DCD0",
",X c #E7EFC3",
"<X c #E8EFC5",
"1X c #EAEDCF",
"2X c #F3EBC3",
"3X c #F3EBCA",
"4X c #E9F0CA",
"5X c #F3F2C0",
"6X c #F3F1CA",
"7X c #EAEAD0",
"8X c #F3EED8",
"9X c #F3F2D6",
"0X c #F3F3E3",
/* pixels */
"Z.Z.Z.Z.Z.Z.Z.Z.Z.Z.Z.Z.Z.Z.C.C.C.C.C.C.C.C.C.C.C.C.C.C.Z.C.C.C.C.C.C.C.C.C.C.C.C.C.C.C.C.C.C.C.C.C.Z.Z.C.C.C.C.Z.Z.Z.Z.Z.Z.Z.Z.",
"Z.Z.Z.Z.Z.Z.Z.Z.Z.C.Z.C.C.C.C.C.C.c.c.N.Z.Z.C.c.c.c.C.N.c.c.c.C.C.C.c.c.l.C.l.c.l.C.Z.C.B.N.c.N.B.C.C.C.C.C.C.C.Z.Z.Z.Z.Z.Z.Z.Z.",
"Z.Z.Z.Z.Z.Z.Z.Z.C.C.C.Z.B.Z.C.M.q.Y l u.b.z.y.Y Y Y y.y.Y t K z.N.0.P Y J 9.U N J v.0.q.v.t.Y U c.C.C.B.B.C.C.C.Z.Z.Z.Z.Z.Z.Z.Z.",
"Z.Z.Z.Z.Z.Z.Z.Z.C.C.B.N.c.q.U L z d d k l t s d v v a c p h ~ x J b v d p i b k h k a g z h d j K U u.x.c.B.Z.C.Z.Z.Z.Z.Z.Z.Z.Z.",
"Z.Z.Z.Z.Z.Z.Z.C.C.C.c.9 l z h v c ^ M ^ c a n f c M M ' n M } ^ M / ^ f ^ M / ^ M M u f M M M n j k g l Z g.Z.C.Z.Z.Z.Z.Z.Z.Z.Z.",
"Z.Z.Z.Z.Z.Z.Z.C.C.B.>.d k h v [ / ^ ( | { / } / / } ^ } } } } } } | ( / ^ } ( / } } ^ / } } ^ / / m k h k 9 M.C.C.Z.Z.Z.Z.Z.Z.Z.",
"Z.Z.Z.Z.Z.Z.Z.C.C.M.9.u v ~ { | | { } } } | | | | } ( } } | ( ^ | } | | ( } } { } } | | } } ( } | } ~ ! s J c.C.C.C.Z.Z.Z.Z.Z.Z.",
"Z.Z.Z.Z.C.C.C.B.B.q.l s n } | } } | | } } } } } } } | } } } } } | } } } | } | | } } } } } } | } | } | / f g 9 N.B.C.C.C.Z.Z.Z.Z.",
"Z.Z.Z.Z.C.Z.Z.z.0.K W M ^ } | } | } | } | | | | } | } } } } } } } } } | } } | } | | | | } | } } | } | / ^ ~ l q.g.M.Z.C.Z.Z.Z.Z.",
"Z.Z.Z.C.C.M.z.K g g b } } } | | | | | | | | | | | | | | | | | | | | | | | | | | | | | | | | | | | | } } } ^ h g l y.M.C.C.Z.Z.Z.",
"Z.Z.Z.Z.C.c.K d h h M | } | } | | | | | | | | | | | | | | | | | | | | | | | | | | | | | | | | | | } } } } ( v h h l q.Z.C.C.Z.Z.",
"Z.Z.Z.C.Z.v.z h h s M | } | | | | | | | | | | | | | | | | | | | | | | | | | | | | | | | | | | | | | | } } ( c h h h R D.Z.C.Z.Z.",
"Z.Z.C.M.A.U E h g c } } } | | | | | | | | | | | | | | | | | | | | | | | | | | | | | | | | | | | | | | } } | M s h h B n.Z.C.C.Z.",
"Z.C.C.m.S.P p W g n } } } } | | | | | | | | | | | | | | | | | | | | | | | | | | | | | | | | | | | | | } } } ^ s k k l n.Z.C.C.Z.",
"Z.C.Z.m.b.I y p h n } } } | | | | | | | | | | | | | | | | | | | | | | | | | | | | | | | | | | | | | | | } } ^ k s a G.9.l.Z.C.Z.",
"Z.C.C.>.: s.r 0 g b } } } | | | | | | | | | | | | | | | | X.X.X.X.X.X. .| | | | | | | | | | | | | | | | } } M k y A i., 7.N.C.Z.",
"Z.C.C.8.3 w.P 0 u b { } } | | | | | | | | | | | | | | | X.$X,X,X,X,X*X@.| | | | | | | | | | | | | | | } } } M s u t s.2 6 l.C.Z.",
"Z.C.C.4.3.K.B s p v ^ | } } | | | | | | | | | | | | | O.[.}.|.|.|.|.|.'.@. .| | | | | | | | | | | | | } } { m s s k K.3.; l.C.Z.",
"Z.C.Z.;.i.R d h h b { { | } | | | | | | | | | | | | X.{.>XH D D D D H |.#Xo. .| | | | | | | | | | | | } } { M k h g K.2.&.M.C.Z.",
"Z.C.Z.j.i.P 0 k h b { { | } | | | | | | | | | | | o.@X`.R.`.`.`.`.`.`.R.W.@X@.| | | | | | | | | | | | } } [ M k k g J.3.:.Z.C.Z.",
"Z.C.C.7.7 G.t s h M } } } | | | | | | | | | | | o.[. XW.R.%X5X2X6X6X=X~.R.|.'.O. .| | | | | | | | | | | } | [ k k i H.3.6.l.C.Z.",
"Z.C.C.8.2 7 I.p d ^ | } } } | | | | | | | | | X.@XXXH ~.=X;X2X2X8X9X5X=X}.G ).&Xo.| | | | | | | | | | } } | { k g J.e.2 : l.C.Z.",
"Z.C.M.<., w.K.g v { | } } | | | | | | | | | o.@X`.W.~.+X5X9X3X2X3X6X5X5X+XR.F.E.@X@.| | | | | | | | | } } } } b B T., < * k.C.Z.",
"Z.C.C.-.* s.l d k _ } } } | | | | | | | | | ].7XE.H %X5X6X0X8X3X2X2X5X5X=XOXH G >X{.| | | | | | | | | } | | { k B P.$ $ $.N.C.Z.",
"Z.C.C.Z.-.h.A w k m ^ } } } | | | | | | | | ].1XE.H %X9X0X0X0X8X6X5X5X5X-XOXH G >X{.| | | | | | | | | } } { m E Y p.& $.l.C.Z.Z.",
"Z.C.C.C.M.>.P.0 p m } } } } | | | | | |  .].'.Q.W.`.=X6X8X0X8X9X5X5X5X5X-XOX!.F.E._.{.X.| | | | | | | } } [ V h K.4 4.l.C.C.C.Z.",
"Z.C.C.B.x.2.t.Z . ^ } } } } | | | | | | X.*X XD `.:X5X2X2X8X9X5X5X5X:X;X%XOXOX~.o /.1XO.| | | | | | } | | { ] w H.3.2 0.M.C.C.Z.",
"Z.C.C.M.7.3 e.P 0 M / } } | | | | | | | X.*X.X+ Q.5X5X:X2X5X5X5X5X5X;X%X+XOXOX~.o /.1XO.| | | | | | | } } } V p I.3.2 6.c.C.C.C.",
"Z.C.Z.>.5 3 t.T k m } [ { | | | | | | | X.*X.X@ Q.5X5X5X5X5X5X5X5X5X;X+XOXOXOX~.o /.1XO.| | | | | | } } [ } M h U.r.2 3 9.N.C.C.",
"Z.Z.c.6.2 7 I.Q v ` } } } | | | | | | | X.*X.X@ Q.5X5X5X5X5X5X5X5X:X;X+XOXOXOX~.o /.1XO.| | | | | | } } } } ^ h B P.< 3 4 >.C.C.",
"C.Z.:.5 3 5 I.W h b } } | } | | | | | | X.*X.X@ Q.5X5X5X5X5X5X5X5X;X+XOXOXOXOX~.o /.1XO.| | | | | | } } | } m h B P.% 2 3 8.C.M.",
"C.Z.:.4 2 w.U.g k [ } } } | | | | | | | X.*X.X@ Q.5X5X5X5X5X5X:X;X%XOXOXOXOXOX~.o /.1XO.| | | | | | } } } { m h z H.6 2 1 5.C.M.",
"C.Z.-.% 3.U.k h k ^ } | | | | | | | | | X.&X XG W.=X:X5X5X5X:X;X+XOXOXOXOXOXoX!.@ /.<XO.| | | | | | | } } | } v k z H.4 > 4.C.M.",
"C.Z.x.& e.R d W h k { } | | | | | | | |  .+.'.).Y.E.%X5X5X5X=X+XOXOXOXOXOXoXR.F.).'.]...| | | | | | | } } } [ b Q k K.w.% -.C.C.",
"Z.C.Z.;.q.R d Q k M } } } | | | | | | | | | O.#XE.F.}.}.}.}.^.!.!.!.!.!.!.!.F.F.XX].| } | | | | | | | | } | [ k Q k K.e.&.M.C.C.",
"Z.C.Z.m.S.P w h k [ } } | | | | | | | | | |  .o.@X.XG O O O O o o o o o o @ (.#XO...| | | | | | | | | | } } ^ k h g K.g.N.Z.Z.C.",
"Z.C.Z.k.8.G.l i h b } } } | | | | | | | | | | | @.'.).(.(.(.(.(.(.(.(.(.(.(.'.]...| | | | | | | | | | } } } m k p i H.6.:.M.C.Z.",
"Z.C.C.7.2 5 f.I a M } } } | | | | | | | | | | | | O.*X4X4X4X4X4X4X4X4X4X4X<X].| | | | | | | | | | | | } } } { s i C e.1 1.l.C.Z.",
"Z.C.M.5.2 , 4 s.l M { } } } | | | | | | | | | | |  .o.o.o.o.o.o.o.o.o.o.o.o...| | | | | | | | | | | | } } { ) s P t.< 2 4 k.C.Z.",
"Z.C.Z.-.= 3 5 L.z k ^ | } | | | | | | | | | | | | | | | | | | | | | | | | | | | | | | | | | | | | | | } | } b d I.7 3 , 4.N.C.Z.",
"Z.C.B.l.; < w.K.k m [ [ | } | | | | | | | | | | | | | | | | | | | | | | | | | | | | | | | | | | | | | } } ` ^ k F a., % :.Z.C.Z.",
"Z.C.Z.:.4 < 3.U.v M { } } } } | | | | | | | | | | | | | | | | | | | | | | | | | | | | | | | | | | } } } } } ^ h B H.4 2 =.N.C.Z.",
"Z.C.C.8.3 2 w.U.d M { } } } } } | | | | | | | | | | | | | | | | | | | | | | | | | | | | | | | | | } | } } { ` k h S d.1 6 l.C.Z.",
"Z.C.M.4.2 < w.U.h j s n ^ } | } | | | | | | | | | | | | | | } } | | | | | | | | | | | | | | | | | } | / ^ c s h h K d., ; k.C.Z.",
"Z.C.Z.;.* % w.U.k k h v M ( } } | } | | | | | | | | | | | | } } } } } | } } } | } | | | | | | | } } | / b k h h E T i.$ *.N.C.C.",
"Z.C.Z.:.: 2 r.P s k s b / M { | } } } | } } } } } | } } } } } } | } } } } } | | } } } } } } } } } | } / ^ h h h u J.e.< =.M.C.Z.",
"C.Z.x.1.2 2 7 G.l i y h b M ^ [ | } } } } } } } } } } } } } } } ^ { } } } { M { } } } } } } } } | } M m k p i i P t.2 2 2 =.C.M.",
"C.Z.-.2 2 2 < 7 f.P.B h h h b [ } { } } } { / / ( } } } } { M n c c M M M j 0 c / M c / } | { } { ^ k k d k J.P.r.< 2 4 1 4.C.M.",
"C.Z.:.= < , , % % r.z k h d k v m M ` ^ b f u f M { M ^ M m b g 0 p j v k g 0 u b b p j M { m ^ v v h h k k L : % , , < > $.C.M.",
"Z.Z.N.%.% % 2 < # r.K d k k p y h k k k p     s b b k b k k h g . 0 k k h k . . h k u y h k k k p y k k h l G.= % 2 < $ <.j.C.C.",
"Z.C.Z.N.:.6.2 2 % $ t.S u p i a h h h k y X X y g h h h k W p i X . 0 p 0 i I S 0 0   y h h h h s . w p l G.4 $ 2 2 4 &.k.C.C.C.",
"Z.C.C.M.Z.7.2 4 2 % < t.H.S L.S h k k u Z s.s.L i k k k h u l I P.G.A A A L 3.w.P A G.G.i h k k g t A P L.5 % 2 2 2 : k.Z.M.C.Z.",
"Z.C.C.M.Z.4., 4 2 < 2 2 7 p.= 8 l i e Z t.< % 3.C i h g l J.s.r.2 w.d.d.p.3.% < p.d.6 3.L e e i P p.d.e.2 3 < < 2 2 ; k.Z.C.C.Z.",
"Z.Z.Z.M.Z.&.% , , 2 2 4 2 , , 4 s.L.L.p.3 3 3 , 3.L A A G.e.2 2 3 2 , , $ $ 2 3 2 , 2 2 w.L.L.L.w.$ > < 3 2 4 < , , <.l.Z.C.Z.Z.",
"Z.Z.Z.C.C.N.*.* = 2 2 2 2 3 < $ < = = 2 3 2 3 2 $ 3.p.r.5 , 2 3 2 2 4 < % % 2 2 4 4 2 2 3 2 = = % , 3 4 2 2 2 = * <.j.Z.C.Z.Z.Z.",
"Z.Z.Z.C.C.C.N.k.=.= 2 3 3 2 , , , , $ , < 2 < % % , < < % $ < 2 2 2 % $ $ $ % % < 2 2 2 < $ % , , % < 2 4 2 , 4.j.l.Z.C.C.Z.Z.Z.",
"Z.Z.Z.Z.C.Z.M.B.:.= , < , $ < 2 2 2 2 % % % $ % 2 2 2 2 < $ % % , % $ $ % , % $ % < < % % < 2 2 2 2 % % < < , $.M.C.C.C.C.Z.Z.Z.",
"Z.Z.Z.Z.Z.Z.C.C.N.*.- % $ $ < 2 2 2 2 % $ % $ % 2 2 2 2 < $ $ , < , $ % 2 2 < $ $ % % % % 2 2 2 2 2 $ $ % * 4.j.C.C.Z.Z.Z.Z.Z.Z.",
"Z.Z.Z.Z.Z.Z.Z.C.Z.Z.k.*.*.- $ < 2 2 , # $ , $ $ , 2 2 < $ # , 2 2 2 = % 2 2 $ # * $ , $ # % 2 2 2 $ & %.*.:.C.Z.C.C.Z.Z.Z.Z.Z.Z.",
"Z.Z.Z.Z.Z.Z.Z.C.C.Z.Z.Z.B.j.#.* > % - &.#.<.#.%.- $ $ * $.%.= 2 2 : *.& > , $ %.:.<.<.<.&.<.* > % - -.C.Z.Z.C.C.C.C.Z.Z.Z.Z.Z.Z.",
"Z.Z.Z.Z.Z.Z.Z.Z.C.Z.C.C.C.C.M.;.&.-.k.M.N.N.M.M.k.-.&.;.M.M.- , , = x.,.-.-.-.N.C.N.N.N.M.N.;.&.-.l.C.M.M.C.C.Z.Z.Z.Z.Z.Z.Z.Z.Z.",
"Z.Z.Z.Z.Z.Z.Z.Z.Z.Z.Z.C.C.C.C.C.C.C.C.C.C.C.C.C.C.C.C.C.C.Z.;.<.<.*.N.C.C.C.M.C.C.Z.C.C.C.C.C.C.C.C.C.C.C.Z.Z.Z.Z.Z.Z.Z.Z.Z.Z.Z.",
"Z.Z.Z.Z.Z.Z.Z.Z.Z.Z.Z.Z.Z.C.C.C.C.C.C.C.C.Z.C.C.C.C.C.C.C.C.C.M.M.M.C.C.C.C.C.C.C.C.Z.Z.C.C.C.C.C.C.C.Z.Z.Z.Z.Z.Z.Z.Z.Z.Z.Z.Z.Z.",
"Z.Z.Z.Z.Z.Z.Z.Z.Z.Z.Z.Z.Z.Z.Z.Z.Z.Z.Z.Z.Z.Z.Z.Z.Z.Z.Z.Z.Z.Z.Z.C.C.C.Z.Z.Z.Z.Z.Z.Z.Z.Z.Z.Z.Z.Z.Z.Z.Z.Z.Z.Z.Z.Z.Z.Z.Z.Z.Z.Z.Z.Z.Z."
};
