/* XPM */
static char *_a051b262b384b65c2a1f09c2d49830anllo7T9zsNJm2hxW[] = {
/* columns rows colors chars-per-pixel */
"64 64 220 2 ",
"   c #9E7A38",
".  c #A37C39",
"X  c #9A7F42",
"o  c #8B7E7E",
"O  c #57856B",
"+  c #5B866B",
"@  c #5E896D",
"#  c #4F8E74",
"$  c #558D74",
"%  c #5C8D73",
"&  c #49947E",
"*  c #5B957A",
"=  c #62886B",
"-  c #628B6E",
";  c #628E71",
":  c #6A8F70",
">  c #669274",
",  c #699374",
"<  c #63957B",
"1  c #66997C",
"2  c #6A9A7D",
"3  c #739572",
"4  c #7BA976",
"5  c #A9853C",
"6  c #AB853E",
"7  c #B0883E",
"8  c #9E874A",
"9  c #9B975C",
"0  c #AB8741",
"q  c #AC8A43",
"w  c #A68A48",
"e  c #B28D44",
"r  c #AD9447",
"t  c #B49346",
"y  c #BA9345",
"u  c #B49B46",
"i  c #B6944A",
"p  c #B9954A",
"a  c #B69B4A",
"s  c #BB9A4C",
"d  c #A89857",
"f  c #B59C54",
"g  c #B4A747",
"h  c #BBA34B",
"j  c #BBAC4C",
"k  c #B6B449",
"l  c #BCB34C",
"z  c #BCBC4C",
"x  c #BAA45A",
"c  c #B6B555",
"v  c #9D9B66",
"b  c #9A9B68",
"n  c #8B9773",
"m  c #89A36A",
"M  c #97A369",
"N  c #8AA678",
"B  c #98A777",
"V  c #95A579",
"C  c #88B17B",
"Z  c #A0A162",
"A  c #A5A766",
"S  c #ADB174",
"D  c #ABB479",
"F  c #C29B4B",
"G  c #C09F51",
"H  c #C2A352",
"J  c #C3B150",
"K  c #BDC34D",
"L  c #BDCB4E",
"P  c #BFD24F",
"I  c #B6C659",
"U  c #BCD35A",
"Y  c #B8C968",
"T  c #BCCD75",
"R  c #C0C94F",
"E  c #C0D34F",
"W  c #C0C350",
"Q  c #C0CD50",
"!  c #C1D451",
"~  c #C3DE52",
"^  c #C4DE5B",
"/  c #C4E053",
"(  c #C6E05B",
")  c #C4DC62",
"_  c #C2D76A",
"`  c #C9DD78",
"'  c #C8E064",
"]  c #C9E068",
"[  c #746A8B",
"{  c #766E8F",
"}  c #7B7786",
"|  c #7C74A6",
" . c #867C8A",
".. c #877A96",
"X. c #8678A2",
"o. c #3D9F8C",
"O. c #38A694",
"+. c #3AA996",
"@. c #34AD9C",
"#. c #39B09D",
"$. c #2CB4A5",
"%. c #24BBAC",
"&. c #2BBAAA",
"*. c #36B7A4",
"=. c #21BFB2",
"-. c #469C86",
";. c #5B9D81",
":. c #639A80",
">. c #699D83",
",. c #45A28C",
"<. c #4AA48D",
"1. c #57A288",
"2. c #49AB93",
"3. c #53AC91",
"4. c #4AB89B",
"5. c #57BB9A",
"6. c #6EA186",
"7. c #6DA58B",
"8. c #72A68A",
"9. c #75A88A",
"0. c #65B48A",
"q. c #76AD94",
"w. c #6DB292",
"e. c #7EB196",
"r. c #77B29A",
"t. c #47BBA2",
"y. c #65BAA4",
"u. c #1EC3B7",
"i. c #1CC6BA",
"p. c #1BC9BD",
"a. c #34C4AE",
"s. c #24C4B6",
"d. c #24CBBB",
"f. c #55C09C",
"g. c #47C4AB",
"h. c #66CBB4",
"j. c #0DCEC4",
"k. c #14CEC4",
"l. c #1ACEC2",
"z. c #0ED2CA",
"x. c #12D0C7",
"c. c #12D1C8",
"v. c #1FD2C9",
"b. c #3CD4C9",
"n. c #49D2C1",
"m. c #958D8B",
"M. c #938B8F",
"N. c #999B87",
"B. c #8B8399",
"V. c #938693",
"C. c #93899A",
"Z. c #A39B98",
"A. c #89AB87",
"S. c #97AB82",
"D. c #99B48A",
"F. c #85B597",
"G. c #92B996",
"H. c #A7B684",
"J. c #ACAD90",
"K. c #B5B899",
"L. c #8C84A3",
"P. c #8F85AC",
"I. c #978CA8",
"U. c #9C94A6",
"Y. c #998DB3",
"T. c #9C95B5",
"R. c #A399A7",
"E. c #A49BB7",
"W. c #83BCA1",
"Q. c #ABA5A8",
"!. c #B9ABA9",
"~. c #BBB7AA",
"^. c #A9A3B7",
"/. c #B6ABB6",
"(. c #B9B5B7",
"). c #C9BDAC",
"_. c #C7BCB8",
"`. c #BFCC8C",
"'. c #BEC1B4",
"]. c #CBDB88",
"[. c #CBD595",
"{. c #D0E08C",
"}. c #D1E28C",
"|. c #D8CAAC",
" X c #CED8A4",
".X c #D5DBA5",
"XX c #C7CAB3",
"oX c #C8C7B9",
"OX c #D8C7B3",
"+X c #D8D7B9",
"@X c #E6DBBB",
"#X c #E5E6A8",
"$X c #E0E1AC",
"%X c #E9E9B9",
"&X c #ECF1B0",
"*X c #F3F1BC",
"=X c #AA9FC0",
"-X c #B6ADCB",
";X c #BDB5C9",
":X c #C1B9C9",
">X c #C0BBE0",
",X c #CCC9CE",
"<X c #D5CAC7",
"1X c #DAD6C7",
"2X c #D2CBD5",
"3X c #DCD6D5",
"4X c #DAD5DB",
"5X c #E7D9C7",
"6X c #F1DDC3",
"7X c #E2DAD6",
"8X c #EAE7C7",
"9X c #EBE4CB",
"0X c #F5E9C9",
"qX c #F2ECCC",
"wX c #F3F2C4",
"eX c #F2F1CA",
"rX c #E9E4D4",
"tX c #F3E9D2",
"yX c #DED6E6",
"uX c #E2DAE6",
/* pixels */
"c.c.c.c.c.c.c.c.c.c.c.c.c.c.x.x.x.x.x.x.x.x.x.x.x.x.x.x.c.x.x.x.x.x.x.x.x.x.x.x.x.x.x.x.x.x.x.x.x.x.c.c.c.x.x.x.c.c.c.c.c.c.c.c.",
"c.c.c.c.c.c.c.c.c.x.c.x.x.x.x.x.x.d.d.l.c.c.x.d.d.d.x.l.d.d.d.x.x.x.d.d.p.x.p.d.p.x.c.x.z.l.d.l.z.x.x.x.x.x.c.x.c.c.c.c.c.c.c.c.",
"c.c.c.c.c.c.c.c.x.x.x.c.z.c.x.k.5.A d 9.g.a.0.A A A 0.0.A 9 M a.l.4.B A m 3.C Z m 5.4.5.f.9.A C d.x.x.z.z.x.x.x.c.c.c.c.c.c.c.c.",
"c.c.c.c.c.c.c.c.x.x.z.l.d.5.C N f y y s d 9 t y h h r g e p J M m c h y e w j p p s r a f i y a M C 9.s.d.z.c.x.c.c.c.c.c.c.c.c.",
"c.c.c.c.c.c.c.x.x.x.d.4 d f p h g K z K g r k u g z z E k z ~ K z L K u K z L K z z q u z z z k a s p d b t.c.x.c.c.c.c.c.c.c.c.",
"c.c.c.c.c.c.c.x.x.z.*.y s p h Q L L P / ! L ~ L L ~ K ~ ~ ~ ~ ~ ~ / P L K ~ P L ~ ~ L L ~ ~ K L L l s p s 4 k.x.x.c.c.c.c.c.c.c.",
"c.c.c.c.c.c.c.x.x.k.3.q h J ! / / P ~ ~ ~ / / / / ~ P ~ ~ / P K / ~ / / P ~ ~ ! ~ ~ / / ~ ~ P ~ / ~ J J t m d.x.x.x.c.c.c.c.c.c.",
"c.c.c.c.x.x.x.z.z.5.d t k ~ / ~ / / / ~ ~ ~ ~ ~ ~ ~ / ~ ~ ~ ~ ~ / ~ ~ ~ / ~ / / ~ ~ ~ ~ ~ ~ / ~ / ~ / L u i 4 l.z.x.x.x.c.c.c.c.",
"c.c.c.c.x.c.c.a.4.M G z K ~ / ~ / ~ / ~ / / / / ~ / ~ ~ ~ ~ ~ ~ ~ ~ ~ / ~ ~ / ~ / / / / ~ / ~ ~ / ~ / L K J d 5.t.k.c.x.c.c.c.c.",
"c.c.c.x.x.k.a.M i i j ~ ~ ~ / / / / / / / / / / / / / / / / / / / / / / / / / / / / / / / / / / / / ~ ~ ~ K i i d 0.k.x.x.c.c.c.",
"c.c.c.c.x.d.M y i p z / ~ / ~ / / / / / / / / / / / / / / / / / / / / / / / / / / / / / / / / / / ~ ~ ~ ~ P h p i d 5.c.x.x.c.c.",
"c.c.c.x.c.f.f p i t z / ~ / / / / / / / / / / / / / / / / / / / / / / / / / / / / / / / / / / / / / / ~ ~ P g i p p D n.c.x.c.c.",
"c.c.x.k.v.C F p i g ~ ~ ~ / / / / / / / / / / / / / / / / / / / / / / / / / / / / / / / / / / / / / / ~ ~ / z t p p x h.c.x.x.c.",
"c.x.x.j.b.B e G i k ~ ~ ~ ~ / / / / / / / / / / / / / / / / / / / / / ^ _ _ _ _ _ ) / / / / / / / / / ~ ~ ~ K t s s d h.c.k.x.c.",
"c.x.c.j.g.V 0 e p k ~ ~ ~ / / / / / / / / / / / ~ I I I U ~ / / / / ' ].~.Q.Q.^./. X] / / / / / / / / / ~ ~ K s t r A.3.p.c.k.c.",
"c.x.x.*.* e.8 5 i j ~ ~ ~ / / / / / / / / / / ~ Y m. .m.D U ^ ( / ] .X:XU. . . .U.(. X' / / / / / / / / ~ ~ z s 0 v q.- 2.l.x.c.",
"c.c.x.3., 6.B 5 q j ! ~ ~ / / / / / / / / / ~ Y _._._._.~.H.T [.]. X(.R.!._.)._.(.R./.[.( / / / / / / ~ ~ ~ z t q 9 e.> 1 p.x.c.",
"c.c.x.,.>.D.x t e h K / ~ ~ / / / / / / ~ / U m._.5X5XrX<XV.B.-X>X-XL.V.<X9X5X5X_.V.U.+X' / / / / / / ~ ~ ! l t t s D.>.* p.x.c.",
"c.c.c.%.w.D y p p j ! ! / ~ / / / / / / / / U n !.OXOX@X<XC.[ | | | { C.<X5X|.OX!. .U.1X' / / / / / / ~ ~ ! z s p p D.:.@.k.x.c.",
"c.x.c.u.w.B 5 s p j ! ! / ~ / / / / / / / ~ U o Q.|.|.@X5X/.T.T.T.Y.T./.5X@X|.).!...U.1X' / / / / / / ~ ~ Q z s s i S.>.&.c.x.c.",
"c.x.x.2.2 A.9 t p z ~ ~ ~ / / / / / / / / ~ Y m.!.OXOX6X9X3X2X2X2X2X2X7X9X@X|.OX!. .R.+X' / ~ / / / / / ~ / Q s s w A.>.1.p.x.c.",
"c.x.x.3.> 2 G.e y K / ~ ~ ~ / / / / / / / ~ S V._.6X6X0XtX5X3X4X4X4X3X7XtX0X@X5X_.V.R.+X' / ~ ~ / / / ~ ~ / ! s p S.7.> * p.x.c.",
"c.x.k.-.- 6.D.i h ! / ~ ~ / / / / / / / / ^ D V.OX0X0X0X0X9X3X4X4XyX3X7XqX0X0XtX<XV.R.1X' / / / / / / ~ ~ ~ ~ j x W.; ; $ i.x.c.",
"c.x.x.$.$ e.d y s W ~ ~ ~ / / / / / / / ~ _ H.V.OX0XwX0X0X9X1X3X4X7X7X5X8XwX0XtX<XV.I.2X` / / / / / / ~ / / ! s x F.+ + O.l.x.c.",
"c.x.x.c.$.y.v 7 s l K ~ ~ ~ / / / / / ~ ) H.B.B.XXwXwXeXqX8X9XrXrX9X8X8X%X*XwXtX<XB...^.+X' / / / / / ~ ~ ! l F A q.# O.p.x.c.c.",
"c.x.x.x.k.*.F.5 e l ~ ~ ~ ~ / / / / / ^ `.B [ ..oX%X@X8XeXqXqXqXqX8XwXwX*X%X@XrX,XB.[ B.(.) / / / / / ~ ~ Q z p D.< ,.p.x.x.x.c.",
"c.x.c.z.s.:.9.b . K ~ ~ ~ ~ / / / / / ^ ].K.X.L.oXXXK.XX8XeXeXwXeXeXwXwX8X|.K.oX,XB.} ^.oX) / / / / ~ / / ! W 7 A.>.> 4.k.x.x.c.",
"c.x.x.k.2., 7.B 5 z L ~ ~ / / / / / / ~ ` ~.P.B.oX~.N.XX8XeXwX*XwXwXwX*X%X[.N.(.,XB.L.;X X^ / / / / / ~ ~ ~ z e G.>.> 1.d.c.x.x.",
"c.x.c.*.1 , 9.S s l ~ Q ! / / / / / / ) oXY.{ ..oX+XOX+XqXqXwXwXwXwXwX*X*X$X|.1X2XB.[ I.(.) / / / / ~ ~ Q ~ z p H.8.> , 3.l.x.x.",
"c.c.d.1.> 2 G.H h R ~ ~ ~ / / / / / / ) oXY.[ ..oX9X9XqXqXqXeXwXqXeXwXwXwXwX9XrX,XC.[ I.~.) / / / / ~ ~ ~ ~ K p x F.; , > *.x.x.",
"x.c.&.1 , 1 G.G p j ~ ~ / ~ / / / / / ( }.,XU.C._.<X1X5X9X9X8X8X8X8X8X8X9X5X1X3X:XC.C.oX}.( / / / / ~ ~ / ~ l p x F.@ > , 3.x.k.",
"x.c.&.> > 6.H.i s Q ~ ~ ~ / / / / / / / ( ].oX^.R.Z.Z.Q./.!.!.~.~.~.!././.Q.R.R.R.^.XX].( / / / / / ~ ~ ~ ! l p f A.1 > : <.x.k.",
"x.x.$.@ >.H.s p s K ~ / / / / / / / / / / ^  X:XL... ....... .M.m.C...X.X..... .C.;X.X^ / / / / / / / ~ ~ / ~ h s f G.< = ,.x.k.",
"x.c.s.# 7.D y G p s ! ~ ~ / / / / / / / / ` ;XE.=X-X/.I.....C.!.).~.U.X.X.Y.=X/.E.E.K.) / / / / / / / ~ ~ ~ Q j H s D.6.@ $.x.x.",
"c.x.c.%.5.D y H s z ~ ~ ~ / / / / / / / ' +XT.X.;XyXuX;XR.Z.K.|.#X+X!.R.R.;XuXuX:XB.H.) / / ~ / / / / / ~ / Q s H s D.7.@.k.x.x.",
"c.x.c.j.b.B 7 i s Q ~ ~ / / / / / / / / ( .XU.L.;X4XuX3X1X+X.X$X#X#X+X+X1X3X7X4X;Xm.Y ^ / / / / / / / / ~ ~ K s p i D.t.l.c.c.x.",
"c.x.c.i.3.A.d w p j ~ ~ ~ / / / / / / / / ` '.^.E.^.(.<X8XwX&X#X#X#X&X*XqX+X(.^.Q.D _ ^ / / / / / / / ~ ~ ~ l s e w A.1.&.k.x.c.",
"c.x.x.2.> 1 r.V r z ~ ~ ~ / / / / / / / / ( }.oXI.} } (.9X8X%X$X@X@X%X8X8X~. .} N.T ( / / / / / / / / ~ ~ ~ ! t w n 7.: ;.p.x.c.",
"c.x.k.<.> - > e.d z ! ~ ~ ~ / / / / / / / / ( ].~.I.{ ^.4X3X,XQ.Z.Q.oX3X4X^. .S.T ) / / / / / / / / / ~ ~ ! K t B 9.; > < i.x.c.",
"c.x.c.$.% , 2 F.f s K / ~ / / / / / / / / / / ( ].~.U.E.;X;X^.C.B.C.^.;X;XQ.N.T ) / / / / / / / / / / ~ / ~ j y G.2 , - ,.l.x.c.",
"c.x.z.p.$ ; 6.D.s l Q Q / ~ / / / / / / / / / / ( ` XX^.L.L.E.:XoX(.^.L.C.K.[.` / / / / / / / / / / / ~ ~ R K s M q.- @ &.c.x.c.",
"c.x.c.&.* ; >.H.h z ! ~ ~ ~ ~ / / / / / / / / / / ( ` ~.U.U.(..X] [.(.U.J.`.].( / / / / / / / / / ~ ~ ~ ~ ~ K p x A.< > #.l.x.c.",
"c.x.x.3., > 6.H.y z ! ~ ~ ~ ~ ~ / / / / / / / / / / / _ +X1X}.( / ( }.1X+X}.( / / / / / / / / / / ~ / ~ ~ ! Q s p v r.: 1 p.x.c.",
"c.x.k.,.> ; 6.H.p a t k K ~ / ~ / / / / / / / / / / / / / / ~ ~ / / / / / / / / / / / / / / / / / ~ / L K g t p p M r.- * i.x.c.",
"c.x.c.%.$ @ 6.H.s s p h z P ~ ~ / ~ / / / / / / / / / / / / ~ ~ / / / / ~ ~ ~ / ~ / / / / / / / ~ ~ / L j s p p F A w.+ @.l.x.x.",
"c.x.c.&.* > 8.B t s t j L z ! / ~ ~ ~ / ~ ~ ~ ~ / / ~ ~ ~ ~ ~ ~ / / / / ~ ~ / / ~ ~ ~ ~ ~ ~ ~ ~ ~ / ~ L K i p p q S.7.; #.k.x.c.",
"x.c.s.;.> > 2 A.d w 0 p j z K Q / ~ ~ ~ ~ ~ ~ ~ ~ ~ ~ ~ ~ ~ ~ ~ K ! ~ ~ ~ ! z ! ~ ~ ~ ~ ~ ~ ~ ~ / ~ z l s e w w B 9.> , > @.x.k.",
"x.c.$.> > > ; 2 e.F.x p p p j Q ~ ! ~ ~ ~ ! L L P ~ ~ ~ ~ ! z k g g z z z a 5 g L z g L ~ / ! ~ ! K s s y s S.F.9.; > > : ,.x.k.",
"x.c.&.% ; - - @ @ 8.f s p y s h l z R K j u q u z ! z K z l j i 5 e a h s i 5 q j j e a z ! l K h h i p s s N * @ - - ; = O.x.k.",
"c.c.l.+.@ @ > ; O 8.M t s s e 0 i s s s e     t j j s j s s p i . 5 s s p s . . p s q 0 p s s s e 0 s s p d A.% @ > ; + -.u.x.x.",
"c.x.c.l.&.1.> > @ + 9.v q e w r s p p s 0 X X 0 i p i p s G e w X . 5 e 5 w V b 0 5   0 p s p p t . 7 e d A.< + > > < @.i.x.x.x.",
"c.x.x.k.c.2.> > > @ ; 9.A.b F.b p s s q b e.e.N w s s s p q d V F.A.v v v N >.6.B v A.A.w p s s i 9 v B F.2 @ > > > * i.c.k.x.c.",
"c.x.x.k.c.,.- > > ; > > 2 q.% 3 d w 8 b 9.; @ >.N w p i d S.e.8.> 6.r.r.q.>.@ ; q.r.1 >.N 8 8 w B q.r.7.> , ; ; > > * i.c.x.x.c.",
"c.c.c.k.c.@.@ - - > > > > - - < e.F.F.q., , , - >.N v v A.7.> > , > - - + + > , > - > > 6.F.F.F.6.+ = ; , > > ; - - -.p.c.x.c.c.",
"c.c.c.x.x.l.#.$ % > > > > , ; + ; % % > , > , > + >.q.8.1 - > , > > > ; @ @ > > > > > > , > % % @ - , > > > > % $ -.u.c.x.c.c.c.",
"c.c.c.x.x.x.l.i.@.% > , , > - - - - + - ; > ; @ @ - ; ; @ + ; > > > @ + + + @ @ ; > > > ; + @ - - @ ; > > > - ,.u.p.c.x.x.c.c.c.",
"c.c.c.c.x.c.k.z.&.% - ; - + ; > > > > @ @ @ + @ > > > > ; + @ @ - @ + + @ - @ + @ ; ; @ @ ; > > > > @ @ ; ; - +.k.x.x.x.x.c.c.c.",
"c.c.c.c.c.c.x.x.l.+.& @ + + ; > > > > @ + @ + @ > > > > ; + + - ; - + @ > > ; + + @ @ @ @ > > > > > + + @ $ ,.u.x.x.c.c.c.c.c.c.",
"c.c.c.c.c.c.c.x.c.c.i.#.@.& + ; > > - O + - + + - > > ; + O - > > > % @ > > + O $ + - + O @ > > > + # O.#.&.x.c.x.x.c.c.c.c.c.c.",
"c.c.c.c.c.c.c.x.x.c.c.c.z.u.o.$ = @ & @.o.-.o.+.& + + $ O.O.% > > * #.# = - + +.&.-.-.-.@.-.$ = @ & $.x.c.c.x.x.x.x.c.c.c.c.c.c.",
"c.c.c.c.c.c.c.c.x.c.x.x.x.x.k.%.@.$.i.k.l.l.k.k.i.$.@.%.k.k.& - - % s.=.$.$.$.l.x.l.l.l.k.l.%.@.$.p.x.k.k.x.x.c.c.c.c.c.c.c.c.c.",
"c.c.c.c.c.c.c.c.c.c.c.x.x.x.x.x.x.x.x.x.x.x.x.x.x.x.x.x.x.c.%.-.-.@.l.x.x.x.k.x.x.c.x.x.x.x.x.x.x.x.x.x.x.c.c.c.c.c.c.c.c.c.c.c.",
"c.c.c.c.c.c.c.c.c.c.c.c.c.x.x.x.x.x.x.x.x.c.x.x.x.x.x.x.x.x.x.k.k.k.x.x.x.x.x.x.x.x.c.c.x.x.x.x.x.x.x.c.c.c.c.c.c.c.c.c.c.c.c.c.",
"c.c.c.c.c.c.c.c.c.c.c.c.c.c.c.c.c.c.c.c.c.c.c.c.c.c.c.c.c.c.c.x.x.x.c.c.c.c.c.c.c.c.c.c.c.c.c.c.c.c.c.c.c.c.c.c.c.c.c.c.c.c.c.c."
};
