/* XPM */
static char *_38100820f384d89d82e8ab84f966337ypCcMYyhVEVJoPuK[] = {
/* columns rows colors chars-per-pixel */
"64 64 201 2 ",
"   c #9E7A38",
".  c #A27A36",
"X  c #A47D3A",
"o  c #9A7F42",
"O  c #588367",
"+  c #57866C",
"@  c #5B866B",
"#  c #5E896D",
"$  c #4F8E74",
"%  c #558D74",
"&  c #5C8D73",
"*  c #47957F",
"=  c #4B947D",
"-  c #5D9176",
";  c #53957B",
":  c #5C967A",
">  c #5E997D",
",  c #60856A",
"<  c #628B6E",
"1  c #688E6F",
"2  c #68906F",
"3  c #628E71",
"4  c #6A8F70",
"5  c #669274",
"6  c #699374",
"7  c #63957B",
"8  c #68967A",
"9  c #65997C",
"0  c #6A9A7D",
"q  c #7D9A75",
"w  c #7BA976",
"e  c #A9853C",
"r  c #AB853E",
"t  c #B0883E",
"y  c #9E8547",
"u  c #9E8D54",
"i  c #98935B",
"p  c #9F9C5F",
"a  c #A38645",
"s  c #AB8741",
"d  c #A68A45",
"f  c #AC8A43",
"g  c #A58B4A",
"h  c #AD8E4A",
"j  c #B28D44",
"k  c #AD9643",
"l  c #AC914D",
"z  c #B49346",
"x  c #BA9345",
"c  c #B29B45",
"v  c #BB9947",
"b  c #B6944A",
"n  c #B9954A",
"m  c #B69B4A",
"M  c #BB9A4C",
"N  c #A49255",
"B  c #AD9953",
"V  c #A99957",
"C  c #A5955A",
"Z  c #A39C5C",
"A  c #B49A52",
"S  c #B59D56",
"D  c #9BA25E",
"F  c #B3A146",
"G  c #B3AA46",
"H  c #B6A348",
"J  c #BBA34B",
"K  c #B6AA49",
"L  c #BBAC4C",
"P  c #B6B449",
"I  c #BCB34C",
"U  c #BCBC4C",
"Y  c #A5A25F",
"T  c #B7A458",
"R  c #BDA55C",
"E  c #BEBE50",
"W  c #849B65",
"Q  c #979965",
"!  c #9D9B66",
"~  c #9C9E6A",
"^  c #8E9F74",
"/  c #A49F66",
"(  c #89A36A",
")  c #97A369",
"_  c #87A975",
"`  c #8DA37B",
"'  c #9CA575",
"]  c #95A579",
"[  c #96A778",
"{  c #88B17B",
"}  c #A4A663",
"|  c #A6A868",
" . c #BBAA64",
".. c #A6AB76",
"X. c #AAB17A",
"o. c #C29B4B",
"O. c #C09F51",
"+. c #C1A84D",
"@. c #C2A152",
"#. c #C4AC52",
"$. c #C6BB54",
"%. c #BDC34D",
"&. c #BDCB4E",
"*. c #BFD24F",
"=. c #BFC350",
"-. c #C0C64F",
";. c #C0CA4F",
":. c #C0D34F",
">. c #C0C350",
",. c #C0CD50",
"<. c #C1D451",
"1. c #C3DE52",
"2. c #C4E053",
"3. c #3D9F8C",
"4. c #3DA28E",
"5. c #3BA592",
"6. c #38A996",
"7. c #34AD9C",
"8. c #39AC9A",
"9. c #2FB09F",
"0. c #34B09E",
"q. c #3FB09B",
"w. c #2CB4A5",
"e. c #24BBAC",
"r. c #2BBAAA",
"t. c #32B1A0",
"y. c #39BBA7",
"u. c #21BFB2",
"i. c #449B85",
"p. c #4A9B85",
"a. c #429E89",
"s. c #5B9D81",
"d. c #639A80",
"f. c #699D83",
"g. c #45A28C",
"h. c #4AA48D",
"j. c #57A288",
"k. c #57B28D",
"l. c #44AB95",
"z. c #4DAA92",
"x. c #52AA94",
"c. c #4AB89B",
"v. c #51BE9B",
"b. c #5BB999",
"n. c #6EA186",
"m. c #6DA58B",
"M. c #73A387",
"N. c #72A68A",
"B. c #79AA8E",
"V. c #6FB082",
"C. c #62B58C",
"Z. c #79B584",
"A. c #6BAD98",
"S. c #73AB93",
"D. c #7CAF93",
"F. c #73AF99",
"G. c #63B898",
"H. c #7EB196",
"J. c #75B29A",
"K. c #7DB399",
"L. c #47BBA2",
"P. c #65BAA4",
"I. c #1EC3B7",
"U. c #1CC6BA",
"Y. c #1BC9BD",
"T. c #36C3AC",
"R. c #21C1B4",
"E. c #27C6B7",
"W. c #24CBBB",
"Q. c #31C6B0",
"!. c #55C09C",
"~. c #43C5AF",
"^. c #50C3A2",
"/. c #66CBB4",
"(. c #0DCEC4",
"). c #14CEC4",
"_. c #1ACEC2",
"`. c #0FD1C9",
"'. c #0ED3CB",
"]. c #13D0C6",
"[. c #12D0C7",
"{. c #12D1C8",
"}. c #1FD2C9",
"|. c #3CD4C9",
" X c #49D2C1",
".X c #88A884",
"XX c #8CAB85",
"oX c #82AA8A",
"OX c #8CAE8B",
"+X c #93AB83",
"@X c #9BAF81",
"#X c #95B28A",
"$X c #9BB488",
"%X c #9AB68C",
"&X c #83B295",
"*X c #8BB594",
"=X c #80B498",
"-X c #84BA9E",
";X c #92B996",
":X c #A7B684",
">X c #83BCA1",
/* pixels */
"{.{.{.{.{.{.{.{.{.{.{.{.{.{.[.[.[.[.[.[.[.[.[.[.[.[.[.[.{.[.[.[.[.[.[.[.[.[.[.[.[.[.[.[.[.[.[.[.[.[.{.{.{.{.{.{.{.{.{.{.{.{.{.{.",
"{.{.{.{.{.{.{.{.{.[.{.[.[.[.[.[.[.W.W._.{.{.[.W.W.W.[._.W.W.W.[.[.[.W.W.Y.[.Y.W.Y.[.{.{.`._.W._.`.[.[.[.[.[.{.{.{.{.{.{.{.{.{.{.",
"{.{.{.{.{.{.{.{.[.[.[.{.`.{.[.).b.} Z Z.~.Q.C.| | | C.V.} p ) T._.v.] } ( z._ Y ( !.v.v.^.V.} { W.{.[.`.`.[.[.[.{.{.{.{.{.{.{.{.",
"{.{.{.{.{.{.{.{.[.[.`._.W.G.{ _ B x x M V i z x J J k K j n I D ( K J x j d K v n M l b A n x m ) _ Z.Q.W.`.{.[.{.{.{.{.{.{.{.{.",
"{.{.{.{.{.{.{.[.[.[.W.w V A n J H %.U %.F k P c G U U :.P U 1.%.U &.%.k %.U &.%.U U f c U U U P m M b Z Q L.{.[.{.{.{.{.{.{.{.{.",
"{.{.{.{.{.{.{.[.[.`.y.x M n J ,.&.%.*.2.<.&.1.&.&.1.%.1.1.1.1.1.1.2.*.&.%.1.*.&.1.1.%.&.1.1.%.&.&.I M n M w ).[.[.{.{.{.{.{.{.{.",
"{.{.{.{.{.{.{.[.[.).k.f J $.<.2.2.<.1.1.1.2.2.2.2.1.*.1.1.2.*.%.2.1.2.2.*.1.1.<.1.1.2.2.1.1.*.1.2.1.$.#.z W W.[.[.[.{.{.{.{.{.{.",
"{.{.{.{.[.[.[.`.`.v.B z P 1.2.1.1.2.2.1.1.1.1.1.1.1.2.1.1.1.1.1.2.1.1.1.2.1.2.2.1.1.1.1.1.1.2.1.1.1.2.&.c b w _.`.[.[.[.{.{.{.{.",
"{.{.{.{.[.{.{.Q.c.) +.U %.1.2.1.2.1.2.1.2.2.2.2.1.2.1.1.1.1.1.1.1.1.1.2.1.1.2.1.2.2.2.2.1.2.1.1.1.1.2.&.%.#.V b.L.).{.[.{.{.{.{.",
"{.{.{.[.[.).T.) b b L 1.1.1.2.2.2.2.2.2.2.2.2.2.2.2.2.2.2.2.2.2.2.2.2.2.2.2.2.2.2.2.2.2.2.2.2.2.2.2.1.1.1.%.n b B C.).[.[.{.{.{.",
"{.{.{.{.[.W.) x n n U 2.1.2.1.2.2.2.2.2.2.2.2.2.2.2.2.2.2.2.2.2.2.2.2.2.2.2.2.2.2.2.2.2.2.2.2.2.2.1.1.1.1.*.J n n B b.{.[.[.{.{.",
"{.{.{.[.{.!.A n n z U 2.1.2.2.2.2.2.2.2.2.2.2.2.2.2.2.2.2.2.2.2.2.2.2.2.2.2.2.2.2.2.2.2.2.2.2.2.2.2.2.1.1.*.F n n n X. X{.[.{.{.",
"{.{.[.).}.{ o.n b K 1.1.1.1.2.2.2.2.2.2.2.2.2.2.2.2.2.2.2.2.2.2.2.2.2.2.2.2.2.2.2.2.2.2.2.2.2.2.2.2.2.1.1.2.U z n n R /.{.[.[.{.",
"{.[.[.(.|.' j O.b P 1.1.1.1.2.2.2.2.2.2.2.2.2.2.2.2.2.2.2.2.2.2.2.2.2.2.2.2.2.2.2.2.2.2.2.2.2.2.2.2.2.1.1.1.%.z M M V /.{.[.[.{.",
"{.[.{.(.~.] s j n P 1.1.1.2.2.2.2.2.2.2.2.2.2.2.2.2.2.2.2.2.2.2.2.2.2.2.2.2.2.2.2.2.2.2.2.2.2.2.2.2.2.2.1.1.%.M z l .Xx.Y.{.[.{.",
"{.[.[.y.: H.u e b K 1.1.1.2.2.2.2.2.2.2.2.2.2.2.2.2.2.2.2.2.2.2.2.2.2.2.2.2.2.2.2.2.2.2.2.2.2.2.2.2.2.2.1.1.U M s ! A.< l._.[.{.",
"{.[.[.z.6 M.] e f L <.1.1.2.2.2.2.2.2.2.2.2.2.2.2.2.2.2.2.2.2.2.2.2.2.2.2.2.2.2.2.2.2.2.2.2.2.2.2.2.2.1.1.1.U z f p H.5 9 Y.[.{.",
"{.[.[.g.f.%XR z j J %.2.1.1.2.2.2.2.2.2.2.2.2.2.2.2.2.2.2.2.2.2.2.2.2.2.2.2.2.2.2.2.2.2.2.2.2.2.2.2.2.1.1.<.I z z M %Xf.; Y.[.{.",
"{.[.{.e.A.X.x n n K <.<.2.1.2.2.2.2.2.2.2.2.2.2.2.2.2.2.2.2.2.2.2.2.2.2.2.2.2.2.2.2.2.2.2.2.2.2.2.2.2.1.1.<.U M n b %Xd.7.).[.{.",
"{.[.{.I.G.' e M n L <.<.2.1.2.2.2.2.2.2.2.2.2.2.2.2.2.2.2.2.2.2.2.2.2.2.2.2.2.2.2.2.2.2.2.2.2.2.2.2.2.1.1.,.U M M b +Xf.r.{.[.{.",
"{.[.[.l.0 oXi z n U 1.1.1.2.2.2.2.2.2.2.2.2.2.2.2.2.2.2.2.2.2.2.2.2.2.2.2.2.2.2.2.2.2.2.2.2.2.2.2.2.2.2.1.2.,.M M g OXf.j.Y.[.{.",
"{.[.[.z.5 0 *Xj x %.2.1.1.1.2.2.2.2.2.2.2.2.2.2.2.2.2.2.2.2.2.2.2.2.2.2.2.2.2.2.2.2.2.2.2.2.2.2.2.2.2.1.1.2.<.M b +Xm.5 > Y.[.{.",
"{.[.).a.< n.#Xb J <.2.1.1.2.2.2.2.2.2.2.2.2.2.2.2.2.2.2.2.2.2.2.2.2.2.2.2.2.2.2.2.2.2.2.2.2.2.2.2.2.2.1.1.1.1.L T >X< 3 % U.[.{.",
"{.[.[.w.% D.C x M -.1.1.1.2.2.2.2.2.2.2.2.2.2.2.2.2.2.2.2.2.2.2.2.2.2.2.2.2.2.2.2.2.2.2.2.2.2.2.2.2.2.1.2.2.<.M R -X@ @ 5._.[.{.",
"{.[.[.{.w.P.! t M I %.1.1.1.2.2.2.2.2.2.2.2.2.2.2.2.2.2.2.2.2.2.2.2.2.2.2.2.2.2.2.2.2.2.2.2.2.2.2.2.2.1.1.<.I o.} S.$ 5.Y.[.{.{.",
"{.[.[.[.).y.*Xe j I 1.1.1.1.2.2.2.2.2.2.2.2.2.2.2.2.2.2.2.2.2.2.2.2.2.2.2.2.2.2.2.2.2.2.2.2.2.2.2.2.2.1.1.,.E n #X7 g.Y.[.[.[.{.",
"{.[.[.`.E.d.B.Q X %.1.1.1.1.2.2.2.2.2.2.2.2.2.2.2.2.2.2.2.2.2.2.2.2.2.2.2.2.2.2.2.2.2.2.2.2.2.2.2.2.1.2.2.<.>.t OXf.5 c.).[.[.{.",
"{.[.[.).l.6 m.] e U &.1.1.1.2.2.2.2.2.2.2.2.2.2.2.2.2.2.2.2.2.2.2.2.2.2.2.2.2.2.2.2.2.2.2.2.2.2.2.2.2.1.1.1.E j *Xf.5 j.W.[.[.[.",
"{.[.{.y.8 6 B...M I 1.,.<.2.2.2.2.2.2.2.2.2.2.2.2.2.2.2.2.2.2.2.2.2.2.2.2.2.2.2.2.2.2.2.2.2.2.2.2.2.1.1.,.1.U n :XN.5 6 x._.[.[.",
"{.{.W.j.5 0 ;X@.J ;.1.1.1.2.2.2.2.2.2.2.2.2.2.2.2.2.2.2.2.2.2.2.2.2.2.2.2.2.2.2.2.2.2.2.2.2.2.2.2.2.1.1.1.1.%.n  .-X3 6 5 y.[.[.",
"[.{.y.8 6 8 ;XO.n L 1.1.2.1.2.2.2.2.2.2.2.2.2.2.2.2.2.2.2.2.2.2.2.2.2.2.2.2.2.2.2.2.2.2.2.2.2.2.2.2.1.1.2.1.I n R -X# 5 6 z.[.).",
"[.{.r.5 5 M.:Xb M ,.1.1.1.2.2.2.2.2.2.2.2.2.2.2.2.2.2.2.2.2.2.2.2.2.2.2.2.2.2.2.2.2.2.2.2.2.2.2.2.2.1.1.1.<.I n A OX9 5 4 h.[.).",
"[.[.w.# f.:XM n M %.1.1.1.2.2.2.2.2.2.2.2.2.2.2.2.2.2.2.2.2.2.2.2.2.2.2.2.2.2.2.2.2.2.2.2.2.2.2.2.2.2.1.1.2.1.J M A *X7 , g.[.).",
"[.{.R.$ m.X.x @.n M <.1.1.2.2.2.2.2.2.2.2.2.2.2.2.2.2.2.2.2.2.2.2.2.2.2.2.2.2.2.2.2.2.2.2.2.2.2.2.2.2.1.1.1.,.K @.M %Xn.# t.[.[.",
"{.[.{.e.b...x @.M U 1.1.1.2.2.2.2.2.2.2.2.2.2.2.2.2.2.2.2.2.2.2.2.2.2.2.2.2.2.2.2.2.2.2.2.2.2.2.2.2.2.2.1.2.,.M @.M %Xm.0.).[.[.",
"{.[.{.(.|.' t n J <.1.1.2.2.2.2.2.2.2.2.2.2.2.2.2.2.2.2.2.2.2.2.2.2.2.2.2.2.2.2.2.2.2.2.2.2.2.2.2.2.2.2.1.1.%.M n b #XL._.{.{.[.",
"{.[.{.U.x.oXC f n L 1.1.1.2.2.2.2.2.2.2.2.2.2.2.2.2.2.2.2.2.2.2.2.2.2.2.2.2.2.2.2.2.2.2.2.2.2.2.2.2.2.1.1.1.I M j a OXj.r.).[.{.",
"{.[.[.l.5 8 K.] h U 1.1.1.2.2.2.2.2.2.2.2.2.2.2.2.2.2.2.2.2.2.2.2.2.2.2.2.2.2.2.2.2.2.2.2.2.2.2.2.2.2.1.1.1.<.z d ^ m.4 s.Y.[.{.",
"{.[.).h.5 < 5 D.C U <.1.1.1.2.2.2.2.2.2.2.2.2.2.2.2.2.2.2.2.2.2.2.2.2.2.2.2.2.2.2.2.2.2.2.2.2.2.2.2.2.1.1.<.=.z ] N.3 5 7 U.[.{.",
"{.[.{.t.& 6 8 &XS M %.2.1.2.2.2.2.2.2.2.2.2.2.2.2.2.2.2.2.2.2.2.2.2.2.2.2.2.2.2.2.2.2.2.2.2.2.2.2.2.2.1.2.1.I x ;X0 6 < g._.[.{.",
"{.[.`.Y.; 3 n.$XM I ,.,.2.1.2.2.2.2.2.2.2.2.2.2.2.2.2.2.2.2.2.2.2.2.2.2.2.2.2.2.2.2.2.2.2.2.2.2.2.2.2.1.1.;.%.M / D.< # r.`.[.{.",
"{.[.{.r.: 3 f.:XJ U <.1.1.1.1.2.2.2.2.2.2.2.2.2.2.2.2.2.2.2.2.2.2.2.2.2.2.2.2.2.2.2.2.2.2.2.2.2.2.1.1.1.1.1.%.n T OX7 5 q._.[.{.",
"{.[.[.x.6 5 n.:Xx U <.1.1.1.1.1.2.2.2.2.2.2.2.2.2.2.2.2.2.2.2.2.2.2.2.2.2.2.2.2.2.2.2.2.2.2.2.2.2.1.2.1.1.<.;.M n ~ J.2 9 Y.[.{.",
"{.[.).g.5 3 n.:Xn m c P %.1.2.1.2.2.2.2.2.2.2.2.2.2.2.2.2.2.1.1.2.2.2.2.2.2.2.2.2.2.2.2.2.2.2.2.2.1.2.&.%.F z n n ) J.< : U.[.{.",
"{.[.{.e.% # n.:XM M n J U *.1.1.2.1.2.2.2.2.2.2.2.2.2.2.2.2.1.1.1.1.1.2.1.1.1.1.1.2.2.2.2.2.2.2.1.1.2.&.K M n n o.| A.@ 8._.[.[.",
"{.[.{.r.: 5 N.' z M z L &.U <.2.1.1.1.2.1.1.1.1.1.2.1.1.1.1.1.1.2.1.1.1.1.1.2.1.1.1.1.1.1.1.1.1.1.2.1.&.%.n n n h @Xm.3 q.).[.{.",
"[.{.R.s.5 5 0 XXN g s n L U %.,.2.1.1.1.1.1.1.1.1.1.1.1.1.1.1.1.%.<.1.1.1.<.U <.1.1.1.1.1.1.1.1.2.1.U I M j d g ] N.5 5 5 0.[.).",
"[.{.w.5 5 5 3 0 K.*XT n n n L ,.1.<.1.1.1.<.&.&.*.1.1.1.1.<.U P F G U U U m e G &.U G &.1.2.<.1.<.%.M M x M @X-XN.3 5 5 1 g.[.).",
"[.{.r.& 3 < < # # N.S M n x M J I U ;.%.K c f c U <.U %.U I L b e j H J M b e f L L j m U <.I %.J J n n M M ` - # < < 3 < 5.[.).",
"{.{._.6.# # 5 3 O N.) z M M j s n M M M j     z L L M L M M n b . e M M n M . X n M f s n M M M j s M M n V oX& # 5 3 @ p.I.[.[.",
"{.[.{._.r.j.5 5 # @ M.~ f j a h n n n M s o o s b n n n M O.j f o X e j e f ] ~ s e   a n n n n z X t j N XX7 @ 5 5 7 7.U.[.[.[.",
"{.[.[.).{.l.5 5 5 # 3 B.OX~ &X! n M M f Q H.H.` f M M M n f Z ] -XXX! ! ! ` f.M.] ! .X.Xg n M M b i ! ] =X0 # 5 5 5 > U.{.).[.{.",
"{.[.[.).{.g.1 5 5 3 5 5 0 S.& q N a y Q N.3 # f.^ h n b C +XH.N.5 n.J.J.F.f.# 3 S.J.9 f.` y y g ] S.F.m.5 6 3 3 5 5 : U.{.[.[.{.",
"{.{.{.).{.7.# < < 5 5 5 5 < < 7 H.&X&XB.6 6 6 < f.` ! ! .Xm.5 5 6 5 < < @ @ 5 6 5 < 5 5 n.&X&X&Xn.@ < 3 6 5 5 3 < < p.Y.{.[.{.{.",
"{.{.{.[.[._.8.% & 5 5 5 5 6 3 @ 3 & & 5 6 5 6 5 @ f.S.N.8 < 5 6 5 5 5 3 # # 5 5 5 5 5 5 6 5 & & # < 6 5 5 5 5 & % p.I.{.[.{.{.{.",
"{.{.{.[.[.[._.U.0.& 5 6 6 5 < < < < @ < 3 5 3 # # < 3 3 # @ 3 5 5 5 # @ @ @ # # 3 5 5 5 3 @ # < < # 3 5 5 5 1 g.I.Y.{.[.[.{.{.{.",
"{.{.{.{.[.{.).`.r.& < 3 < @ 3 5 5 5 5 # # # @ # 5 5 5 5 3 @ # # < # @ @ # < # @ # 3 3 # # 3 5 5 5 5 # # 3 3 < 5.).[.[.[.[.{.{.{.",
"{.{.{.{.{.{.[.[._.8.; # @ @ 3 5 5 5 5 # @ # @ # 5 5 5 5 3 @ @ < 3 < @ # 5 5 3 @ @ # # # # 5 5 5 5 5 @ @ # - g.I.[.[.{.{.{.{.{.{.",
"{.{.{.{.{.{.{.[.{.{.U.8.8.* @ 3 5 5 < + @ < @ @ < 5 5 3 @ + < 5 5 5 & # 5 5 @ + % @ < @ + # 5 5 5 @ $ 6.8.r.[.{.[.[.{.{.{.{.{.{.",
"{.{.{.{.{.{.{.[.[.{.{.{.`.I.3.% , # = 7.4.i.4.6.= @ @ % 5.6.& 5 5 - 8.= , < @ 7.r.a.i.i.7.a.% , # * w.[.{.{.[.[.[.[.{.{.{.{.{.{.",
"{.{.{.{.{.{.{.{.[.{.[.[.[.[.).e.7.w.U.)._._.).).U.w.9.e.).).= < 1 & R.u.t.t.w._.[._._._.)._.e.9.w.Y.[.).).[.[.{.{.{.{.{.{.{.{.{.",
"{.{.{.{.{.{.{.{.{.{.{.[.[.[.[.[.[.[.[.[.[.[.[.[.[.[.[.[.[.{.e.p.p.8._.[.[.[.[.[.[.{.[.[.[.[.[.[.[.[.[.[.[.{.{.{.{.{.{.{.{.{.{.{.",
"{.{.{.{.{.{.{.{.{.{.{.{.{.[.[.[.[.[.[.[.[.{.[.[.[.[.[.[.[.[.[.).).).[.[.[.[.[.[.[.[.{.{.[.[.[.[.[.[.[.{.{.{.{.{.{.{.{.{.{.{.{.{.",
"{.{.{.{.{.{.{.{.{.{.{.{.{.{.{.{.{.{.{.{.{.{.{.{.{.{.{.{.{.{.{.[.[.[.{.{.{.{.{.{.{.{.{.{.{.{.{.{.{.{.{.{.{.{.{.{.{.{.{.{.{.{.{.{."
};
