/* XPM */
static char *_033800d44ff47e4dabec32bc1939a22wY1B6cxdxyilRl5K[] = {
/* columns rows colors chars-per-pixel */
"64 64 201 2 ",
"   c #9B7332",
".  c #9F7A36",
"X  c #A27B36",
"o  c #A27E3B",
"O  c #987E42",
"+  c #5C8467",
"@  c #56856C",
"#  c #5B866B",
"$  c #5E896D",
"%  c #548D73",
"&  c #5C8D72",
"*  c #4E937B",
"=  c #559177",
"-  c #5C9176",
";  c #53947B",
":  c #5D9579",
">  c #5D9A7E",
",  c #608669",
"<  c #628C6E",
"1  c #6A8E6F",
"2  c #628E71",
"3  c #669274",
"4  c #699474",
"5  c #62957C",
"6  c #699778",
"7  c #66987C",
"8  c #69997C",
"9  c #74AD7C",
"0  c #7FB07C",
"q  c #AC853D",
"w  c #B2893E",
"e  c #9E8243",
"r  c #9D884C",
"t  c #9C8C52",
"y  c #9E945C",
"u  c #9A9859",
"i  c #A38443",
"p  c #AA8641",
"a  c #A68946",
"s  c #AE8A43",
"d  c #A48A4B",
"f  c #AA8C49",
"g  c #B28D44",
"h  c #B98F41",
"j  c #B18F48",
"k  c #A9904E",
"l  c #B59147",
"z  c #BB9345",
"x  c #B6934A",
"c  c #BA954A",
"v  c #B6984E",
"b  c #BD9A4D",
"n  c #A38F52",
"m  c #AB9552",
"M  c #A79B57",
"N  c #A99856",
"B  c #A49C5C",
"V  c #B29651",
"C  c #B59C53",
"Z  c #BD9D51",
"A  c #B19C5B",
"S  c #B8A25B",
"D  c #979663",
"F  c #999662",
"G  c #9D9A65",
"H  c #969B6A",
"J  c #9C9D6A",
"K  c #A29B64",
"L  c #AC9F61",
"P  c #87A76F",
"I  c #8DA56C",
"U  c #92A165",
"Y  c #9CA464",
"T  c #89A877",
"R  c #96A274",
"E  c #9BA473",
"W  c #90AF74",
"Q  c #92A57B",
"!  c #84B17B",
"~  c #89B77F",
"^  c #92B074",
"/  c #A2A664",
"(  c #A4A36C",
")  c #A5AA6A",
"_  c #B3A562",
"`  c #A5AA75",
"'  c #AAAD75",
"]  c #AAAF79",
"[  c #A9B17B",
"{  c #C19847",
"}  c #C19D4F",
"|  c #C29F50",
" . c #C4A151",
".. c #3D9F8B",
"X. c #3CA18D",
"o. c #37A795",
"O. c #3CA591",
"+. c #37A897",
"@. c #3CAA96",
"#. c #33AD9C",
"$. c #3AAC99",
"%. c #3AB39F",
"&. c #2EAFA0",
"*. c #2DB4A4",
"=. c #2AB7A9",
"-. c #26BCAD",
";. c #2AB9AA",
":. c #32B4A3",
">. c #36B9A7",
",. c #3DB8A7",
"<. c #33BBAA",
"1. c #22BFB2",
"2. c #479781",
"3. c #449A84",
"4. c #4A9B84",
"5. c #549D84",
"6. c #5C9F83",
"7. c #659A82",
"8. c #6B9D83",
"9. c #679F89",
"0. c #42A38E",
"q. c #4EA58D",
"w. c #57A38A",
"e. c #45A791",
"r. c #50AB91",
"t. c #41B29D",
"y. c #4ABB9B",
"u. c #53B996",
"i. c #59B994",
"p. c #52BE9C",
"a. c #6EA185",
"s. c #6DA888",
"d. c #70A185",
"f. c #7CA587",
"g. c #72A58B",
"h. c #74A98F",
"j. c #7CAB8D",
"k. c #67B389",
"l. c #73B182",
"z. c #7AB381",
"x. c #79B887",
"c. c #6BAE98",
"v. c #74AC92",
"b. c #79AE93",
"n. c #72AE98",
"m. c #66BF97",
"M. c #7CB296",
"N. c #74B39B",
"B. c #7AB39A",
"V. c #46B9A2",
"C. c #7DB9A1",
"Z. c #1FC3B7",
"A. c #1CC6BA",
"S. c #17C9BF",
"D. c #1CCABD",
"F. c #2FC3AE",
"G. c #37C4AC",
"H. c #23C3B5",
"J. c #2BC2B1",
"K. c #2DCAB6",
"L. c #21C6B8",
"P. c #29C5B8",
"I. c #23CBBC",
"U. c #34C5B3",
"Y. c #54C19F",
"T. c #45C0A2",
"R. c #49C4A6",
"E. c #64CCB3",
"W. c #14CEC4",
"Q. c #1ACEC2",
"!. c #1ECEC0",
"~. c #0FD1C9",
"^. c #0ED3CA",
"/. c #12D0C6",
"(. c #12D0C7",
"). c #1AD1C7",
"_. c #12D1C8",
"`. c #10D2CA",
"'. c #29CFC5",
"]. c #25D2C8",
"[. c #29D3C9",
"{. c #8AA681",
"}. c #87A986",
"|. c #8CAA86",
" X c #84AC8A",
".X c #8CAE8A",
"XX c #93AB83",
"oX c #85B28E",
"OX c #9AB58A",
"+X c #9BB68B",
"@X c #84B395",
"#X c #8FB592",
"$X c #82B896",
"%X c #83B698",
"&X c #83B99D",
"*X c #91B590",
"=X c #93B993",
"-X c #9ABD96",
";X c #A7B988",
":X c #83BAA0",
">X c #9FC297",
/* pixels */
"_._._._._._._._._._._._._.(.(.(.(.(.(.(.(.(.(.(.(.(.(.(.(.(.(.(.(.(.(.(.(.(.(.(.(.(.(.(.(.(.(.(.(.(._._._._._._._._._._._._.(._.",
"_._._._._._._._._._.(.(.(.(.(.(.!.I.D.(._.~.Q.I.I.I.(.!.I.I.!.(.(.(.I.I.D.(.!.I.D.(._._._.W.I.!.(.(.(.(.(.(._._._._._._._._.(._.",
"_._._._._._._._.(.(.(.~.~.(.(.K.~ / I p.T.V.z.) ) W y.! Y Y 0 L.D.p.^ Y P p.! / P Y.T.T.R.k.Y W K._.(._.~.(.(.(._._._._._._.(._.",
"_._._._._._._._.(._.(.D.U.x.l.I b c c C C C c c { b C b c c b I ! C b z b S b z c C C C C v c c U l.x.G.D.(._.(._._._._._._.(._.",
"_._._._._._._.(.(.(.u.U B c c c b Z } } } } b b | | } | Z Z } } | } } Z | | | Z } } } b } } } b c c c B u u.W.(.(._._._._._.(._.",
"_._._._._._.(.(._.D.U b c c b | | | | | | | | | | | | | | |  . . . . .| | | | | | | | | | | | | | b c c { u I.(.(.(._._._._.(._.",
"_._._._._._.(.(.(.F.u c  . .} | | | | | | | | | |  .| | | }  . .| } } } |  .|  . .|  .|  .| } | | | |  .c t G.(.(.(._._._._.(._.",
"_._._.(.(.(.(.~.I.P l j }  .| }  . . . .| |  . . . .| | } c b b b b b b | }  . . .| |  .| |  . . .|  .| l l U K._.(.(.(.(._.(._.",
"_._._.(.(.~.Q.G.i.b b } | | | b b |  . .| | | | | | | | | } | | | | | | | b b  . . . .| | | | | | | | | } c b l.U.D._.(.(._.(._.",
"_._._.(.(.Q.l.M N x } | | | | | b }  .| | |  . . . . .} | | | | | | | | | | b }  . .| |  . . . . .} | | | } x m M 9 D.(.(.(.(._.",
"_._._.(.~.k.v c c c | | | | | | | | | | | | |  . . .b c } |  . . . . .|  .| | | | |  . .|  . . .b c | | | } c c c x l.Q.(.(.(._.",
"_._.(.~.K.Y c x c b | |  . .| |  .|  .| |  .| | | | b c } |  .| |  . .|  .| | | | | |  .| | | | b c | | | | | b x z _ E.).(.(._.",
"_._.(._.m.Z c c b |  . . . .| |  . .| | | |  . . .|  .| | | |  . . . . .| |  .| | } | |  . . .| |  .| | | | | b c x { >X[.(.(._.",
"(.(.W.].$Xv b c b |  . . .|  . . . .| b } | |  .| | | | | b } |  . . .|  . . . .| } | |  . .| | | | } b } | | b c b z =X[.(.(._.",
"(.(.(.'.oXf l c c |  . . . .}  . .| |  . .|  . . .| | |  .b c  . . . . .}  . .|  . . .|  . . .| |  . .b b | | b c l B j.P.~.(._.",
"(._.A.q.b.y o j b } } b b b b b | | | | | | | | | |  . . .b l c b b b b b b | | | | | | | | | |  . . .b l b | b g d  X3 q.L._._.",
"(.(.<.4 a.{.i s l } | | } } | } |  . . . . . . . . .} } b } c c } | } } } }  . . . . . . . . . .} } b } c } | c q d @X6 4 t.~.(.",
"(.(.:.4 j.' x j l b } | | | | | | |  . . .} b b b c c } | | | | | | |  .| | |  . . . .} b b b c c b | | | | | b s l ;Xh.3 $.~.(.",
"(.(.1.w.+XZ c c c b | | | | | | b c b b } | | | } b b  .| | | | |  .| | | | b c b b } | } | | b b  .| | |  .} c x z ] v.= -.~._.",
"(._.W.V.XXx c b c } | |  . .| | b b |  .| | | | | |  .| | | | | | |  . .| | b b |  .| | | | |  .| | | | |  .} c b z ] h.4._.W._.",
"(.(.H.w. Xt l b c } | | | | | |  .| | | | | | |  .| | | } |  .| | | | | | |  .| | | |  .| | | | | | } |  .| } c b h E v.> J.~.(.",
"(.(.<.4 8..Xk c c | | |  . . .|  . .| | |  . . .|  .| } c b  . .| |  . . .|  . .| |  . . . .| |  .} c b  . .| b c N  X8 4 t.~.(.",
"(.(.*.< 6 &Xm c b | | |  . .| b b | | | | | | | |  .| | | b }  .|  . . .| b b | | |  .| | | | | | | } b }  .| b v +Xa.6 2 $.~.(.",
"(.(.=.# s.Q x b c | | | | b b l b | | | | | | | | | | } | | | | | | } b b l b | | | | | | | | | | } | | | | | b Z +X8 < # #.~.(.",
"(.(.W.o.c.J j b b | | |  . .| } b b | } | } b b }  .| } | | |  .| | |  .| } b b } } | b b b }  .} } | | | | } b Z +X5 # O.W.(._.",
"(.(._.W.U.$Xi l b b } | | | | | c c b b } b b b b } } | |  . . .| | | | | | c c b } } b b b b } }  .| | | | b c _ f.; #.W._.(._.",
"(.(.(.W.,.N.F o l } } | | | |  .| } b | | | | | | } | | | | | | | | | | |  .| } } | | |  . .} } | | | | | } b c G v.3 t.W.(.(._.",
"(.(.~.L.> a..X. l b | |  . .b }  .| | | | | | | } | | |  . . . . . . . .b }  .| | | | | | | | | | |  . . . .b l F v.3 7 P.~.(._.",
"(.(.D.r.3 8.#Xs v } | } b b b b | | | | |  .| | } | |  . . . . . .| b b b } | |  .|  . .| | } | |  . . . . .| c ( v.3 6 w.I._._.",
"(.(.>.4 3 b.] b x b  .} b } } b  . . . .| | | |  . .|  .} b b b b b b } } b  . . . .|  .| |  . .| | } b b b b c S #X8 3 4 t.~.(.",
"_.D.w.4 6 :XS } c } | |  .| | b b |  . .|  .| | | |  .|  .} |  . . . .| | b c |  . . .| | | | | | | | |  . .| c Z ;X8.3 3 6.P.~.",
"_.L.7 4 3 &XS b c b | | | | | | } }  .| | |  . . . . .} } | | | | | | | | | } }  .| |  .|  . . . .} | | | | b c c +X7.2 3 7 J.~.",
"(.A.- 3 j.] x c c } | |  .| | | | | | | | | |  . . .b c } |  .|  . . .| | | | | | | | |  . . . .b c | | |  .} c c L  X5 3 - -.~.",
"(.A.& 7 +XZ b b c } | |  .| | | | | | | | | | | | | b c | | | | |  . .|  .| | | | | | | | | | | b c |  .| | b c b { ] v.< & -.~.",
"(.W.#.7.+Xx b } c } | |  . .| |  .| | } } | | |  .| | | | } |  . . . . .| |  . .| } } | | | | | | | | } | | b c b { ] M.2 @.W._.",
"(._.W.,.*Xl b } b | | |  .|  . . . .| | | | |  .| | | |  .b b | | | | |  . . . .| } |  .|  .|  .| | | b } | } c b { ] B.@.W._._.",
"(.(.W.'.@Xf g c c b |  . . .}  . . . . . .| | | | | |  . .b c  . . . . .}  . .|  . . .| | | | | | |  .b b  .b c c w ` n.1._.(._.",
"_.(.A.q.d.Q y l c b b b b b b b | | | | | |  . . .|  . . .b l c b b b b b b | | | } |  . . . .|  . . .b l c b c l i Q 8.5.L.~._.",
"(.(.<.4 2 8.j.K z Z } | } } | } |  . . . . . . . .| } } } } b b } | } } } } |  . . . . . . . .| } } } } b c } c f R 8.3 4 %.~.(.",
"(.(.:.1 3 < v.E h | | | | | | | | |  . . .} b b b c c } | | |  .| | | | | | | |  . . .b b b b c c } | | | b b c K b.6 2 3 @.~.(.",
"(.(.Z.* 3 4 v.[ z b | | |  . .| b c b b } | | | | b b | | | | | |  .| | | | b c b b | | | | | b b | | | | | b c ) b.6 3 ; 1.~._.",
"(.(.W.0., 7 =XC c | | |  .| | | } b | | | | | | | | | | | | | | |  . . .| | b b | | | | | | |  .| | |  .| | | b V .X7 < 4.W.(._.",
"(.(.H.6.< 5 -X} c  .| | | | | |  .| | | | | | |  .| | | | |  .| | | | | | |  .| | | |  .| | | | | | | | | | | b b ' g.3 > J.~.(.",
"(.(.>.4 3 7 =Xc c } | |  . . .|  . . .| |  . . .|  .| } b b  . .|  . . . .|  . .| |  . . . . .|  .} b | | | | b z m %X6 4 t.~.(.",
"(.(.*.< < 5 -Xb x } | |  .| } c b | | |  . . . .|  .| | } b }  .|  . .| } c b | |  . . . . . .| | | |  .} b b c c A @X3 2 $.~.(.",
"(.(.S.4., 5 -Xb b } | | | } b x b | | |  . . .| |  . .| | | | | | | | } b c } | |  . . . . . .| | | | } b l b b b S %X2 * A.(._.",
"(.(.H.5.< 8.*Xs v l c } | | | } b b | | | | | | |  . .|  .| | | | |  . .| | | | | |  . . .| | | | | | b x p j c j ( j.6 > J._._.",
"(.S.5.4 3 6 j.J d d l c }  .| | b b | | | | | | |  .| | | | | | | | |  .| |  .| |  .|  . . .| | | | } b c j a n G j.4 3 4 5.Z._.",
"_.Z.& 3 3 2 3 b.:X` b c } } } |  . .| | | } | | | | | | | |  .| } } | | | | c b | | | | | | | } b c c c l c ' C.M.3 2 3 3 - ;.~.",
"(.A.; < 2 < < $ 7 E b c c c c b } b | } c j c b } | | | } } b c j c b } } b p s |  .|  . .| } } c c c c b b ( 9.$ < < 2 < = H.~.",
"(.W.;.% $ 3 2 # 5 |.x l b c s j c c c c s   q c b b b b c c b j . q } b b c o X c | g j l b b b c c b } c j XX7.+ 2 3 $ & *.W._.",
"_.(.W.1.e.6 3 2 # 7 Q k j s d c c c c c o O e s c c x c b b g a e o q g q a Q R p q e i s b c c b s q j f Q 8.# 2 3 4 e.-.W.(._.",
"(._.(.~.:.6 3 3 2 $ a.%XE Q  XV b b c a {.M.@XD s b b b l s K |.&XQ G J G Q 7.8.R G }.}.a l b b l y G E @Xd.$ < 4 6 1 :._.(.(._.",
"_.(.(._.:.2 3 3 2 2 6 3 v.8.< H d i r T 8.$ & g.D l c l K XXB.a.3 g.B.N.n.7.$ 2 h.B.8 8 }.r e a J b.n.v.6 3 3 2 3 3 < :._.(.(._.",
"_._.(._.;.= < < 2 4 3 4 < < & g.@X@X@Xa.3 4 3 & g.J y J j.s.3 3 4 3 < < + $ 6 4 3 < 4 3 8.@X@X@Xh.$ , < 6 6 3 3 < < & ;._.(.(._.",
"_._._.(.W.:.= % 2 3 3 3 4 3 $ $ & & 5 3 4 3 4 2 $ g.b.h.3 < 4 4 3 6 6 2 $ $ 3 3 6 6 3 3 3 3 & & & $ 3 4 3 3 3 3 & = :.W.(.(.(._.",
"_._.(.(._.W.H.-.; < 3 4 3 2 $ < < $ $ 2 3 3 2 $ $ < 2 2 $ $ 2 3 3 3 < # # + $ $ 2 3 3 3 2 $ $ < < $ 2 3 4 3 2 = ;.A.W.(.(.(.(._.",
"_._.(.(.(.(.(.S.; , 2 2 $ $ 3 3 3 3 2 # $ $ # < 3 3 3 3 $ # $ < $ $ # # $ < $ # $ 2 2 $ # < 3 3 3 3 $ $ 2 2 < = A.~.(.(.(._.(._.",
"_._._._._._.(.W.*.; & $ # $ 3 3 3 3 3 # $ $ # 3 3 3 3 3 $ # $ < 2 $ # $ 3 3 2 $ # $ $ $ # 3 6 3 3 3 $ # $ & ; #.W.(.(._._._.(._.",
"_._._._._._._.(.(.S.$.O.3.@ < 3 3 3 $ # $ $ # $ 3 3 3 2 @ # 2 3 3 3 # $ 3 3 # # # $ $ $ # $ 3 3 3 2 @ 3.O.$.S.W._.(._._._._.(._.",
"_._._._._._.(._.(._.~.~.W.o.% $ < & * o.* * X.2.% < $ % X.3.2 3 4 : 0.% < < # X.#.* * * X.3.& $ $ % X.W.~.~._.(.(.(.(._._._.(._.",
"_._._._._._.(._.(.(.(.W.(.W.1.o...*.A.W.A.A.W.S.*.X.o.-.W.H.% < < = Z.*.O.O.+.S._.A.A.A.W.S.&.X.O.-.W._.W.(.(.(._.(._._._._.(._.",
"_._._._._._._._._._.(.(.(.(._.W.W.W._.(._._.(._.(.W.W.(.(.W.#.= = +.W.(.W.W.W.(.(._._._.(._.(.W.W._._.(.(._._._._._._._._._.(._.",
"_._._._._._._._._._._._._.(.(.(._.(.(.(.(.(.(.(.(._._.(.(.(.W.A.S.W.(.(._._.(.(.(.(.(.(.(.(.(._._.(.(.(._._._._._._._._._._.(._."
};
