/* XPM */
static char *_28b13570607418eedba63281676f583W6JNcUHL3hAmvaye[] = {
/* columns rows colors chars-per-pixel */
"64 64 181 2 ",
"   c #7C052B",
".  c #7D1E3D",
"X  c #772541",
"o  c #85062E",
"O  c #990535",
"+  c #9B0D3A",
"@  c #86173C",
"#  c #8A1339",
"$  c #821B3D",
"%  c #94153D",
"&  c #9B123E",
"*  c #AD043A",
"=  c #A10B3C",
"-  c #B3043C",
";  c #BC033E",
":  c #C3013D",
">  c #8B1C41",
",  c #BB0A43",
"<  c #A21240",
"1  c #A01B46",
"2  c #A81A48",
"3  c #B2184B",
"4  c #812041",
"5  c #8E2748",
"6  c #8F2F4E",
"7  c #902849",
"8  c #9B2950",
"9  c #893F56",
"0  c #983355",
"q  c #933C5B",
"w  c #9B3A5B",
"e  c #A33D5D",
"r  c #B0345C",
"t  c #AF3861",
"y  c #BC3965",
"u  c #B63F68",
"i  c #BC3F69",
"p  c #C90545",
"a  c #C40945",
"s  c #CF0C4A",
"d  c #C1174F",
"f  c #D61555",
"g  c #DB1152",
"h  c #DD1B5A",
"j  c #E0064C",
"k  c #E40C54",
"l  c #E21053",
"z  c #E61B5D",
"x  c #ED195D",
"c  c #F1155E",
"v  c #F3195F",
"b  c #C12457",
"n  c #EF1B60",
"m  c #FD1663",
"M  c #F41C63",
"N  c #FB1964",
"B  c #DE2C66",
"V  c #C33763",
"C  c #C03F68",
"Z  c #CC3969",
"A  c #DA336B",
"S  c #EB2467",
"D  c #EC2C6C",
"F  c #F82067",
"G  c #F82469",
"H  c #F12E6E",
"J  c #EE306E",
"K  c #F52E71",
"L  c #E73770",
"P  c #ED3673",
"I  c #E03871",
"U  c #EA3F76",
"Y  c #F73171",
"T  c #FB3375",
"R  c #874459",
"E  c #8F405A",
"W  c #98415E",
"Q  c #9C4060",
"!  c #9C4A66",
"~  c #A94767",
"^  c #BB436C",
"/  c #A5516C",
"(  c #AC5272",
")  c #B95878",
"_  c #A1677A",
"`  c #BD607F",
"'  c #C5426D",
"]  c #C74770",
"[  c #CF4272",
"{  c #CF4976",
"}  c #D34372",
"|  c #DD477B",
" . c #C6587B",
".. c #E8487D",
"X. c #E1517F",
"o. c #B76581",
"O. c #B7778D",
"+. c #BB788F",
"@. c #AF7E90",
"#. c #B67D92",
"$. c #BA7A92",
"%. c #E34B81",
"&. c #FD4381",
"*. c #F34B83",
"=. c #F94B85",
"-. c #E45483",
";. c #E65686",
":. c #EE558A",
">. c #F35187",
",. c #F15B90",
"<. c #C66A8A",
"1. c #C6708E",
"2. c #D76F95",
"3. c #DA6A91",
"4. c #C07E97",
"5. c #E7638D",
"6. c #F36595",
"7. c #E3779F",
"8. c #EC739C",
"9. c #DC7DA5",
"0. c #ED74A1",
"q. c #F57BAA",
"w. c #C3839B",
"e. c #C9869F",
"r. c #C789A0",
"t. c #DE82A3",
"y. c #CB94A9",
"u. c #CE98AD",
"i. c #DB97AE",
"p. c #D49CB1",
"a. c #DA9AB2",
"s. c #DD9FB9",
"d. c #F786AF",
"f. c #E39FBA",
"g. c #FD91BD",
"h. c #D6A3B7",
"j. c #D8A1B7",
"k. c #DEA3BA",
"l. c #E2A7BF",
"z. c #FB9CCB",
"x. c #E4ABC1",
"c. c #ECADC8",
"v. c #F5A7C6",
"b. c #FCA7CA",
"n. c #F6AECC",
"m. c #FBA9CA",
"M. c #E4B1C6",
"N. c #E9B3CA",
"B. c #ECB8CE",
"V. c #F4B2CE",
"C. c #F9B1CF",
"Z. c #EEBDD2",
"A. c #F7B6D2",
"S. c #FBB4D2",
"D. c #F5BCD5",
"F. c #FBBBD6",
"G. c #FCB5D8",
"H. c #F7BDD8",
"J. c #FBBFD9",
"K. c #EFC1D5",
"L. c #F0C1D4",
"P. c #F6C2D9",
"I. c #FBC4DC",
"U. c #F7CADE",
"Y. c #FAC9DF",
"T. c #F7CFE1",
"R. c #FBCDE1",
"E. c #F7D5E6",
"W. c #FAD3E5",
"Q. c #FBD9E7",
"!. c #FBD7E8",
"~. c #FBD9E9",
"^. c #FAE3EE",
"/. c #FAEEF4",
"(. c #FBF0F7",
"). c #FAF6F9",
"_. c #FCF6F9",
"`. c #FCF9FC",
"'. c #FCFBFC",
"]. c #FEFDFD",
"[. c #FDFEFE",
/* pixels */
"S.S.S.S.S.S.S.S.S.S.S.S.S.S.S.S.S.S.S.S.S.S.S.S.S.S.S.S.S.S.S.S.S.S.S.S.S.S.S.S.S.S.S.S.S.S.S.S.S.S.S.S.S.S.S.S.S.S.S.S.S.S.S.S.",
"S.S.S.D.S.S.S.S.S.S.S.S.S.S.S.S.S.S.S.S.S.S.S.S.S.S.S.S.S.S.S.S.S.S.S.S.S.S.S.S.S.S.S.S.S.S.S.S.S.S.S.S.S.S.S.S.S.S.S.S.S.S.S.S.",
"S.S.S.S.D.P.S.S.S.S.S.S.S.S.S.S.S.S.S.S.S.S.S.S.S.S.S.S.S.S.S.S.S.S.S.S.S.S.S.S.S.S.S.S.S.S.S.S.S.S.S.S.S.S.S.S.S.S.S.S.S.S.S.S.",
"S.S.S.S.D.D.H.S.S.S.S.S.S.S.S.S.S.S.S.S.S.S.S.S.S.S.S.S.S.S.S.S.S.S.S.S.S.S.S.S.S.S.S.S.S.S.S.S.S.S.S.S.S.S.S.S.S.S.S.S.S.S.S.S.",
"S.S.H.D.S.D.D.S.S.S.S.S.S.S.S.S.S.S.S.S.S.S.S.S.S.S.S.S.S.S.S.S.S.S.S.S.S.S.S.S.S.S.S.S.S.S.S.S.S.S.S.S.S.S.S.S.S.S.D.S.S.S.S.S.",
"S.S.S.S.S.D.H.S.S.S.S.S.S.S.S.S.S.S.S.S.S.S.S.S.S.S.S.S.S.S.S.S.S.S.S.S.S.S.S.S.S.S.S.S.S.S.S.S.S.S.S.S.S.S.S.S.S.S.S.S.P.H.S.D.",
"S.S.S.S.S.S.S.S.S.S.S.S.S.S.S.S.S.S.S.S.S.S.S.S.S.S.S.S.S.S.S.S.S.S.S.S.S.S.S.S.S.S.S.S.S.S.S.S.S.S.S.S.S.S.S.S.S.A.S.S.S.S.S.S.",
"S.S.S.S.S.S.S.S.S.S.S.S.S.S.S.S.S.S.S.S.S.S.S.S.S.S.S.S.S.S.S.S.S.S.S.S.S.S.S.S.S.S.S.S.S.S.S.S.S.S.S.S.S.S.S.S.S.S.H.D.S.D.S.S.",
"S.S.S.S.S.S.S.S.S.S.S.S.S.S.S.S.S.S.S.S.S.S.S.S.S.S.S.S.S.S.S.S.S.S.S.S.S.S.S.S.S.S.S.S.S.S.S.S.S.S.S.S.S.S.S.S.S.S.D.D.S.S.S.S.",
"S.S.S.S.S.S.S.S.S.S.S.S.S.S.S.S.S.S.S.S.S.S.S.S.S.S.S.S.S.S.S.S.S.S.S.S.S.S.S.S.S.S.S.S.S.S.S.S.S.S.S.S.S.S.S.S.S.S.S.S.S.S.S.S.",
"S.S.S.S.S.S.S.S.S.S.S.S.S.S.S.S.S.S.S.S.S.S.S.S.S.S.S.S.S.S.S.S.S.S.S.S.S.S.S.S.S.S.S.S.S.S.S.S.S.S.S.S.S.S.S.S.S.S.S.S.S.S.S.S.",
"S.S.S.S.S.S.S.S.S.S.S.S.S.S.S.S.S.S.S.S.S.S.S.S.S.S.S.S.S.S.S.S.S.S.S.S.S.S.S.S.S.S.S.S.S.S.S.S.S.S.S.S.S.S.S.S.S.S.S.S.S.S.S.S.",
"S.S.S.S.S.S.S.S.S.S.S.S.S.S.S.S.S.S.S.S.S.S.S.S.S.S.S.S.S.S.S.S.S.S.S.S.S.S.S.S.S.S.S.S.S.S.S.S.S.S.S.S.S.S.S.S.S.S.S.S.S.S.S.S.",
"S.S.S.S.S.S.S.S.S.S.S.S.S.S.S.S.S.S.S.S.S.S.S.S.S.S.S.S.S.S.S.S.S.S.S.S.S.S.S.S.S.S.S.S.S.S.S.S.S.S.S.S.S.S.S.S.S.S.S.S.S.S.S.S.",
"S.S.S.S.S.S.S.S.S.S.S.S.S.S.S.S.S.S.S.S.S.S.S.S.S.S.S.S.S.S.S.S.S.S.S.S.S.S.S.S.S.S.S.S.S.S.S.S.S.S.S.S.S.S.S.S.S.S.S.S.S.S.S.S.",
"D.D.D.D.D.D.D.D.D.D.D.D.D.D.D.D.D.D.D.D.D.D.D.D.D.D.D.D.D.D.D.D.D.D.D.D.D.D.D.D.D.D.D.D.I.~.~.~.Q.Q.~.~.E.I.D.D.D.D.D.D.D.D.D.D.",
"D.D.F.F.F.F.D.D.D.D.F.F.F.F.D.D.D.D.D.D.F.F.F.F.D.F.F.F.F.F.F.F.F.F.F.F.F.F.D.F.F.D.I.^./.].].].].].].].]./.^.R.D.F.D.D.F.F.F.F.",
"D.D.D.F.F.F.F.D.D.D.F.F.F.F.D.F.D.D.F.F.F.F.F.F.F.F.F.F.F.F.F.F.D.D.F.F.F.F.D.D.D.H.~.].].].].].].].].].].].].].I.F.D.D.F.F.F.F.",
"F.F.F.F.F.F.D.D.D.D.F.F.F.F.F.F.F.F.F.F.D.D.F.F.F.F.D.F.D.D.F.F.D.D.F.F.F.F.F.D.D./.].].].].].].].].].].].].].].`.W.F.F.F.F.D.D.",
"F.F.F.F.F.F.F.F.F.F.F.F.F.F.F.F.F.F.F.F.F.F.F.F.F.F.D.D.D.D.D.F.F.F.F.F.F.F.F.D.D.R.)._._._._._._._._._._._._._._.W.F.F.F.F.D.D.",
"F.F.F.F.F.F.F.F.F.F.F.F.F.F.F.F.F.D.F.F.F.F.D.D.F.F.F.F.D.F.F.F.F.F.F.F.F.F.F.F.D.F.D.D.D.D.D.D.H.D.D.D.D.D.D.D.D.F.F.F.F.F.F.D.",
"F.F.F.F.F.F.F.F.F.F.F.F.F.F.F.D.H.D.D.F.F.F.F.F.F.F.F.D.F.F.F.F.F.F.F.F.F.F.F.F.F.F.F.F.F.F.F.F.H.H.D.D.F.F.F.D.F.F.F.F.F.F.F.D.",
"D.D.F.F.F.F.F.D.D.F.F.F.F.F.D.H.H.I.D.F.F.F.F.F.F.F.D.D.F.F.F.F.F.F.D.D.F.F.F.F.D.D.F.F.F.F.F.F.F.F.F.F.F.F.F.F.F.D.D.D.F.F.F.F.",
"D.D.F.F.F.F.F.D.D.F.F.F.F.D.D.I.I.H.F.D.D.F.F.F.F.F.D.F.F.F.F.F.D.D.D.D.F.F.F.F.D.D.F.F.F.F.F.F.F.F.F.F.F.F.F.F.F.D.D.D.F.F.F.F.",
"D.F.F.F.F.F.F.F.D.D.D.F.D.D.F.I.D.H.F.F.D.D.D.D.F.F.D.F.F.F.F.F.D.D.D.F.F.F.F.D.F.F.F.F.D.D.D.D.F.F.F.F.F.F.F.F.D.D.D.F.F.F.F.F.",
"F.F.F.F.D.F.F.F.D.D.D.F.D.D.H.D.F.F.F.F.D.D.D.D.F.F.D.D.F.F.F.F.D.D.D.D.F.F.F.F.F.F.F.F.F.D.D.D.F.F.F.D.F.F.F.F.D.D.F.F.D.D.D.D.",
"F.F.F.F.F.F.F.F.F.F.F.F.F.F.F.F.F.F.F.F.F.F.F.F.F.F.F.F.F.F.F.F.F.F.F.F.F.F.F.F.F.F.F.F.F.F.F.F.F.F.F.F.F.F.F.F.F.F.F.F.F.F.F.F.",
"J.J.J.J.J.J.J.J.J.J.J.J.J.J.J.J.J.J.J.J.J.J.J.J.J.J.J.J.J.J.J.J.J.J.J.J.J.J.J.J.J.J.J.J.J.J.J.J.J.J.J.J.J.J.J.J.H.H.H.H.J.J.J.J.",
"I.I.I.I.I.I.I.I.I.I.I.I.I.I.I.I.I.I.I.I.I.I.I.I.I.I.I.I.I.I.I.I.I.I.I.I.I.I.I.I.I.I.I.I.I.I.I.I.I.I.I.I.I.I.I.I.I.I.I.Y.I.I.I.I.",
"I.I.I.I.I.I.I.I.I.I.I.I.I.I.I.I.I.I.I.I.I.I.I.I.I.I.I.I.I.I.I.I.I.I.I.I.I.I.I.I.I.I.I.I.I.I.I.I.I.I.I.I.I.I.I.I.Y.R.I.I.I.U.I.I.",
"I.I.I.I.I.I.U.(.`.`.`.`.`.`.`.^.I.I.I.I.I.I.I.I.P.u.$.$.#.k.I.I.I.I.h.@.#.$.r.I.I.I.I.I.I.I.I.I.I.I.I.I.I.I.I.I.I.I.Y.I.I.Y.I.I.",
"I.I.I.I.I./.`.].].].].].].].].].].).W.I.I.I.I.D.c.q 4 4 . o.N.I.I.K.#.X $ > w x.D.I.I.I.I.I.I.I.I.I.I.I.I.I.I.I.I.I.I.R.I.I.I.I.",
"I.I.I.I.^.].].].].].].].].].].].].]./.T.I.I.I.w.Q ^ { [ } i W l.M.9 ~ ] } } ' W #.I.I.I.I.I.I.I.I.I.I.I.I.I.I.I.I.I.Y.R.I.I.I.I.",
"I.I.I.E.].].].].].].].].].].].].].].].`.I.D.s.( 8 2.8.:.>.Z # <.e.5 y 5.8.6.X.1 ( p.D.I.I.I.I.I.I.I.I.I.I.I.I.I.I.I.I.I.I.I.I.I.",
"I.I.I.I.E.~.~.~.~.~.~.~.~.~.~.~.~.~.~.Q.I.k.0 u 3.F.v.:.*.A 3 O < X.-.8.G.g.*.B 3 . j.I.I.I.I.I.I.I.I.I.I.I.I.I.I.I.I.I.I.I.I.I.",
"I.I.I.I.I.I.I.I.I.I.I.I.I.I.I.I.I.I.I.I.j.( ^ t.c.7.:.D K S f a a J P U ,.*.H f , + ~ #.D.I.I.I.I.I.I.I.I.I.I.I.I.I.I.I.I.I.I.I.",
"I.I.I.I.I.I.I.I.I.I.I.I.I.I.I.I.I.I.I.P.w.@ { n.W.| M N N N n k j M N m N m c p - * o E D.I.I.I.I.I.I.I.I.I.I.I.I.I.I.I.I.I.I.I.",
"I.I.I.I.I.I.I.I.I.I.I.I.I.I.I.I.I.I.I.D.w.@ { v.R...M N m m N N N N m m N m c p ; * o 9 Z.I.I.I.I.I.I.I.I.I.I.I.I.I.I.I.I.I.I.I.",
"I.I.I.I.Y.Y.I.I.Y.Y.I.I.I.I.Y.I.I.I.I.P.e.$ { q.d.I M N N N m m N N m N m N x a - *   R Z.I.I.I.I.I.I.I.Y.I.Y.Y.I.I.I.I.Y.Y.I.I.",
"R.R.R.R.R.R.R.R.R.R.R.R.R.R.R.R.R.R.R.U.p.q ' -.;.%.P M m N N N m m N N M n h , * = 7 _ P.R.R.R.R.R.R.R.R.R.R.R.R.R.R.R.R.R.R.R.",
"R.R.R.R.R.R.R.R.R.R.R.R.R.R.R.R.R.R.R.R.R.k.w y ;.z.q.S M N m m m m m M M g a - + # i.U.R.R.R.R.R.R.R.R.R.R.R.R.R.R.R.R.R.R.R.R.",
"R.R.R.R.R.W.R.R.W.W.R.R.R.R.R.R.R.R.R.R.R.K.y.) t 9.0.P G m m m m m N x g p - O e w.Z.R.R.R.R.R.R.R.R.R.R.R.R.R.R.R.R.R.R.R.R.R.",
"R.R.R.R.R.R.R.W.W.R.W.R.R.R.R.R.R.R.R.R.R.R.R.w.q  .-.=.Y M N m m N M z a - < 5 O.R.R.R.R.R.R.R.R.R.R.R.R.R.R.R.R.R.R.R.R.R.R.R.",
"D.H.I.R.R.R.R.W.E.R.W.R.R.R.R.R.R.R.R.R.R.R.R.L.x./ r >.&.T F N m v g ; - < ~ c.Z.R.R.R.R.R.R.R.R.R.R.R.R.R.R.R.R.R.R.R.R.R.R.R.",
"D.H.D.H.R.R.W.R.R.R.R.R.R.R.R.R.R.R.R.R.R.R.R.R.U.y.1.V ..&.T G v l s * & 1.B.R.R.R.R.R.R.R.R.R.R.R.R.R.R.R.R.R.R.R.R.R.R.R.R.R.",
"H.D.D.D.D.Y.R.R.R.E.E.W.R.R.R.R.I.I.I.I.I.R.R.R.H.D.f.0 Z *.=.H z : - 2 ( B.R.R.R.R.R.R.R.R.R.R.R.R.R.R.R.R.R.R.R.R.R.R.R.R.R.R.",
"F.F.F.F.D.D.H.R.W.W.W.E.E.E.W.I.D.H.I.H.D.H.I.I.D.D.V.a.) V ..L h ; = <.V.W.W.E.W.W.W.W.E.E.E.E.E.W.W.W.W.W.E.E.W.E.E.W.W.W.W.W.",
"F.D.F.F.D.D.D.D.R.~.~.~.~.~.W.H.I.R.R.R.I.I.D.D.D.H.I.I.a.` C b d = ~ f.D.Y.!.~.~.~.~.~.~.~.~.~.~.~.~.~.~.~.~.~.~.~.~.~.~.~.~.~.",
"D.D.F.D.F.D.F.D.D.I.!.!.~.E.I.I.R.R.Y.R.Y.R.I.I.I.Y.R.R.Y.c.6 % & $ 4.H.D.D.I.~.~.!.~.~.~.~.~.~.~.~.~.~.~.~.~.~.~.~.~.~.~.~.~.~.",
"I.F.D.F.I.Y.Y.Y.I.H.I.E.!.I.I.R.R.R.R.R.R.R.R.R.R.R.R.R.R.I.l.+.! k.Z.I.D.D.D.I.Y.I.Y.R.W.~.~.~.~.~.~.~.~.~.~.~.~.~.~.~.~.~.E.I.",
"!.I.H.I.Y.Y.R.R.Y.R.I.H.I.I.Y.R.R.R.R.R.R.R.R.R.R.R.W.W.R.W.R.Z.y.R.R.R.I.I.I.R.R.I.D.D.H.I.U.I.I.I.H.H.I.W.~.~.~.~.~.~.~.E.I.D.",
"~.!.W.R.R.R.Y.R.Y.R.R.R.Y.R.R.Y.R.R.R.R.R.Y.R.R.W.~.~.~.~.~.!.R.I.R.R.R.R.R.R.R.R.R.I.I.I.D.D.D.I.R.I.H.D.H.Y.W.I.I.!.~.~.R.D.D.",
"~.~.~.W.R.Y.R.R.R.R.R.R.Y.R.R.W.~.~.~.W.R.R.R.W.~.~.~.~.~.~.~.E.R.I.R.R.R.R.R.R.R.R.R.R.R.Y.I.I.Y.R.R.Y.I.Y.R.I.H.H.H.E.W.D.D.D.",
"~.~.~.~.~.W.Y.R.Y.R.R.R.R.R.W.~.~.~.~.~.!.!.E.Q.~.~.~.~.~.~.~.E.R.R.W.R.R.R.R.R.R.R.R.R.R.Y.R.R.R.R.R.R.R.R.Y.R.R.Y.H.H.H.D.I.I.",
"~.~.~.~.~.!.R.R.R.R.R.R.R.W.~.R.R.~.~.~.~.~.E.~.~.~.~.~.~.~.~.D.b.b.U.E.Y.S.S.S.Y.I.I.I.Y.R.R.Y.R.R.R.Y.R.Y.R.R.Y.Y.Y.H.D.Y.!.~.",
"~.~.~.~.!.~.!.W.H.S.A.I.W.~.E.n.C.~.~.~.~.~.!.!.Y.P.R.~.~.~.~.D.b.b.I.~.W.m.b.m.D.n.b.D.W.R.R.R.R.R.R.R.I.R.R.R.Y.R.R.R.R.~.~.!.",
"~.~.!.!.!.~.~.~.H.b.b.I.!.~.E.b.b.~.~.~.~.~.!.!.S.b.I.~.W.H.H.n.b.b.Y.Q.!.n.b.n.b.m.b.D.~.R.I.I.R.R.R.I.b.!.~.!.W.E.R.W.~.~.~.!.",
"~.~.D.n.C.I.U.~.I.m.b.b.n.W.E.b.n.~.~.~.P.b.b.b.b.b.A.I.D.b.b.b.b.b.D.I.I.b.b.b.b.b.b.D.~.S.b.n.~.!.!.H.b.I.~.E.W.E.W.!.~.I.S.S.",
"~.~.S.b.b.b.A.~.I.b.b.b.b.C.n.b.b.~.~.~.P.b.b.b.b.b.b.b.b.b.b.n.b.b.b.b.b.b.b.b.b.b.b.A.R.n.b.n.D.D.!.S.b.I.~.S.b.b.b.R.~.D.b.m.",
"R.I.C.b.n.b.C.I.A.b.n.b.m.b.b.b.b.b.S.~.I.b.b.b.b.m.m.m.b.m.b.b.m.m.m.b.m.m.m.m.m.b.b.b.b.b.b.b.b.b.E.S.b.b.b.m.b.b.b.C.S.m.b.b.",
"S.m.b.m.b.b.m.m.b.b.b.b.m.m.b.b.b.n.S.~.P.b.b.b.b.b.m.m.b.b.m.m.m.m.m.m.m.m.m.m.m.b.b.b.b.b.b.b.b.b.C.m.m.b.b.b.b.b.b.b.b.b.m.b.",
"b.b.b.b.b.b.b.m.b.m.b.b.m.b.b.m.m.b.n.Y.D.m.b.b.b.m.m.b.b.b.m.m.m.m.m.m.m.m.m.m.b.m.b.b.b.b.m.m.b.b.m.m.b.m.m.m.b.b.b.b.b.b.m.b.",
"m.b.m.m.m.m.m.m.m.m.m.m.m.m.m.m.m.b.b.b.b.b.m.m.m.m.m.m.m.m.m.m.m.m.m.m.m.m.m.m.m.m.m.m.m.m.m.m.m.m.m.m.m.m.m.m.m.m.b.m.m.m.m.m.",
"m.m.m.m.m.m.m.m.m.m.m.m.m.m.m.m.m.b.m.b.b.b.m.m.m.m.m.m.m.m.m.m.m.m.m.m.m.m.m.m.m.m.m.m.m.m.m.m.m.m.m.m.m.m.m.m.m.m.m.m.m.m.m.m."
};
