/* XPM */
static char *_326f17cf6f54cbbdf0e55508b2b0bccx1QjQacMbLhcUbhc[] = {
/* columns rows colors chars-per-pixel */
"64 64 178 2 ",
"   c #5E1F36",
".  c #6C1D37",
"X  c #6D1F3A",
"o  c #791F3C",
"O  c #4E2336",
"+  c #64233A",
"@  c #72213D",
"#  c #5C2E43",
"$  c #523648",
"%  c #652E45",
"&  c #792743",
"*  c #742A44",
"=  c #772E48",
"-  c #663146",
";  c #663A4D",
":  c #79354E",
">  c #643D51",
",  c #783650",
"<  c #6A475A",
"1  c #734D61",
"2  c #7E4E65",
"3  c #745264",
"4  c #7E5166",
"5  c #881D3E",
"6  c #872747",
"7  c #8B2646",
"8  c #852C4A",
"9  c #942648",
"0  c #82324E",
"q  c #8B304E",
"w  c #9F2C50",
"e  c #873853",
"r  c #8A3D59",
"t  c #973455",
"y  c #AD2E54",
"u  c #B12F56",
"i  c #AA3156",
"p  c #AB345A",
"a  c #B4335A",
"s  c #BC345C",
"d  c #9C3F61",
"f  c #B43960",
"g  c #C3335E",
"h  c #C73662",
"j  c #C53964",
"k  c #C93B66",
"l  c #CD3E6A",
"z  c #D13E6B",
"x  c #D83A68",
"c  c #84435B",
"v  c #804660",
"b  c #8E4B66",
"n  c #994665",
"m  c #904865",
"M  c #984A67",
"N  c #81556B",
"B  c #8C526A",
"V  c #845A6E",
"C  c #885A6F",
"Z  c #93506B",
"A  c #845E72",
"S  c #8F5A70",
"D  c #955773",
"F  c #9D5573",
"G  c #925B73",
"H  c #AD4569",
"J  c #B6496E",
"K  c #AC4F72",
"L  c #A15070",
"P  c #AE5779",
"I  c #BD557B",
"U  c #B5597C",
"Y  c #BB5A7E",
"T  c #8E6276",
"R  c #8D6579",
"E  c #856879",
"W  c #97627A",
"Q  c #95697F",
"!  c #C5406A",
"~  c #CC436E",
"^  c #D2416E",
"/  c #CE4E77",
"(  c #CD4E78",
")  c #D44571",
"_  c #D34A76",
"`  c #D54E7A",
"'  c #D94F7B",
"]  c #C0577D",
"[  c #CF517B",
"{  c #D5517C",
"}  c #DA527E",
"|  c #BB5F83",
" . c #9B6B81",
".. c #8C7281",
"X. c #977284",
"o. c #927788",
"O. c #9C7489",
"+. c #967A8B",
"@. c #9C7C8D",
"#. c #A5798D",
"$. c #CE5C85",
"%. c #D55782",
"&. c #DB5581",
"*. c #DD5A86",
"=. c #D75E89",
"-. c #DD5D89",
";. c #E05985",
":. c #D9638D",
">. c #95808F",
",. c #968090",
"<. c #A28495",
"1. c #A98094",
"2. c #A78899",
"3. c #AC899C",
"4. c #B3889D",
"5. c #B88EA3",
"6. c #B091A3",
"7. c #BB92A7",
"8. c #BD95AA",
"9. c #BE9BAD",
"0. c #C595AB",
"q. c #C39BAE",
"w. c #C59EB1",
"e. c #CB9FB4",
"r. c #CEA6B9",
"t. c #CCAABB",
"y. c #D5A5BC",
"u. c #D4A9BE",
"i. c #D5ACC1",
"p. c #DEACC3",
"a. c #D4B3C4",
"s. c #DAB2C5",
"d. c #DCB6C9",
"f. c #E2AAC3",
"g. c #FBA7C9",
"h. c #F7AECC",
"j. c #FBA9CA",
"k. c #E2B0C7",
"l. c #E4B3C9",
"z. c #EBB6CE",
"x. c #E1BACD",
"c. c #F5B3CF",
"v. c #FAB1CF",
"b. c #FBAED0",
"n. c #E5BFD1",
"m. c #ECBBD2",
"M. c #F7B5D1",
"N. c #FBB4D2",
"B. c #F6BCD5",
"V. c #FBBBD6",
"C. c #F6BFD8",
"Z. c #FABED8",
"A. c #EFC3D7",
"S. c #EECEDE",
"D. c #F3C1D7",
"F. c #F6C3DA",
"G. c #FAC3DC",
"H. c #F6CADE",
"J. c #FAC9DF",
"K. c #F7CDE0",
"L. c #FBCCE1",
"P. c #F6D4E4",
"I. c #FAD2E4",
"U. c #FCD8E7",
"Y. c #FBD6E8",
"T. c #F7DDE9",
"R. c #FBD9E9",
"E. c #F9DDEA",
"W. c #F7E6EF",
"Q. c #FAE2EE",
"!. c #FBE6F0",
"~. c #F9E9F2",
"^. c #FBF1F7",
"/. c #FDF3F7",
"(. c #FBF2F8",
"). c #FDF6F9",
"_. c #FCFBFC",
"`. c #FEFEFE",
/* pixels */
"N.N.N.V.N.N.N.N.N.N.N.N.N.N.N.N.N.N.N.N.N.N.N.N.N.N.N.N.N.N.N.N.N.N.N.N.N.N.N.N.N.N.N.N.N.N.N.N.N.N.N.N.N.N.N.N.N.N.N.N.N.N.N.N.",
"N.N.N.M.L.V.N.N.N.N.N.N.N.N.N.N.N.N.N.N.N.N.N.N.N.N.N.N.N.N.N.N.N.N.N.N.N.N.N.N.N.N.N.N.N.N.N.N.N.N.N.N.N.N.N.N.N.N.N.N.N.N.N.N.",
"N.N.F.V.N.B.N.N.N.N.N.N.N.N.N.N.N.N.N.N.N.N.N.N.N.N.N.N.N.N.N.N.N.N.N.N.N.N.N.N.N.N.N.N.N.N.N.N.N.N.N.N.N.N.N.N.N.N.N.N.N.N.N.N.",
"N.N.F.N.N.C.N.N.N.N.N.N.N.N.N.N.N.N.N.N.N.N.N.N.N.N.N.N.N.N.N.N.N.N.N.N.N.N.N.N.N.N.N.N.N.N.N.N.N.N.N.N.N.N.N.N.N.N.N.N.N.V.N.N.",
"N.N.N.V.N.F.N.N.N.N.N.N.N.N.N.N.N.N.N.N.N.N.N.N.N.N.N.N.N.N.N.N.N.N.N.N.N.N.N.N.N.N.N.N.N.N.N.N.N.N.N.N.N.N.N.N.N.N.N.N.N.N.V.B.",
"N.N.N.N.N.N.N.N.N.N.N.N.N.N.N.N.N.N.N.N.N.N.N.N.N.N.N.N.N.N.N.N.N.N.N.N.N.N.N.N.N.N.N.N.N.N.N.N.N.N.N.N.N.N.N.N.N.N.N.N.N.B.V.N.",
"N.N.N.N.N.N.N.N.N.N.N.N.N.N.N.N.N.N.N.N.N.N.N.N.N.N.N.N.N.N.N.N.N.N.N.N.N.N.N.N.N.N.N.N.N.N.N.N.N.N.N.N.N.N.N.N.N.N.N.N.N.V.V.N.",
"N.N.N.N.N.N.N.N.N.N.N.N.N.N.N.N.N.N.N.N.N.N.N.N.N.N.N.N.N.N.N.N.N.N.N.N.N.N.N.N.N.N.N.N.N.N.N.N.N.N.N.N.N.N.N.N.N.N.N.N.N.V.C.N.",
"N.N.N.N.N.N.N.N.N.N.N.N.N.N.N.N.N.N.N.N.N.N.N.N.N.N.N.N.N.N.N.N.N.N.N.N.N.N.N.N.N.N.N.N.N.N.N.N.N.N.N.N.N.N.N.N.N.N.N.N.N.N.N.N.",
"N.N.N.N.N.N.N.N.N.N.N.N.N.N.N.N.N.N.N.N.N.N.N.N.N.N.N.N.N.N.N.N.N.N.N.N.N.N.N.N.N.N.N.N.N.N.N.N.N.N.N.N.N.N.N.N.N.N.N.N.N.N.N.N.",
"N.N.N.N.N.N.N.N.N.N.N.N.N.N.N.N.N.N.N.N.N.N.N.N.N.N.N.N.N.N.N.N.N.N.N.N.N.N.N.N.N.N.N.N.N.N.N.N.N.N.N.N.N.N.N.N.N.N.N.N.N.N.N.N.",
"N.N.N.N.N.N.N.N.N.N.N.N.N.N.N.N.N.N.N.N.N.N.N.N.N.N.N.N.N.N.N.N.N.N.N.N.N.N.N.N.N.N.N.N.N.N.N.N.N.N.N.N.N.N.N.N.N.N.N.N.N.N.N.N.",
"N.N.N.N.N.N.N.N.N.N.N.N.N.N.N.N.N.N.N.N.N.N.N.N.N.N.N.N.N.N.N.N.N.N.N.N.N.N.N.N.N.N.N.N.N.N.N.N.N.N.N.N.N.N.N.N.N.N.N.N.N.N.N.N.",
"N.N.N.N.N.N.N.N.N.N.N.N.N.N.N.N.N.N.N.N.N.N.N.N.N.N.N.N.N.N.N.N.N.N.N.N.N.N.N.N.N.N.N.N.N.N.N.N.N.N.N.N.N.N.N.N.N.N.N.N.N.N.N.N.",
"N.N.N.N.N.N.N.N.N.N.N.N.N.N.N.N.N.N.N.N.N.N.N.N.N.N.N.N.N.N.N.N.N.N.N.N.N.N.N.N.N.N.N.N.N.N.N.N.N.N.N.N.N.N.N.N.N.N.N.N.N.N.N.N.",
"V.V.V.V.V.V.V.V.V.V.V.V.V.V.V.V.V.V.V.V.V.V.V.V.V.V.V.V.V.V.V.V.V.V.V.V.V.V.V.V.V.V.V.V.V.V.F.^.).).).).L.N.N.N.N.N.N.N.V.V.V.V.",
"V.V.V.V.V.V.V.V.V.V.V.V.V.V.V.V.V.V.V.V.V.V.V.V.V.V.V.V.V.V.V.V.V.V.V.V.V.V.V.V.V.V.V.V.F.(._.`.`.`.`.`._.F.N.N.N.N.N.N.N.V.V.V.",
"V.V.V.V.V.V.V.V.V.V.V.V.V.V.V.V.V.V.V.V.V.V.V.V.V.V.V.V.V.V.V.V.V.V.V.V.V.V.V.V.V.V.V.F.Q.`.`.`.`.`.`.`.`.).Z.N.N.N.N.N.N.V.V.V.",
"V.V.V.V.V.V.V.V.V.V.V.V.V.V.V.V.V.V.V.V.V.V.V.V.V.V.V.V.V.V.V.V.V.V.V.V.V.V.V.V.V.V.V.~.`.`.`.`.`.`.`.`.`.`./.V.N.N.N.N.N.V.V.V.",
"V.V.V.V.V.V.V.V.V.V.V.V.V.V.V.V.V.V.V.V.V.V.V.V.V.V.V.V.V.V.V.V.V.V.V.V.V.V.V.V.V.V.V.F.W.~.~.~.~.~.~.~.~.~.~.E.V.N.N.N.N.V.V.V.",
"V.V.V.V.V.V.V.V.V.V.V.V.V.V.V.V.V.V.V.V.V.V.V.V.V.V.V.V.V.V.V.V.V.V.V.V.V.V.V.V.V.V.V.V.V.V.V.V.V.V.V.V.V.V.V.V.V.N.N.N.N.V.V.V.",
"V.V.V.V.V.V.V.V.V.V.V.V.V.V.V.V.Z.V.V.V.V.V.V.V.V.V.V.V.V.V.V.V.V.V.V.V.V.V.V.V.V.V.V.V.V.V.V.V.V.V.V.V.V.V.V.V.Z.V.N.N.N.V.V.V.",
"V.V.V.V.V.V.V.V.V.V.V.V.V.V.V.C.B.G.V.V.V.V.V.V.V.V.V.V.V.V.V.V.V.V.V.V.V.V.V.V.V.V.V.V.V.V.V.V.V.V.V.V.V.V.V.V.V.V.V.V.V.V.V.V.",
"V.V.V.V.V.V.V.V.V.V.V.V.V.V.V.C.C.L.V.V.V.V.V.V.V.V.V.V.V.V.V.V.V.V.V.V.V.V.V.V.V.V.V.V.V.V.V.V.V.V.V.V.V.V.V.V.V.V.V.V.V.V.V.V.",
"V.V.V.V.V.V.V.V.V.V.V.V.V.V.V.F.F.F.V.V.V.V.V.V.V.V.V.V.V.V.V.V.V.V.V.V.V.V.V.V.V.V.V.V.V.V.V.V.V.V.V.V.V.V.V.V.V.V.V.V.V.V.V.V.",
"V.V.V.V.V.V.V.V.V.V.V.V.V.V.F.V.V.V.V.V.V.V.V.V.V.V.V.V.V.V.V.V.V.V.V.V.V.V.V.V.V.V.V.V.V.V.V.V.V.V.V.V.V.V.V.V.V.V.V.V.V.V.V.V.",
"V.V.V.V.V.V.V.V.V.V.V.V.V.V.V.V.V.V.V.V.V.V.V.V.V.V.V.V.V.V.V.V.V.V.V.V.V.V.V.V.V.V.V.V.V.V.V.V.V.V.V.V.V.V.V.V.V.V.V.V.V.V.V.V.",
"Z.Z.Z.Z.Z.Z.Z.Z.Z.Z.Z.Z.Z.Z.Z.Z.V.V.Z.Z.Z.Z.V.V.Z.Z.Z.Z.Z.Z.Z.Z.Z.Z.Z.Z.Z.Z.Z.Z.Z.Z.Z.Z.Z.Z.V.V.Z.Z.Z.Z.Z.Z.Z.Z.Z.Z.Z.V.V.Z.Z.Z.",
"G.G.G.G.G.G.G.F.F.G.G.G.G.G.G.G.G.G.G.G.G.G.G.G.G.G.G.G.G.G.G.G.G.G.G.G.G.G.G.G.G.G.G.G.G.G.G.G.G.G.G.G.G.G.G.G.G.G.G.G.G.F.G.G.",
"G.G.G.G.G.G.F.G.G.G.G.G.G.G.G.G.G.G.G.G.G.G.G.G.G.G.G.G.G.G.G.G.G.G.G.G.G.G.G.G.G.G.G.G.G.G.G.G.G.G.G.G.G.G.G.G.G.G.G.J.P.F.G.G.",
"G.G.G.G.G.F.G.E.E.E.E.E.E.E.E.I.G.G.G.G.G.G.G.F.F.F.F.F.G.G.G.G.G.G.G.G.G.G.G.G.G.F.F.F.F.F.F.G.G.G.G.G.G.G.G.G.G.G.F.G.G.G.G.F.",
"G.G.G.G.G.E.~.`.`.`.`.`.`.`.`._.!.Q.H.G.G.F.F.F.F.F.F.F.F.G.G.G.G.G.G.G.G.G.G.F.F.F.F.F.F.F.F.G.G.G.G.G.G.G.G.G.G.G.F.J.G.G.F.F.",
"G.G.F.G.T.`.`.`.`.`.`.`.`.`.`.`.`.`.).F.G.C.B.q.3.3.7.z.F.C.F.G.G.G.G.G.G.G.F.C.F.p.3.3.3.p.F.F.G.G.G.G.G.G.G.G.G.G.F.G.G.G.L.L.",
"G.G.G.~._.`.`.`.`.`.`.`.`.`.`.`.`.`.`.^.K.B.7.B m m b R 8.m.F.F.F.F.C.F.F.F.B.k.@.R D D D  .l.F.F.G.G.G.G.G.G.G.G.G.G.F.F.G.G.G.",
"G.F.G.~.`.`.`.`.`.`.`.`.`.`.`.`.`.`.`.`.T.8.Z ( } { { P G E y.B.F.l.f.z.C.m.4.V F Y -.-.-.Y Q l.F.F.G.G.G.G.G.G.G.G.F.F.F.G.G.G.",
"G.F.F.G.I.I.I.I.I.I.I.I.I.I.I.I.I.I.I.I.F.o.n } ` ` { ;.$.U W 0.e.A 1 O.e.1.M J { &.` ` ` =.N y.F.F.G.G.G.G.G.G.G.G.G.F.G.G.G.G.",
"G.G.G.F.G.G.G.G.G.G.G.G.G.G.G.G.G.F.G.F.F.+.n { ` ` { _ l ) I > ; I $.L $ r ~ l h ` { ` { [ 2 u.F.F.G.G.G.G.G.G.G.G.G.G.F.F.G.G.",
"G.G.G.G.G.G.G.G.G.G.G.G.G.G.G.G.G.G.F.F.F.+.n { ` ` { _ k j k 0 d { { { , y h k ` { ` ` ` _ 2 u.F.F.G.G.G.G.G.G.G.G.G.G.G.G.G.G.",
"G.G.G.G.G.G.G.G.G.G.G.G.G.G.G.G.G.G.G.F.F.+.n { ` ` ` ` { { l 8 n ` ` ( : f ` { ` ` ` ` { { 2 u.F.F.G.G.G.G.G.G.G.G.G.G.G.G.G.G.",
"G.G.G.G.J.G.G.G.J.J.G.G.G.G.G.G.G.G.G.G.G.+.n { ` ` { _ k k g 8 t ` { ~ * a k _ { ` ` { { { 2 i.G.G.G.J.J.J.G.G.G.G.G.G.J.G.G.G.",
"L.L.L.L.L.L.L.L.L.L.L.L.L.L.L.L.L.L.L.L.K.,.M { ` ` ` j g g a %   u g 9 O q g g k ` ` ` ` [ 4 a.L.L.L.L.L.L.L.L.L.L.L.L.L.L.L.L.",
"I.I.I.L.L.L.L.L.L.L.L.L.I.I.I.I.L.L.L.L.L.>.n { { { _ ~ ! y o 5 7 + - . 5 & t a k ` { { { / 2 a.L.L.I.I.I.I.L.L.L.L.L.L.I.I.I.I.",
"L.L.L.L.L.P.L.L.L.L.L.L.L.L.L.L.L.L.L.L.L.9.c j ^ z k w r ; 9 ) %.< @.@ x { n # 6 y z l ^ p T n.L.L.L.L.L.L.L.L.L.L.L.L.L.L.L.L.",
"L.L.L.L.L.L.L.I.I.L.L.L.L.L.L.L.L.L.L.L.L.H.q.: @ X * #.+.e s { :.1 r.B p ` :.< X.G X X * S d.L.L.L.L.L.L.L.L.L.L.L.L.L.L.L.L.L.",
"F.J.L.L.L.L.L.R.I.L.I.I.L.L.L.L.L.L.L.L.L.L.H.u.w.q.r.t.c s ` { $.3 d.@.9 _ &.U X.s.w.w.w.x.L.L.L.L.L.L.L.L.L.L.L.L.L.L.L.L.L.L.",
"V.V.C.L.L.L.P.L.L.L.I.L.L.L.L.L.L.L.L.L.L.L.L.L.H.H.H.2.q ^ { *.v w.A.3.q ~ ` } U O.n.H.L.L.L.L.L.L.L.L.L.L.L.L.L.L.L.L.L.L.L.L.",
"V.V.V.Z.G.L.L.I.L.P.P.L.L.L.L.L.L.L.L.L.L.L.L.L.L.D.4.r l { { ] T x.L.x.C u ` ` %.F 2.H.L.L.L.L.L.L.L.L.L.L.L.L.L.L.L.L.L.L.L.L.",
"V.V.V.V.V.F.J.L.L.I.I.P.L.L.L.L.Z.V.Z.Z.V.Z.J.L.G.z.C y _ ` *.Z 9.J.H.n.T i ` ` { I  .s.H.L.L.L.L.L.L.L.L.L.L.L.L.L.L.L.L.L.L.L.",
"V.V.V.V.V.V.Z.J.Y.R.R.R.R.R.R.F.V.G.J.G.G.C.V.Z.V.B.0.0 l { %.D e.J.F.B.5.0 l } { { I  .a.P.R.R.R.R.R.R.R.R.R.R.R.R.R.R.R.R.R.R.",
"V.V.V.V.V.V.V.V.G.Y.R.R.R.R.I.Z.G.L.J.L.L.J.G.F.V.Z.m.T i ' Y O.m.J.J.F.f.B i z l { &.K ..S.P.R.R.R.R.R.R.R.R.R.R.R.R.R.R.Q.R.R.",
"V.V.V.V.Z.C.C.C.V.C.I.R.R.I.F.G.L.J.L.J.L.L.L.L.G.G.J.l.G J | O.A.J.J.J.F.f.B = & s ) H E S.P.R.R.R.R.R.R.R.R.R.R.R.R.R.R.E.R.R.",
"V.V.Z.F.L.L.L.J.G.F.C.H.Y.F.G.L.J.J.L.L.L.L.L.L.L.L.J.J.l.Q F 1.D.J.L.L.H.G.p.7.< % 7 7 A m.F.I.R.R.R.R.Y.I.L.Y.R.R.R.Y.R.R.R.R.",
"I.Z.G.L.L.L.J.L.L.L.G.F.F.G.L.L.L.L.L.L.L.L.L.L.L.L.I.I.I.x.<.x.L.L.L.L.L.J.G.G.m.6.3 3 #.c.M.V.F.F.V.Z.C.V.V.F.L.R.R.R.Y.Y.R.R.",
"R.P.L.J.J.J.L.L.L.L.L.L.J.L.L.L.L.L.I.L.L.L.L.J.L.P.R.R.R.R.P.R.Y.L.J.L.J.L.J.J.L.G.F.F.H.J.G.C.V.V.C.J.L.G.C.Z.F.G.L.G.V.L.R.R.",
"R.R.R.I.J.L.L.L.L.L.L.L.J.L.L.I.R.R.R.R.L.L.J.L.Y.R.R.R.R.R.R.Y.R.J.I.F.J.L.L.L.L.L.L.L.L.L.J.L.G.G.L.L.L.L.J.L.J.L.L.F.C.V.L.Y.",
"R.R.R.R.Y.L.L.L.J.L.L.L.L.J.I.R.R.R.R.Y.R.Y.Y.Y.R.R.R.R.R.R.R.R.R.G.Y.H.L.L.L.L.L.L.L.L.L.L.L.L.J.L.L.L.L.J.L.L.L.J.L.L.L.F.V.F.",
"R.R.R.R.R.Y.L.L.L.L.L.L.L.L.R.I.F.R.R.R.R.R.R.R.R.R.R.R.R.R.R.R.I.j.j.h.R.I.G.N.N.V.J.F.F.F.J.L.L.L.J.L.L.L.J.L.J.L.L.L.J.J.F.V.",
"R.R.R.R.R.R.Y.L.V.V.M.F.L.R.R.V.j.J.R.R.R.R.R.R.R.L.J.L.R.R.R.R.L.g.j.j.R.R.L.h.j.h.C.N.g.h.I.L.L.L.L.L.L.L.L.G.L.L.L.J.L.L.L.L.",
"R.R.R.R.R.R.R.R.N.g.j.F.P.R.R.M.j.F.R.R.R.R.R.R.R.N.j.F.Y.Y.G.G.C.g.j.h.U.R.L.j.j.h.j.j.g.j.Y.P.L.J.L.L.L.L.B.h.Y.R.I.I.I.L.L.R.",
"R.L.h.h.J.L.P.R.N.g.j.h.c.L.R.N.j.F.R.R.R.N.h.h.h.j.j.B.L.L.h.j.g.j.g.j.I.I.F.g.g.j.g.g.j.j.Y.F.g.j.G.R.Y.Y.N.h.J.R.Y.P.P.Y.P.R.",
"R.J.j.g.g.j.F.R.M.g.g.j.g.M.V.h.j.F.R.R.R.N.j.j.h.j.g.g.g.j.g.j.j.j.j.h.g.g.g.j.j.g.g.g.j.j.P.F.g.j.Z.L.L.R.h.j.G.R.V.j.j.j.B.R.",
"P.G.g.j.j.j.F.P.N.j.j.j.g.g.j.j.j.c.N.I.R.v.g.j.j.j.j.j.j.j.g.g.g.g.g.g.g.j.g.g.g.g.g.g.j.j.j.j.j.g.j.g.h.R.b.g.v.N.j.j.j.j.M.J.",
"h.j.g.j.j.g.j.j.g.g.j.j.g.j.g.j.j.j.j.L.Y.N.g.j.j.j.g.g.j.j.g.j.g.g.g.g.g.g.g.g.g.g.g.g.g.j.j.g.g.g.j.j.j.F.h.j.j.j.j.j.j.j.g.j.",
"g.g.j.g.j.j.g.g.j.g.g.j.g.j.j.g.g.j.g.L.R.h.j.g.j.g.g.g.j.j.j.g.g.g.g.g.g.g.g.g.g.g.g.g.g.g.j.g.g.g.g.j.g.j.j.j.g.j.g.g.g.g.g.g."
};
