/* XPM */
static char *_e5cf3aa30a24eb5f723c93f93a2dabcP3WOJzsMsdqZYqoD[] = {
/* columns rows colors chars-per-pixel */
"64 64 209 2 ",
"   c #BE477E",
".  c #B46283",
"X  c #BA6A8B",
"o  c #BC748F",
"O  c #BE7593",
"+  c #C35586",
"@  c #C85786",
"#  c #C55389",
"$  c #CB558B",
"%  c #CC5B8E",
"&  c #D35792",
"*  c #D45C94",
"=  c #DA5D96",
"-  c #DB5E9A",
";  c #C2638D",
":  c #C9608E",
">  c #C16C8E",
",  c #CD6393",
"<  c #C36C92",
"1  c #CC6C94",
"2  c #D26395",
"3  c #D26996",
"4  c #D46398",
"5  c #DD629C",
"6  c #D46B9A",
"7  c #DC6D9E",
"8  c #C47395",
"9  c #C47596",
"0  c #CC739A",
"q  c #C57C9B",
"w  c #CA7B9C",
"e  c #D5739D",
"r  c #DB739F",
"t  c #D4799E",
"y  c #E1619D",
"u  c #E0759F",
"i  c #DD6FA0",
"p  c #CE7FA0",
"a  c #DC74A2",
"s  c #D47CA2",
"d  c #DB7CA4",
"f  c #DF7CA8",
"g  c #E162A0",
"h  c #E274A4",
"j  c #E279A6",
"k  c #E676A8",
"l  c #E976A9",
"z  c #E47BA9",
"x  c #EB7CAD",
"c  c #B98699",
"v  c #BF8DA0",
"b  c #BE9EA7",
"n  c #C4849D",
"m  c #C9819D",
"M  c #D0809F",
"N  c #CC84A2",
"B  c #C28CA1",
"V  c #CC8DA5",
"C  c #CE8CA8",
"Z  c #D382A3",
"A  c #DA83A7",
"S  c #D18AA6",
"D  c #D785A8",
"F  c #DE85AA",
"G  c #D58DAA",
"H  c #DB8CAC",
"J  c #C492A4",
"K  c #C992A6",
"L  c #C498A7",
"P  c #C794A8",
"I  c #CD95AA",
"U  c #C59DAB",
"Y  c #CB9CAE",
"T  c #D492AC",
"R  c #DA93AE",
"E  c #D299AE",
"W  c #DB98AF",
"Q  c #CF9EB2",
"!  c #D696B0",
"~  c #DC94B1",
"^  c #D39CB1",
"/  c #DA9BB4",
"(  c #DF9FB9",
")  c #E285AC",
"_  c #EA82AE",
"`  c #E389AF",
"'  c #E486B0",
"]  c #EB84B2",
"[  c #E48BB2",
"{  c #EC8BB5",
"}  c #EE8DB9",
"|  c #E394B4",
" . c #EA92B6",
".. c #E29AB6",
"X. c #E791B8",
"o. c #ED94BB",
"O. c #E69DBA",
"+. c #ED9BBC",
"@. c #F195BE",
"#. c #F19ABE",
"$. c #C6A6AF",
"%. c #C8A1AF",
"&. c #C7A4B0",
"*. c #CDA4B2",
"=. c #CDABB5",
"-. c #CEAEB8",
";. c #D4A4B5",
":. c #DBA1B6",
">. c #D2ACB7",
",. c #D4A4B8",
"<. c #DCA5BA",
"1. c #D4ADBA",
"2. c #DCABBD",
"3. c #CFB4BC",
"4. c #D4B3BE",
"5. c #DBB2BF",
"6. c #D7B8BF",
"7. c #E3A4BC",
"8. c #E9A2BE",
"9. c #E2ABBE",
"0. c #EF97C0",
"q. c #EF9BC1",
"w. c #F197C0",
"e. c #F29DC1",
"r. c #DDAEC2",
"t. c #D6B5C1",
"y. c #DCB5C3",
"u. c #D6BBC3",
"i. c #DABCC5",
"p. c #DDBFC9",
"a. c #ECA5C2",
"s. c #E3ABC1",
"d. c #ECACC4",
"f. c #EFADC8",
"g. c #F2A4C4",
"h. c #F1ABC6",
"j. c #FBA7C9",
"k. c #F3ADCA",
"l. c #FAA9CA",
"z. c #E5B3C4",
"x. c #E9B3C6",
"c. c #E6B6C8",
"v. c #EBB5C9",
"b. c #E1BAC8",
"n. c #ECBCCC",
"m. c #F5B2CC",
"M. c #F8B4CE",
"N. c #F3BBCE",
"B. c #F7B4D0",
"V. c #FBB4D2",
"C. c #F5BCD2",
"Z. c #FBBBD6",
"A. c #F9BFD8",
"S. c #DAC1C6",
"D. c #DCC5CA",
"F. c #DECACD",
"G. c #E1C6CD",
"H. c #EDC0CF",
"J. c #E1CBCD",
"K. c #F1C0CF",
"L. c #E5C5D1",
"P. c #EFC0D0",
"I. c #E3CCD1",
"U. c #F5C5D5",
"Y. c #F8C3D6",
"T. c #F6C9D6",
"R. c #F9CAD7",
"E. c #F6C3D9",
"W. c #FBC3DB",
"Q. c #F6CBD9",
"!. c #FACDDB",
"~. c #E4D2D4",
"^. c #E5D6D9",
"/. c #EAD6D8",
"(. c #E7D9DB",
"). c #ECDDDD",
"_. c #F5D7DE",
"`. c #FAD1DD",
"'. c #ECE0DE",
"]. c #FBCDE2",
"[. c #EBDEE0",
"{. c #F7D7E0",
"}. c #FBD4E4",
"|. c #F6DCE1",
" X c #FADCE3",
".X c #FBD6E8",
"XX c #FBD9E9",
"oX c #EDE4E2",
"OX c #EEE8E6",
"+X c #F3E5E4",
"@X c #F9E2E4",
"#X c #F2EAE6",
"$X c #FCE3EA",
"%X c #F9E7E8",
"&X c #F4EDEA",
"*X c #FBEBEA",
"=X c #F6F1EC",
"-X c #FBF2EF",
";X c #FCF1EE",
":X c #FDEBF0",
">X c #F6F2F0",
",X c #FBF6F1",
"<X c #FCF9F3",
"1X c #FDFAF3",
"2X c #FBFAF4",
"3X c #FDF9F4",
"4X c #FDFAF4",
"5X c #FEFBF4",
"6X c #FDFBF8",
/* pixels */
"V.V.V.Z.V.V.V.V.V.V.V.V.V.V.V.V.V.V.V.V.V.V.V.V.V.V.V.V.V.V.V.V.V.V.V.V.V.V.V.V.V.V.V.V.V.V.V.V.V.V.V.V.V.V.V.V.V.V.V.V.V.V.V.V.",
"V.V.V.B.].Z.V.V.V.V.V.V.V.V.V.V.V.V.V.V.V.V.V.V.V.V.V.V.V.V.V.V.V.V.V.V.V.V.V.V.V.V.V.V.V.V.V.V.V.V.V.V.V.V.V.V.V.V.V.V.V.V.V.V.",
"V.V.E.Z.V.C.V.V.V.V.V.V.V.V.V.V.V.V.V.V.V.V.V.V.V.V.V.V.V.V.V.V.V.V.V.V.V.V.V.V.V.V.V.V.V.V.V.V.V.V.V.V.V.V.V.V.V.V.V.V.V.V.V.V.",
"V.V.E.V.V.A.V.V.V.V.V.V.V.V.V.V.V.V.V.V.V.V.V.V.V.V.V.V.V.V.V.V.V.V.V.V.V.V.V.V.V.V.V.V.V.V.V.V.V.V.V.V.V.V.V.V.V.V.V.V.V.Z.V.V.",
"V.V.V.Z.V.E.V.V.V.V.V.V.V.V.V.V.V.V.V.V.V.V.V.V.V.V.V.V.V.V.V.V.V.V.V.V.V.V.V.V.V.V.V.V.V.V.V.V.V.V.V.V.V.V.V.V.V.V.V.V.V.V.Z.C.",
"V.V.V.V.V.V.V.V.V.V.V.V.V.V.V.V.V.V.V.V.V.V.V.V.V.V.V.V.V.V.V.V.V.V.V.V.V.V.V.V.V.V.V.V.V.V.V.V.V.V.V.V.V.V.V.V.V.V.V.V.V.C.Z.V.",
"V.V.V.V.V.V.V.V.V.V.V.V.V.V.V.V.V.V.V.V.V.V.V.V.V.V.V.V.V.V.V.d.a.V.V.V.V.V.V.V.V.V.V.V.V.V.V.V.V.V.V.V.V.V.V.V.V.V.V.V.V.Z.Z.V.",
"V.V.V.V.V.V.V.V.V.V.V.V./ ( V.V.V.V.V.V.V.V.V.V.V.Z.E.`. X%X&X^ ! &X*X X`.W.Z.V.V.V.V.V.V.V.V.V.V.V.7.n 7.V.V.V.V.V.V.V.V.Z.A.V.",
"V.V.V.V.V.V.V.V.V.M.m.m.G G V.V.V.V.V.V.V.V.W. X*XD.<.<./ / R 9 4.1X1X1X1X1X,X*X XQ.Z.V.V.V.V.m.f.f.C t ! V.V.V.V.V.V.V.V.V.V.V.",
"V.V.V.V.V.V.T H H ..~ H < ..V.V.V.V.V.Z.}.*X1X1X1XoXs x @.e.{ h t.1X1X1X1X1X1X1X1X1X;X$X;.m p N G H t . V.V.V.V.V.V.V.V.V.V.V.V.",
"V.V.V.V.V.V.7.j ] @.#._ e 7.V.V.V.Z.}.,X1X1X1X4X1X&./ R H ..| t i.1X1X4X4X4X1X1X1X1X1X1XoX1 x @.e.o._ > V.V.V.V.V.V.V.V.V.V.V.V.",
"V.V.V.V.V.m.N | F H ..F 1 ..V.V.`.;X1X1X1X1X4X1X1X1X1X1X,X&XoXu.F.4X1X4X4X4X4X4X4X1X1X2Xc w p Z H H a X V.V.V.V.V.V.V.V.V.V.V.V.",
"V.V.V.V.V.V.m.V.m.m.m.k.n 7.A.*X1X1X1X1X4X4X4X1X1X1X1X4X4X4X4Xu.t.2X1X1X4X4X4X4X4X4X1X1XoX>X=X&XoXn.a.n V.V.V.V.V.V.V.V.V.V.V.V.",
"V.V.V.V.V.V.V.V.V.V.V.V.C c.,X1X1X1X4X4X4X4X4X4X4X1X1X1X1X1X4X,.^ 4X1X1X4X4X4X4X4X4X1X1X4X1X1X4X4X,XQ.V V.V.V.V.V.V.V.V.V.V.V.V.",
"V.V.V.V.V.V.V.V.V.V.V.V.I '.1X1X1X4X4X4X4X4X4X4X4X4X1X1X1X4X#X~ F #X4X1X4X4X4X4X4X4X1X1X1X1X1X1X1X1X=XY V.V.V.V.V.V.V.V.V.V.V.V.",
"Z.Z.Z.Z.Z.Z.Z.Z.Z.Z.Z.}.U ).1X1X4X4X4X4X4X4X4X4X4X4X4X4X1X2Xp.| ] y.2X1X4X4X4X4X4X4X4X4X4X4X4X4X1X1X=Xb `.V.V.V.V.V.V.V.Z.Z.Z.Z.",
"Z.Z.Z.Z.Z.Z.Z.Z.Z.Z.}.1Xc F.1X4X4X4X4X4X4X4X4X4X4X4X4X1X4X-XC d d p =X1X4X4X4X4X4X4X4X4X4X4X4X4X1X1X#Xc 1XE.V.V.V.V.V.V.V.Z.Z.Z.",
"Z.Z.Z.Z.Z.Z.Z.Z.Z.}.,X=XO 4.1X4X4X4X4X4X4X4X4X4X4X4X4X1X1X^.| e.o.j I.4X1X1X4X4X4X4X4X4X4X4X4X1X1X1XF.q &X;XA.V.V.V.V.V.V.Z.Z.Z.",
"Z.Z.Z.Z.Z.Z.Z.Z.!.,X4XD.A C 1X1X1X1X4X4X4X4X4X4X4X4X1X1X4XI F F ) a m 2X1X1X4X4X4X4X4X4X4X4X1X1X1X1XY [ S.1X-XZ.V.V.V.V.V.Z.Z.Z.",
"Z.Z.Z.Z.Z.Z.Z.E.;X1X4Xv q.t #X1X1X1X4X4X4X4X4X4X4X1X1X1X).H e.e.@.x a I.1X1X4X4X4X4X4X4X4X4X1X1X1X&Xm o.T 1X1X*XZ.V.V.V.V.Z.Z.Z.",
"Z.Z.Z.Z.Z.Z.A.*X1X1XoXq [ j 1.4X1X1X4X4X4X4X4X4X4X1X1X1X;.+.g.+.+.] x C ,X1X1X1X4X4X4X4X4X4X1X1X1Xu.A [ d ).1X1X XV.V.V.V.Z.Z.Z.",
"Z.Z.Z.Z.Z.Z.!.1X1X4X4.F ` k 9 ,X1X4X4X4X4X4X4X4X4X1X1XoXN H F `  .z 7 1 (.1X4X4X4X4X4X4X4X4X1X4X4Xc [ ) a 2.1X1X1XQ.V.V.V.Z.Z.Z.",
"Z.Z.Z.Z.Z.A.;X1X4X,XV e.e.{ a I.1X1X4X4X4X4X4X1X1X1X1Xt.o.X.[ [ [ ' k k :.1X1X1X4X4X4X4X4X4X1X4X^.Z #.@.] G &X1X1X;XA.Z.Z.Z.Z.Z.",
"Z.Z.Z.Z.Z. X1X1X1X^.D e.e.{ x V 1X1X1X1X4X4X4X1X1X1X&X! e.e.e.e.e.+.x x d &X1X1X4X4X4X4X4X4X1X1XY o.@.@._ j I.1X1X1X XA.Z.Z.Z.Z.",
"Z.Z.Z.Z.A.;X1X1X1XY | [ [ ` h 0 [.1X1X1X4X4X4X1X1X1Xi.F F o.) ' [ [ j 6 7 y.2X1X1X1X4X4X1X1X1X#Xm [ | [ j h T 4X1X1X,XE.Z.Z.Z.Z.",
"Z.Z.Z.Z.}.1X1X1X#XN e.e.e.@.x j ;.1X1X1X4X1X1X1X1X&XG +.o.o.o.o.o.+.] k x s =X1X1X1X1X4X1X1X1Xu.X.e.e.g.} x r [.4X1X1X}.Z.Z.Z.Z.",
"Z.Z.Z.Z.*X1X1X4XU `  .@.@.@.x h < &X1X1X1X1X1X1X1X4.q.e.e.e.e.e.e.e.@.x x k 1.,X4X1X1X4X1X1X,Xn | @.#.e.o.h h I 4X1X4X*XA.Z.Z.Z.",
"A.A.A.W.,X1X1X#Xq [ ` [ ` ` z k i 1.1X1X1X1X,X>.I s o.s D D | +.A D s 2 k l 0 N ~.1X1X1X1X1XD.G ` ` ` ) ) h h s oX4X4X,XW.A.A.A.",
"W.W.W. X1X1X1X1. .e.e.e.e.e.o.x x 8 =X4X1X1X&X<.k., 6 O.M.f.1 4 ; m.+.z % % f +.p.4X1X1X1X,XK g.g.e.e.e.e.] x x r.1X1X1X XE.W.W.",
"W.W.W.*X1X1X&XN +.+.+.o.`  .o.k k a t.1X1X1X,X^ M.H Z a.M.m.Z s Z k.} ] r a [ g.t.4X1X1X1XS.H @.#.#. .{ o.{ x k d &X1X1X*XE.W.W.",
"W.W.W.,X1X1Xu.d ` ) ) ) ) F ` h h h w =X1X1X2XF.! ......O.7.O.O.O.) f f j F ..T u.1X1X1X=XB ` ) ) ) F ) ) ` 7 7 7 y.1X1X;XW.W.E.",
"W.W.!.,XI.i.9 e.#.+.#.#.e.e.+.] x x a P i.oX1X1XG.8 j j a j r h 7 * - - - - , t.,X1X&X^.%.H e.e.#.e.e.g.e.@.x x x 9 L.).,X].E.W.",
"W.W.}.oXT d.e ] s R ~ N +.H H d 3 k a a H U 1X1X1XF.; t 1 t t a 6 , 4 * * + ~.4X4X,XY 7...r } Z R R H e.Z G a 2 l 2 ] / oX}.].].",
"W.W. XoX! M.Z $ ; C.M.G @ + k.} d % # _ q.%.4X1X1X1XB T.T.U.x.<.s.n.T.a.o.9 2X4X4X-XE M.h.: $ H M.M.< % w g.} + $ % } 9.oX.XW.W.",
"W.E. X&XI V.m.a.d.M.M.h.O.8.g.} { ) _  .h.-.4X1X1X1XI !.!.s.t.4.i.2.v.k.0.q 1X1X4X1X*.m.M.d.8.k.M.M.8.O.a.o.} ' ' { @.s.#XXXW.W.",
"W.E.$X,XB R | ....O.O.8.8.| d f f a d H N F.1X1X1X1XJ !.W.2.=.+X~.t.G k.+.q 1X1X4X1XJ.V ......O.O.O.O.O.) f a d a Z R U ,XXXW.W.",
"W.W.$X1XoXO k k h a u r r 2 * = = - 5 * I 1X1X1X1X4XJ !.N.y.4.*X/.u.R h.w.q 2X1X1X1X1X=.6 h j h h h h 7 * - 5 5 y 5 0 oX4X$XW.W.",
"W.W.$X4X1X).X d d s A s F s e 6 2 4 , B ,X1X4X1X1X4XJ !.N.y.6.*X/.u.R g.w.q 1X1X1X1X1X1XY s d d d t d d e 6 6 2 2 ; oX1X1X$XW.W.",
"W.W.XX1X1X4XJ Q.T.T.T.T.T.T.T.T.a.o.' t.2X4X1X1X1X1XJ !.N.^ L G.4.%.S k.w.q 1X1X1X4X1X1XD.c.T.T.T.T.T.T.T.T.C.o.o.V 4X1X4XXXW.W.",
"W.W.XX1X1X6XL `.!.!.!.!.!.!.T.n.O.o.[ 4.2X1X1X1X1X>XP !.Q.C.d.T T x.N.C.+.9 >X1X1X1X1X1XI.n.!.!.!.!.!.!.!.U.v.[ @.T 4X1X1XXXW.W.",
"].].XX1X1X4XL `.!.!.!.!.!.!.9.| X.) [ 1.#X=X1X1XD.Y ^ :.!.!.2.U.T.2.!.C.G I Y S.1X1X=XoXI.n.!.!.!.!.!.!.!.7.+.` o.! 4X1X1X X].].",
"].]..X1X1X4XU `.!.`.!.!.!.!.n.7.| X.' c Q 3.4X4X-.U.!.2.!.!.2.Q.R.9.!.C.~ !.Q.-.1X1Xu.:.P n.!.!.!.`.!.!.!.n.s.) @.! 4X1X1X.X].].",
"].].}.1X1X6XU `.!.{.!.!.!.!.!.!.g.+.[ x.Q.$.OXoXU U.!.2.:.:.:.Q.!.;.:.T ^ !.Q.U (.(.&.U.P.n.!._.!.!.!.!.!.!.Y.+.w.! 4X1X1X}.].].",
"].].].;X1X6X%.`.!. X!.!.!.!.!.Q.H ) A x.!.:.,.<.z.!.!.!.Q.7.7.z.`.!.!.!.!.!.!.c.2.<.<.!.P.n.!. X!.!.!.!.!.!.Y.+.@.! 4X1X;X].].].",
"E.!.].$X1X6X*.`.!. X!.!.!.!.!.T.|  .s x.!.!.T.T.!.!.!.!.T.G O./ `.!.!.!.!.!.!.T.T.!.!.!.H.n.!. X!.!.!.!.`.!.Y.+.@.! 4X1X*X].].].",
"Z.Z.A. X1X6X*.!.!. XT.2.r.<.v.Q...) F x.!.9.| R T.!.!.!.!.Q.!.T.T.!.!.!.!.!.7.| ~ !.!.!.n.n.!. X!.n.r.2.7.T.Y.+.w.! 4X1XXX].].].",
"Z.Z.Z.E.;X4X=.!.!.@X7.-.D.i./ C.g.@.[ c.!.z...R T.!.!.!.!.!.n.,.2.n.!.!.!.!.9.../ !.!.!.n.c.!. XT.,.=.D.t...Y.+.w.^ 4X,X}.].].].",
"Z.Z.Z.Z.$X4X-.`.!. X<.=.).G.:.d.g.@.[ n.!.!.Q.!.!.!.!.!.!.R.R 7.9.,.Q.`.!.!.!.!.!.!.!.!.n.c.!.@Xc.,.G.).=.~ C.@.@.! 4X*X].].].].",
"Z.Z.Z.Z.!.4X4.!.!.|.r.$.I.G.I d.g.@.[ n.!.!.!.!.!.!.!.!.!.n.H | X.<.U.!.!.!.!.U.n.v.!.!.n.c.!.@Xc.*.G.~.=.! C.+.w.E 4X$XXXXXXXXX",
"Z.Z.Z.Z.A.:X4.!.!.@Xs./ :.:.( C.g.+.[ n.!.!.!.!.!.`.!.!.!.n.| 7.7.2.U.!.!.!.!.7.+.~ T.!.n.c.!.@XU.:.:.:./ 8.Y.@.w.^ ,XXXXX$XXXXX",
"Z.Z.Z.Z.A.}.t.!.!.@XQ.!.!.!.!.!.g.@.' ^ z.<.<.:.,.^ E ^ K T 7.!.!.z.I I ,.^ / I T T x.v.2.c.!.@X`.!.!.!.!.!.Y.@.w.^ $XXXXXXXXXXX",
"Z.Z.A.E.].].5.!.Q._.x.x.!.!.!.!.g.@.' w s.N O.7.d...O.x.R C.!.!.!.Q.N./ Y.R 8.7.s.H T :.8 z.!.@X`.!.!.!.!.!.Y.@.@.! XX.XXXXXXXXX",
"}.A.W.].].!.5.!.!.L.| R !.!.!.!.g.@.` Z Z S T.C S v.v.G V !.!.!.!.!.!.<.R / T.G S n.G M Z x.!.@X`.!.!.!.!.!.Y.@.@.! .XXX.X.XXXXX",
"XX.X].!.!.!.y.!.!.{.U.U.!.!.!.!.g.@.[ | T.Q.!.Q.Q.!.!.Q.Y.N.d.7.7.x.C.!.Q.!.!.Q.Q.!.W.T.9.x.!. X`.!.!.!.!.!.Y.@.@.! ].W.Z.].XX.X",
"XXXXXX}.!.!.z.!.!. X!.!.!.!.U.v.| o.[ O.!.!.!.!.!.!.Y.7.1.i.~.).).~.i.;.2.T.!.!.!.!.!.!.d.x.!. X`.!.!.!.Q.!.Y.@.@.~ !.E.A.Z.]..X",
"XXXXXXXX.X].z.!.!. X!.Q.!.!.z.+.o.F ' 8.!.!.!.!.!.m.<.).=X,X(.+X+X~.&X&X).;.v.!.!.!.!.!.d.x.!. X`.!.!.9.O.W C.@.@.~ !.].].E.Z.A.",
"XXXXXXXXXX.Xy.!.!._.:.H x.!.x.G Z ` [ O.!.!.!.!.C.1.-X-XF.+Xi.D.D.u.+XF.*X*X<.N.!.U.T.!.d.c.!.}.`.!.!./ e.| C.+.@.! !.].!.!.A.Z.",
"XXXXXXXXXXXXb.!.!.`.<.~ x.!.!.`.g.w.` O.!.!.!.!./ #X&X/./.o , # $ , X I./.%X@X^ W.~ ..U.d.c.!.z.R 9.!.n.x.x.Y.@.@.! !.!.].].].].",
"XXXX.X.XXXXXb.Q.!.!.R.T.!.!.!.!.g.+.' O.!.!.!.N.u.-X%XI.< - 5 & 2 5 5 < G.*X*Xt.f.<.7.R.d.c.!.x.~ 9.Q.C.K.!.Y.@.q./ .X}.}.].].XX",
"XX].l.l.!.].y.!.!.!.!.!.!.!.P.7.H +.' O.!.!.!.7.oX&XJ.;.= 5 y = * 5 y * ;.F.&X).W !.!.!.d.c.!.!.T.!.v.| | n.U.+.@.! .X.X.X.X.XXX",
"XX!.l.j.j.l.2.!.!.!.!.!.!.!.s.+.| o.' O.!.!.!./ =X&X*X^ 5 y y & * y y = I *X*X%XT W.!.!.d.c.`.!.!.!.n./ / U.T.+.@./ C.l.l.l.C.XX",
".XW.j.l.l.l.2.!.!.!.!.!.!.!.n.7.H o.' O.!.!.!.Y 1X*X/.C - y 5 % 1 5 y - V ).*X*XI C.!.!.d.c.!.!.!.!.!.!.!.!.Y.+.@.H l.l.j.l.B.!.",
"l.l.j.l.l.j.2.!.!.!.!.!.`.!.!.!.g.@.) O.!.!.Y.=.,X*X+XC 5 y 5 ; < 5 y 5 C %X*X*X;.m.!.!.d.c.!.!.!.!.!.!.!.!.Y.+.@.G l.l.l.l.j.l.",
"j.j.l.j.l.l.9.T.!.!.!.!.!.!.!.!.g.@.) O.!.!.N.4.,X*X*X/ 5 y y   # 5 g 5 R *X*X*X5.8.!.!.d.v.!.!.!.!.!.!.!.!.Y.+.@.G j.j.j.j.j.j."
};
