/* XPM */
static char *_5958bf79cc94217a4cbc1563fd5e580sO3qgDE6aByMLrFO[] = {
/* columns rows colors chars-per-pixel */
"64 64 182 2 ",
"   c #6E1F39",
".  c #7C1E3C",
"X  c #4D2437",
"o  c #622038",
"O  c #6D223C",
"+  c #60293E",
"@  c #7B213F",
"#  c #5C2E43",
"$  c #583648",
"%  c #602E44",
"&  c #7A2441",
"*  c #712B44",
"=  c #7A2D49",
"-  c #673A4E",
";  c #7B324E",
":  c #623B50",
">  c #7C3954",
",  c #6F4057",
"<  c #694558",
"1  c #70475D",
"2  c #7F4158",
"3  c #744C60",
"4  c #7E4D62",
"5  c #775266",
"6  c #785567",
"7  c #7C566A",
"8  c #812442",
"9  c #8E2647",
"0  c #8D2F4E",
"q  c #922345",
"w  c #902748",
"e  c #932C4D",
"r  c #9B2A4D",
"t  c #87314E",
"y  c #9B2E51",
"u  c #893552",
"i  c #923554",
"p  c #9C3456",
"a  c #943E5E",
"s  c #A42C50",
"d  c #AD2C52",
"f  c #B22F56",
"g  c #A53256",
"h  c #B5335B",
"j  c #BC345D",
"k  c #C4335E",
"l  c #C9325E",
"z  c #D7315F",
"x  c #C53661",
"c  c #CB3562",
"v  c #C53A65",
"b  c #CA3A65",
"n  c #CD3D68",
"m  c #85465E",
"M  c #8B405A",
"N  c #854E65",
"B  c #8C4C67",
"V  c #8F4F6B",
"C  c #934662",
"Z  c #9B4363",
"A  c #914966",
"S  c #904F6B",
"D  c #9D4E6D",
"F  c #8D546D",
"G  c #855A6E",
"H  c #94526B",
"J  c #8C5D72",
"K  c #945470",
"L  c #9C5573",
"P  c #A34466",
"I  c #B7476D",
"U  c #B9486E",
"Y  c #BB4970",
"T  c #A35575",
"R  c #AD5376",
"E  c #B75579",
"W  c #BD567C",
"Q  c #B35A7C",
"!  c #896176",
"~  c #866779",
"^  c #8E6579",
"/  c #906277",
"(  c #94677B",
")  c #9C667E",
"_  c #93687D",
"`  c #98697F",
"'  c #C3436C",
"]  c #CB416C",
"[  c #D4416E",
"{  c #CF4470",
"}  c #D34471",
"|  c #D24975",
" . c #D84A77",
".. c #D54F7B",
"X. c #D94B78",
"o. c #C1597F",
"O. c #D6517C",
"+. c #DB527F",
"@. c #936D80",
"#. c #986F84",
"$. c #8C7283",
"%. c #907585",
"&. c #9A7387",
"*. c #9B7488",
"=. c #A16C83",
"-. c #A27A8E",
";. c #A87B8F",
":. c #A47C91",
">. c #C85B82",
",. c #D75480",
"<. c #DA5581",
"1. c #D05C85",
"2. c #DD5A86",
"3. c #DE5D89",
"4. c #E15481",
"5. c #E15985",
"6. c #E35C89",
"7. c #D5638C",
"8. c #DD608B",
"9. c #A58597",
"0. c #A98396",
"q. c #AE8599",
"w. c #AD8A9C",
"e. c #B3859B",
"r. c #B58DA0",
"t. c #BA8DA3",
"y. c #B996A8",
"u. c #BC9AAC",
"i. c #BCA0B0",
"p. c #C095AA",
"a. c #C29AAC",
"s. c #C899AF",
"d. c #C79DB2",
"f. c #C3A5B5",
"g. c #CCABBC",
"h. c #D2A4BA",
"j. c #DAA4BC",
"k. c #D6ADC1",
"l. c #DDAEC4",
"z. c #D6B1C3",
"x. c #DBB3C6",
"c. c #DEB6C9",
"v. c #DEBACC",
"b. c #E4ACC5",
"n. c #EBAEC8",
"m. c #FCA7C9",
"M. c #F6ACCB",
"N. c #FBA9CA",
"B. c #E5B3CB",
"V. c #EAB4CC",
"C. c #F1B3CD",
"Z. c #F9B0CF",
"A. c #EEBBD2",
"S. c #F5B6D1",
"D. c #FBB4D2",
"F. c #F6BAD4",
"G. c #FBBBD6",
"H. c #F7BFD8",
"J. c #FBBFD9",
"K. c #E7C0D3",
"L. c #EBC2D5",
"P. c #EBCADA",
"I. c #F6C3DA",
"U. c #FAC4DC",
"Y. c #F5CADE",
"T. c #FAC9DF",
"R. c #F7CBE0",
"E. c #FBCCE1",
"W. c #F6D3E3",
"Q. c #FAD3E5",
"!. c #FAD9E7",
"~. c #FBD6E8",
"^. c #FBD9E9",
"/. c #FADAE8",
"(. c #FAE3EE",
"). c #FAE6F1",
"_. c #F8EAF1",
"`. c #F9F3F7",
"'. c #FBF6FA",
"]. c #FCF6FA",
"[. c #FDFAFC",
"{. c #FEFEFE",
/* pixels */
"D.D.D.D.D.D.D.D.D.D.D.D.D.D.D.D.D.D.D.D.D.D.D.D.D.D.D.D.D.D.D.D.D.D.D.D.D.D.D.D.D.D.D.D.D.D.D.D.D.D.D.D.D.D.D.D.D.D.D.D.D.D.D.D.",
"D.D.D.D.D.D.D.D.D.D.D.D.D.D.D.D.D.D.D.D.D.D.D.D.D.D.D.D.D.D.D.D.D.D.D.D.D.D.D.D.D.D.D.D.D.D.D.D.D.D.D.D.D.D.D.D.D.D.D.D.D.D.D.D.",
"D.D.D.D.F.I.D.D.D.D.D.D.D.D.D.D.D.D.D.D.D.D.D.D.D.D.D.D.D.D.D.D.D.D.D.D.D.D.D.D.D.D.D.D.D.D.D.D.D.D.D.D.D.D.D.D.D.D.D.D.D.D.D.D.",
"D.D.D.D.F.F.F.D.D.D.D.D.D.D.D.D.D.D.D.D.D.D.D.D.D.D.D.D.D.D.D.D.D.D.D.D.D.D.D.D.D.D.D.D.D.D.D.D.D.D.D.D.D.D.D.D.D.D.D.D.D.D.D.D.",
"D.D.F.I.D.F.F.D.D.D.D.D.D.D.D.D.D.D.D.D.D.D.D.D.D.D.D.D.D.D.D.D.D.D.D.D.D.D.D.D.D.D.D.D.D.D.D.D.D.D.D.D.D.D.D.D.D.D.F.D.D.D.D.D.",
"D.D.D.D.D.F.H.D.D.D.D.D.D.D.D.D.D.D.D.D.D.D.D.D.D.D.D.D.D.D.D.D.D.D.D.D.D.D.D.D.D.D.D.D.D.D.D.D.D.D.D.D.D.D.D.D.D.D.D.D.U.G.D.F.",
"D.D.D.D.D.D.D.D.D.D.D.D.D.D.D.D.D.D.D.D.D.D.D.D.D.D.D.D.D.D.D.D.D.D.D.D.D.D.D.D.D.D.D.D.D.D.D.D.D.D.D.D.D.D.D.D.D.D.F.D.D.D.D.D.",
"D.D.D.D.D.D.D.D.D.D.D.D.D.D.D.D.D.D.D.D.D.D.D.D.D.D.D.D.D.D.D.D.D.D.D.D.D.D.D.D.D.D.D.D.D.D.D.D.D.D.D.D.D.D.D.D.D.D.F.F.D.F.D.D.",
"D.D.D.D.D.D.D.D.D.D.D.D.D.D.D.D.D.D.D.D.D.D.D.D.D.D.D.D.D.D.D.D.D.D.D.D.D.D.D.D.D.D.D.D.D.D.D.D.D.D.D.D.D.D.D.D.D.D.F.F.D.D.D.D.",
"D.D.D.D.D.D.D.D.D.D.D.D.D.D.D.D.D.D.D.D.D.D.D.D.D.D.D.D.D.D.D.D.D.D.D.D.D.D.D.D.D.D.D.D.D.D.D.D.D.D.D.D.D.D.D.D.D.D.D.D.D.D.D.D.",
"D.D.D.D.D.D.D.D.D.D.D.D.D.D.D.D.D.D.D.D.D.D.D.D.D.D.D.D.D.D.D.D.D.D.D.D.D.D.D.D.D.D.D.D.D.D.D.D.D.D.D.D.D.D.D.D.D.D.D.D.F.D.D.D.",
"D.D.D.D.D.D.D.D.D.D.D.D.D.D.D.D.D.D.D.D.D.D.D.D.D.D.D.D.D.D.D.D.D.D.D.D.D.D.D.D.D.D.D.D.D.D.D.D.D.D.D.D.D.D.D.D.D.D.D.D.D.D.D.D.",
"D.D.D.D.D.D.D.D.D.D.D.D.D.D.D.D.D.D.D.D.D.D.D.D.D.D.D.D.D.D.D.D.D.D.D.D.D.D.D.D.D.D.D.D.D.D.D.D.D.D.D.D.D.D.D.D.D.D.D.D.D.D.D.D.",
"D.D.D.D.D.D.D.D.D.D.D.D.D.D.D.D.D.D.D.D.D.D.D.D.D.D.D.D.D.D.D.D.D.D.D.D.D.D.D.D.D.D.D.D.D.D.D.D.D.D.D.D.D.D.D.D.D.D.D.D.D.D.D.D.",
"D.D.D.D.D.D.D.D.D.D.D.D.D.D.D.D.D.D.D.D.D.D.D.D.D.D.D.D.D.D.D.D.D.D.D.D.D.D.D.D.D.D.D.D.D.D.D.D.D.D.D.D.D.D.D.D.D.D.D.D.D.D.D.D.",
"F.F.F.F.F.F.F.F.F.F.F.F.F.F.F.F.F.F.F.F.F.F.F.F.F.F.F.F.F.F.F.F.F.F.F.F.F.F.F.F.F.F.F.F.G./././.!.!./././.U.F.F.F.F.F.F.F.F.F.F.",
"G.G.G.G.G.G.G.G.G.G.G.F.G.G.G.G.F.F.F.F.F.G.G.G.G.G.F.F.G.G.G.G.G.F.F.F.F.F.G.G.F.F.G./._.{.{.{.{.{.{.{.{.`.(.Q.F.G.F.F.G.G.G.G.",
"G.G.G.G.G.G.G.G.G.G.G.F.G.G.G.G.F.F.G.G.F.F.G.G.G.G.F.F.G.G.G.G.G.G.F.F.G.G.G.G.F.G.Q.{.{.{.{.{.{.{.{.{.{.{.{.{.T.G.F.F.G.G.G.G.",
"G.G.F.G.G.G.G.G.G.G.F.F.G.G.G.G.G.G.G.G.G.F.G.G.G.G.G.F.G.G.G.G.G.G.G.G.G.G.G.G.F.(.{.{.{.{.{.{.{.{.{.{.{.{.{.{.[./.G.F.G.G.F.G.",
"G.G.F.F.F.G.G.G.G.G.F.F.G.G.G.G.G.G.G.G.G.G.G.G.G.G.G.G.G.G.G.G.G.G.G.G.G.G.G.G.F.U.`.].].].].].].].].].].].].].]./.G.G.G.G.F.F.",
"G.F.F.F.F.F.F.G.G.G.G.G.G.G.F.F.G.F.G.F.G.G.G.G.G.G.F.F.F.F.G.G.F.G.G.G.G.F.F.F.G.F.F.F.F.F.F.F.F.F.F.F.F.F.F.F.F.F.G.G.G.G.G.F.",
"G.G.F.F.G.G.F.F.G.G.F.F.G.G.F.F.J.F.G.G.F.F.G.G.G.F.F.F.F.F.G.G.G.G.G.G.G.F.F.F.F.F.G.G.G.G.G.G.F.F.G.F.G.G.F.F.G.G.G.G.G.G.G.F.",
"G.G.G.G.G.G.G.G.G.G.F.F.G.G.F.J.G.U.F.G.F.G.G.G.G.G.G.G.G.G.G.G.G.G.G.G.G.G.F.F.G.F.F.G.G.G.G.G.G.G.G.G.G.G.G.G.G.G.F.F.G.G.G.G.",
"G.G.G.G.G.G.G.G.G.G.G.G.G.F.F.U.J.U.F.F.F.F.G.G.G.G.G.G.G.G.G.G.G.G.G.G.G.G.F.F.G.F.F.G.G.G.G.G.G.G.G.G.G.G.G.G.G.F.F.F.G.G.G.G.",
"G.G.G.G.G.G.G.G.F.F.F.G.F.G.G.U.G.U.F.G.G.F.F.F.F.F.F.F.G.F.F.F.F.F.F.F.G.G.G.G.F.F.F.F.F.F.F.F.G.G.F.G.G.F.G.G.F.F.F.F.G.G.G.G.",
"G.G.G.F.G.G.G.G.F.F.G.G.F.F.J.F.F.F.G.G.G.F.F.F.F.F.F.S.F.F.F.F.F.F.F.F.G.G.G.G.F.F.F.F.F.F.F.F.G.G.F.F.F.F.G.G.F.F.F.F.G.F.F.F.",
"G.G.G.G.G.G.G.G.G.G.G.G.G.G.G.G.G.G.G.G.F.S.j.-.*.&.e.b.S.S.G.G.G.F.G.F.G.G.G.D.C.b.-.*.&.e.n.S.G.G.G.G.G.G.G.G.G.G.G.G.G.G.G.G.",
"J.J.J.J.J.J.J.J.J.J.J.J.J.J.J.J.J.J.J.J.F.j.) C Z Z A ! t.b.F.J.J.G.G.J.J.G.S.b.-.! L L T K e.V.G.J.J.J.J.J.J.J.J.J.J.J.J.J.J.J.",
"U.U.U.U.U.U.U.U.U.U.U.U.U.U.U.U.U.U.U.U.B.@.P 4.4.4.O.Q F ! j.H.U.l.h.B.H.A.t.6 L W 6.6.6.3.V r.F.U.U.U.U.U.U.U.U.T.U.T.U.U.U.U.",
"U.U.U.U.U.U.U.U.U.U.U.U.U.U.U.U.U.U.U.U.l.5 Y +.....O.5.1.Q ) t.p.G 1 _ u.0.H U | <.....| 6.D -.A.U.U.U.U.U.U.U.U.R.U.U.U.R.U.U.",
"U.U.U.U.U.U.U._.[.[.[.[.[.[.[._.U.U.U.I.l.7 I +.......{ b ] E : - W 1.R $ > ' n x | O.....4.a :.A.U.U.U.U.U.U.U.U.U.U.U.U.E.U.U.",
"U.U.U.U.U.).[.{.{.{.{.{.{.{.{.{.{.[.!.J.l.7 I +.....O.} b v b = Z O.O.O.> e c v | ........4.a :.A.U.U.U.U.U.U.U.U.U.U.T.U.U.U.U.",
"U.U.U.U./.[.{.{.{.{.{.{.{.{.{.{.{.{.`.W.l.7 I +.......O.O...n = P ......> p X.O...........4.a :.A.U.U.U.U.U.U.U.U.U.T.Y.U.U.U.U.",
"U.U.U.E.{.{.{.{.{.{.{.{.{.{.{.{.{.{.{.'.x.7 I +.....O.| b b l & p ..O.| = y n | O.O...O...4.a :.A.U.U.U.U.U.U.U.U.U.U.U.U.U.U.U.",
"U.U.U.U.W././././././././././././././.W.l.7 I +...O.| x k k h % o h b s X ; j k x | ......4.a :.A.U.U.U.U.U.U.U.U.U.U.U.U.U.U.U.",
"U.U.U.U.U.U.U.U.U.U.U.U.U.U.U.U.U.U.U.I.l.7 I +...O.| ] ] d . . @ O *   . & i j x | ......4.a :.A.U.U.U.U.U.U.U.U.U.U.U.U.U.U.U.",
"U.U.U.U.U.U.U.U.U.U.U.U.U.U.U.U.U.U.U.U.B.! g | | | ] f t + r [ O.< $.O z | Z # e f } | | } u q.F.U.U.U.U.U.U.U.U.U.U.U.U.U.U.U.",
"U.U.U.U.U.U.U.U.U.U.U.U.U.U.U.U.U.U.U.U.U.j.S 9 q q 0 J ^ 2 j O.7.3 s.m h O.8., < N w q q 0 =.V.U.U.U.U.U.U.U.U.U.U.U.U.U.U.U.U.",
"U.U.U.U.T.T.U.U.T.T.U.U.U.U.U.U.T.T.U.U.U.U.l.-.*.&.e.d.m h | ..7.1 k.-.8 } 2.E _ h.:.*.*.q.V.U.U.U.U.U.T.U.T.T.U.U.U.U.T.T.U.U.",
"E.E.E.E.E.E.E.E.E.E.E.E.E.E.E.E.E.E.E.E.E.E.E.Y.Y.Y.Y.9.8 } O.2.B w.L.w.@ [ O.<.Q #.L.Y.Y.R.E.E.E.E.E.E.E.E.E.E.E.E.E.E.E.E.E.E.",
"E.E.E.E.E.E.E.E.E.E.E.E.E.E.E.E.E.E.E.E.E.E.E.E.E.Y.u.M v O.O.1.4 x.T.c.J s | O.,.Q ~ Y.T.E.E.E.E.E.E.E.E.E.E.E.E.E.E.E.E.E.E.E.",
"E.E.E.E.E.W.E.E.E.W.E.E.E.E.E.E.E.E.E.E.E.E.E.E.E.v.4 j O...2.A y.Y.E.K.@.r  .O.O.>.G k.Y.T.E.E.E.E.E.E.E.E.E.E.E.E.E.E.E.E.E.E.",
"E.E.E.E.E.E.E.W.Q.E.E.W.E.E.E.E.E.E.E.E.E.E.E.E.E.L.( y | O.3.S a.Y.E.Y.r.u v O.O.O.o./ k.Y.E.E.E.E.E.E.E.E.E.E.E.E.E.E.E.E.E.E.",
"F.G.U.E.E.E.E.W.Q.E.W.E.E.E.E.E.E.E.E.E.E.E.E.E.E.T.g.> b <.W ` c.E.E.Y.v.G g ......<.o.^ z.E.E.E.E.E.E.E.E.E.E.E.E.E.E.E.E.E.E.",
"F.G.F.G.T.E.Q.E.E.E.W.E.E.E.E.E.E.E.E.E.E.E.E.E.E.T.L.;.i ..T 0.Y.E.E.E.Y.a.C s s ] | O.N y.Y.E.E.E.E.E.E.E.E.E.E.E.E.E.E.E.E.E.",
"G.G.F.G.F.U.E.E.E.W./.W.E.E.E.E.U.U.U.U.U.E.E.E.U.F.U.L.;.D T :.L.E.E.E.E.Y.a._ $ & r n m u.Y.E.E.E.E.E.E.E.E.E.E.E.E.E.E.E.E.E.",
"G.G.G.G.G.F.F.T.Q.Q.Q.Q.Q.Q.Q.U.F.G.U.J.G.G.U.U.F.F.F.U.A.q.J d.U.E.E.T.G.E.R.P.y.%.X O : i.W.Q.Q.Q.Q.Q.Q.Q.Q.Q.Q.Q.Q.Q.Q.Q.Q.Q.",
"G.F.F.G.F.G.F.F.E./././././.Q.G.U.E.E.E.T.U.G.F.F.G.U.T.T.A.l.I.E.U.G.F.F.U.~.~.W.P.f.f.g.P././././././././././././././././././.",
"F.F.G.G.F.F.F.F.F.U.Q././.~.T.U.T.E.T.E.T.E.U.U.U.U.T.E.T.T.T.E.E.E.U.G.F.F.U.~./.~.Q.!.Q././././././././././.~././././././././.",
"U.G.F.G.J.U.T.T.U.J.J.Q.~.U.U.T.E.E.E.E.E.E.E.E.E.E.E.E.E.E.T.E.E.E.E.T.F.F.F.U.U.U.T.E.Q././././././././././././././././././.T.",
"/.T.G.U.T.T.E.E.E.E.U.J.U.U.T.E.E.E.E.E.E.E.E.E.E.E.Q.Q.Q.E.E.E.E.E.E.T.T.U.U.T.E.U.F.F.F.U.T.U.U.U.J.F.U.Q././././.~./.~.~.U.F.",
"/./.Q.E.E.E.E.E.E.E.E.E.U.E.E.T.E.E.E.E.E.E.T.E.E.~./././././.Q.E.E.T.E.E.E.E.E.E.E.T.U.U.F.F.F.U.E.U.J.F.J.T.Q.E.U.Q././.E.F.F.",
"/././.~.E.T.T.E.E.E.E.E.T.E.T.E./././.Q.E.E.E.Q././././././././.E.U.T.E.E.E.E.E.E.E.E.T.E.T.U.U.T.E.E.E.U.T.E.T.J.G.G.Q.~.G.F.F.",
"/././././.Q.T.E.E.E.E.E.E.T.Q./././././.~.~.Q./././././././././.E.U.Q.E.E.E.E.E.T.E.E.E.E.T.E.E.E.E.E.T.E.E.T.E.E.E.U.F.J.F.J.U.",
"/./././././.Q.E.E.E.E.E.E.E./.E.T./././././.~././././././././.I.N.M.U.~.E.D.D.D.U.U.J.U.T.E.E.E.E.E.E.E.E.T.E.E.E.T.T.J.F.U.~./.",
"/./././.~././.Q.U.D.F.F.E././.D.M.Q././././././.E.U.E././././.U.N.N.U./.~.M.N.N.F.Z.m.M.Q.E.E.E.E.E.E.E.U.E.E.E.E.E.E.E.E.~./.~.",
"/./././././././.T.m.N.D.Q././.D.N.Q./././.~.~.~.G.N.U./.Q.G.G.D.m.M.U.!./.Z.N.M.N.N.m.M./.E.U.U.E.E.E.E.N.Q./.~.Q.Q.E.E././././.",
"/./.U.M.M.U.I.~.E.N.N.N.M.T./.M.M.W././.T.M.N.N.N.N.D.I.J.N.m.N.m.m.D.I.I.N.m.N.m.N.m.M.~.H.m.N./.~.~.I.N.J./.Q.Q.Q.Q.Q./.U.D.D.",
"/./.U.N.N.N.M./.T.N.m.N.m.M.Z.N.N.Q././.E.N.N.N.N.N.m.m.N.N.N.M.N.N.N.N.m.m.N.N.m.N.N.M.E.D.m.M.F.F.E.G.N.G./.F.N.N.N.U./.J.N.N.",
"E.U.F.m.N.N.N.U.G.N.N.N.N.N.N.N.N.N.M./.E.N.m.N.N.N.N.N.N.m.m.m.N.N.N.N.N.N.N.N.N.m.N.N.m.m.N.N.m.m.T.J.N.N.N.N.N.N.m.Z.D.M.N.M.",
"G.M.m.N.m.N.N.N.m.m.m.N.N.N.m.N.N.M.M./.R.N.m.N.N.N.N.N.m.N.N.N.N.N.N.N.N.N.N.N.N.m.m.N.N.m.m.N.N.m.M.N.N.N.m.N.N.N.N.m.N.m.m.N.",
"N.N.N.N.N.N.m.m.N.m.N.N.N.N.N.m.m.N.N.T.U.N.m.N.N.N.N.N.N.N.N.N.N.N.N.N.N.N.N.N.m.N.m.N.N.m.N.N.N.m.N.N.N.m.N.m.m.N.m.N.N.m.N.m.",
"N.N.N.N.N.N.N.N.N.N.N.N.N.N.N.N.N.N.N.m.m.m.m.N.N.N.N.N.N.N.N.N.N.N.N.N.N.N.N.N.N.N.N.N.N.N.N.N.N.N.N.N.N.N.N.N.N.N.N.N.N.N.N.N.",
"N.N.N.N.N.N.N.N.N.N.N.N.N.N.N.N.N.m.N.m.m.N.N.N.N.N.N.N.N.N.N.N.N.N.N.N.N.N.N.N.N.N.N.N.N.N.N.N.N.N.N.N.N.N.N.N.N.N.N.N.N.N.N.N."
};
