/* XPM */
static char *_dd42cc0e8a74a61abae2a8db1f1e622wNqiVDl7hfiThgMK[] = {
/* columns rows colors chars-per-pixel */
"64 64 209 2 ",
"   c #9B7636",
".  c #9E7837",
"X  c #A27D3A",
"o  c #54876D",
"O  c #5B866B",
"+  c #5E896D",
"@  c #548E75",
"#  c #5D8D72",
"$  c #4B947D",
"%  c #52957C",
"&  c #59967B",
"*  c #608B6F",
"=  c #628E71",
"-  c #669274",
";  c #689475",
":  c #6C9877",
">  c #659579",
",  c #699779",
"<  c #65997E",
"1  c #6A9A7C",
"2  c #7DAA76",
"3  c #A6813D",
"4  c #A9843F",
"5  c #A98A3F",
"6  c #9F8445",
"7  c #968B56",
"8  c #9D8D53",
"9  c #959255",
"0  c #9D955E",
"q  c #9E9F5E",
"w  c #A58543",
"e  c #AA8641",
"r  c #A78844",
"t  c #AD8A42",
"y  c #A68B4B",
"u  c #AB8E4C",
"i  c #B28D45",
"p  c #B18F48",
"a  c #AD9442",
"s  c #AB9A41",
"d  c #AD964F",
"f  c #B49246",
"g  c #B29A46",
"h  c #B5944A",
"j  c #B9964A",
"k  c #B69A4B",
"l  c #BB9B4C",
"z  c #A58F50",
"x  c #A59153",
"c  c #A99351",
"v  c #AD9A55",
"b  c #A2955B",
"n  c #A69C5A",
"m  c #B19B57",
"M  c #B49B54",
"N  c #BA9C52",
"B  c #AEA243",
"V  c #B2A445",
"C  c #B3AC46",
"Z  c #B6A749",
"A  c #BBA44C",
"S  c #BBAC4C",
"D  c #B4B247",
"F  c #BCB44D",
"G  c #B6B949",
"H  c #BDBB4D",
"J  c #ACA55F",
"K  c #BFA256",
"L  c #B3A25C",
"P  c #BAA65C",
"I  c #8E9D6B",
"U  c #9D9A65",
"Y  c #999A69",
"T  c #A19A63",
"R  c #A19E69",
"E  c #86A36B",
"W  c #97A76C",
"Q  c #88A777",
"!  c #9DA372",
"~  c #95A67A",
"^  c #92A879",
"/  c #98AA7E",
"(  c #8BB37A",
")  c #96B276",
"_  c #A0A36D",
"`  c #A6A96B",
"'  c #B6AC65",
"]  c #BFB16B",
"[  c #A2A874",
"{  c #A9AA73",
"}  c #AEB37B",
"|  c #B3B67B",
" . c #C09D4F",
".. c #C29F50",
"X. c #C0A24F",
"o. c #C0BE4F",
"O. c #C4A252",
"+. c #C6AF53",
"@. c #C2A65A",
"#. c #C6B453",
"$. c #BDC24E",
"%. c #BDCC4E",
"&. c #BFD24F",
"*. c #C0C54F",
"=. c #C0C650",
"-. c #C1CC50",
";. c #C1D451",
":. c #C3DC52",
">. c #C4E053",
",. c #3AAA97",
"<. c #33AE9D",
"1. c #39AC9A",
"2. c #3AB29E",
"3. c #2EB4A4",
"4. c #29B7A9",
"5. c #26BCAE",
"6. c #2ABBAC",
"7. c #32B2A1",
"8. c #37BAA7",
"9. c #23BEB1",
"0. c #2EBFB0",
"q. c #4C9B83",
"w. c #499B85",
"e. c #439E89",
"r. c #599F84",
"t. c #679980",
"y. c #6C9E83",
"u. c #43A18C",
"i. c #4CA58D",
"p. c #57A389",
"a. c #57B38F",
"s. c #45AA95",
"d. c #4CAA92",
"f. c #54AC92",
"g. c #43B29C",
"h. c #57BA95",
"j. c #5ABA94",
"k. c #6DA186",
"l. c #65A48E",
"z. c #6DA38A",
"x. c #7FA686",
"c. c #71A58A",
"v. c #75A98E",
"b. c #65B48A",
"n. c #6BB98D",
"m. c #68A992",
"M. c #6FA890",
"N. c #72AB93",
"B. c #7AAD92",
"V. c #73AF99",
"C. c #7BB096",
"Z. c #7AB49B",
"A. c #78B49C",
"S. c #45BFA1",
"D. c #6BBFAB",
"F. c #7AB9A4",
"G. c #7CBBA5",
"H. c #1FC1B5",
"J. c #1CC7BB",
"K. c #1BCABE",
"L. c #3BC4AA",
"P. c #24C2B5",
"I. c #2DC5B2",
"U. c #21C6BA",
"Y. c #23CCBD",
"T. c #35C6B3",
"R. c #50C09E",
"E. c #60C098",
"W. c #45C1A4",
"Q. c #49C5A7",
"!. c #54C1A4",
"~. c #6ACEBB",
"^. c #15CEC4",
"/. c #19CCC1",
"(. c #1ACEC2",
"). c #1CCFC2",
"_. c #12D0C7",
"`. c #14D0C6",
"'. c #12D1C8",
"]. c #1AD1C8",
"[. c #20CFC2",
"{. c #37CEC1",
"}. c #35D3C7",
"|. c #53D2C2",
" X c #6CD3C0",
".X c #8CAB86",
"XX c #8CAD89",
"oX c #92AB83",
"OX c #99AE83",
"+X c #89B589",
"@X c #94B38C",
"#X c #9AB589",
"$X c #84AF92",
"%X c #84B192",
"&X c #8BB493",
"*X c #86B89B",
"=X c #8DBB9B",
"-X c #9BBC94",
";X c #95BE9B",
":X c #A3B384",
">X c #A7B987",
",X c #83BBA2",
"<X c #95C09E",
"1X c #99C19D",
"2X c #83C0A8",
"3X c #88C5AA",
"4X c #8AC4AB",
"5X c #84C6B1",
"6X c #87C8B1",
/* pixels */
"'.'.'.'.'.'.'.'.'.'.'.'.'.'.'.'.'.'.'.'.'.'.'.'.'.'.'.'.'.'.'.'.'.'.'.'.'.'.'.'.'.'.'.'.'.'.'.'.'.'.'.'.'.'.'._.'.'.'.'.'.'.'.'.",
"'.'.'.'.'.'.'.'.'.'.'.'.'.'.'.'.`.).(.^.'.'.`.).).)._.`.(.(.(.'.'.'.(.(.(.'.(.(.(.'.'.'.'.`.(.(.'.'.'.'.'.'.'.'.'.'.'.'.'.'.'.'.",
"'.'.'.'.'.'.'.'.'.'.'.'.'.'.'.'.h.P v n.L.I.j.P P P h.2 P v ` I.(.W.` L q 2.W L q Q.W.W.Q.b.L ) K.'.'.'.'.'.'._.'.'.'.'.'.'.'.'.",
"'.'.'.'.'.'.'.'.'.'.'.^.(.j.( Q k j j l v 9 i h A S g Z h j F q E S A j i 4 F j j l i j l j j j W Q +X).(._.'.'.'.'.'.'.'.'.'.'.",
"'.'.'.'.'.'.'.'.'.'.K.Q v k j A Z G $.$.V a H a D G D :.C H :.H $.G %.t $.G ;.G G $.t g $.G G H A j j v n L.'.'.'.'.'.'.'.'.'.'.",
"'.'.'.'.'.'.'.'.'.'.8.l j j A ;.%.G ;.>.:.;.:.&.%.>.G >.>.>.:.:.>.>.:.%.G >.;.G >.>.%.%.>.>.G &.;.F j j  .2 '.'.'.'.'.'.'.'.'.'.",
"'.'.'.'.'.'.'.'.'._.a.t X.#.;.>.>.:.:.>.>.>.>.>.>.>.:.>.>.>.;.G >.>.>.>.:.>.:.:.>.>.>.>.>.>.:.:.>.:.=.+.i I Y.'.'.'.'.'.'.'.'.'.",
"'.'.'.'.'.'.'.'.'.j.k f $.>.>.>.>.>.>.>.>.>.>.>.>.>.>.>.>.>.>.>.>.>.>.>.>.>.>.>.>.>.>.>.>.>.>.>.>.>.>.&.k j E (.'.'.'.'.'.'.'.'.",
"'.'.'.'.'.'.'.I.L.W l =.G >.>.>.>.>.>.>.>.>.>.>.>.>.>.>.>.>.>.>.>.>.>.>.>.>.>.>.>.>.>.>.>.>.>.>.>.>.>.%.$.A M S.L.`.'.'.'.'.'.'.",
"'.'.'.'.'.'.I.n j f A >.>.>.>.>.>.>.>.>.>.>.>.>.>.>.>.>.>.>.>.>.>.>.>.>.>.>.>.>.>.>.>.>.>.>.>.>.>.>.>.>.>.$.f j j b._.'.'.'.'.'.",
"'.'.'.'.'.^.q j j j $.>.>.>.>.>.>.>.>.>.>.>.>.>.>.>.>.>.>.>.>.>.>.>.>.>.>.>.>.>.>.>.>.>.>.>.>.>.>.>.>.>.>.;.A j j k !.`.'.'.'.'.",
"'.'.'.'.'.E.k j j i $.>.>.>.>.>.>.>.>.>.>.>.>.>.>.>.>.>.>.>.>.;.F H >.>.>.>.>.>.>.>.>.>.>.>.>.>.>.>.>.>.>.;.g j j j } |.'.'.'.'.",
"'.'.'.'.].) l j j S :.>.>.>.>.>.>.>.>.>.>.>.>.>.>.>.>.>.>.:.F A j l S $.:.>.>.>.>.>.>.>.>.>.>.>.>.>.>.>.>.>.$.j j j K  X'.'.'.'.",
"'.'.'.'.}._ j O.j Z :.>.>.>.>.>.>.>.>.>.>.>.>.>.:.:.:.:.:.S l l O.O.j l *.:.:.:.:.:.>.>.>.>.>.>.>.>.>.>.>.>.$.f  . .u ~.'.'.'.'.",
"'.'.'._.T.~ e t j H :.>.>.>.>.>.>.>.>.>.>.>.>.>.=.S =.F =.A o.A 4 i #.F H F =.:.H :.>.>.>.>.>.>.>.>.>.>.>.>.%.l i u XXf.(.'.'.'.",
"'.'.'.8.> G.6 3 h S :.>.>.>.>.>.>.>.>.>.>.>.>.:.;.;.H l l j k 3 . X t l l l A ;.:.;.:.>.>.>.>.>.>.>.>.>.>.>.$.j t U z.= i.^.'.'.",
"'.'.'.d.: k./ t t A ;.>.>.>.>.>.>.>.>.>.>.>.:.H H :.-.A j j f 8 7 8 z h j j H ;.:.H :.>.>.>.>.>.>.>.>.>.>.:.H f i 0 B.; 1 (.'.'.",
"'.'.'.u.y.-XN j t S =.>.>.>.>.>.>.>.>.>.>.>.;.A S H l l l l U 2X5X5X&Xv l l l A =.-.:.>.>.>.>.>.>.>.>.>.>.;.F f i l 1X- # /.'.'.",
"'.'.'.J.l.} j j l A ;.:.>.>.>.>.>.>.>.>.:.-.:.F j F S l l 6 3X> - - N.OXi  .j H l l :.>.>.>.>.>.>.>.>.>.:.;.F l l j 1X= <._.'.'.",
"'.'.'.^.m.Y t l j S ;.;.>.>.>.>.>.>.>.:.$.F H A j j f e U ~ Z., : : c.&X8 X i j j l $.:.>.>.>.>.>.>.>.>.:.=.$.j l f ;X; 6.'.'.'.",
"'.'.'.g.1 %X8 l j H :.>.>.>.>.>.>.>.>.:.H F l S j f e ! C.V.> : ; : : y.XX8 j j j l H ;.*.>.>.>.>.>.>.>.>.>.;.l ..w &X1 r.(.'.'.",
"'.'.'.d.: , =Xi j =.>.>.>.>.>.>.>.>.:.$.-.l j j i 4 ! B.= O * : : : - + F.! j j l H H ;.=.>.>.>.>.>.>.>.>.>.:.l j oXy.: > /.'.'.",
"'.'.'.e.= y.@Xf A ;.>.>.>.>.>.>.>.>.:.=.S j j l i Y B.- = = = = - - = - F.! t h j A l H >.>.>.>.>.>.>.>.>.>.:.F N 2X- - # /.'.'.",
"'.'.'.3.# G.y  .j =.>.>.>.>.>.>.>.>.>.;.l l  .t 3 oXM.= - : - - * = - : y.*Xb t h j l -.:.>.>.>.>.>.>.>.>.>.:.l @.,X+ + u.^.'.'.",
"'.'.'._.3.D.b 4 ..H $.>.>.>.>.>.>.>.:.S j j t e ! B.= - : : : - * = : : : G.U 3 e h l F ;.H >.>.>.>.>.>.:.:.F l v Z.@ u.^.'.'.'.",
"'.'.'.'.'.0.=XX f S :.>.>.>.>.>.>.>.:.-.l l 4 R Z.= O - : : : : * = : : : 1 *X0 3 h l -.:.:.>.>.>.>.>.>.:.=.$.j ;X# s.^.'.'.'.'.",
"'.'.'.'.P.< B.U X =.:.>.>.>.>.>.>.>.:.-.k t 4 ! F.+ O : : - : = * * - : : : > ,Xx h j S :.>.>.:.:.>.>.>.>.;.*.t &X, ; g.'.'.'.'.",
"'.'.'.`.g.: v.Y e =.*.>.>.>.>.>.>.>.:.S f 3 4 R ,X> O * = - * # % % + = - = + 5X] j j j S >.:.H -.>.>.>.>.>.$.f ;X1 : r.K.'.'.'.",
"'.'.'.g.: : v.{ j S :.$.:.>.>.>.>.>.:.=.f . 4 t :XN.O + + + O u.^.P.% + + + + 5X] l j j A ;.=.=.:.>.>.>.$.:.F j -Xy.: : p.(.'.'.",
"'.'.K.p.: , <XO.A ;.>.>.>.>.>.>.>.>.:.l f 4 4 t :XV.+ + O O u.^.'.'.9.$ O + + Z.| N j j j S ;.>.>.>.>.>.>.>.H j @.2X- : ; 0.'.'.",
"'.'.I.: : - <XO.j A :.>.>.>.>.>.>.>.:.F l l 4 e :XA.: : = u.(.'.'.'.'.5.% - : , 6XP j j j A =.-.;.>.>.>.>.:.F j @.,X= - : f.'.'.",
"'.'.6.- - k.:Xh l -.>.>.>.>.>.>.>.>.:.H l j f 3 ~ A.: : > U.'.'.'.'.'.'.g.: : , 6XL  .j j A -.=.;.>.>.>.>.;.F j j &X> - ; i.'.'.",
"'.'.6.= y.>Xl  .l =.:.>.>.>.>.>.>.:.C j j l  .. ~ A.: : g.(.'.'.'.'.'.'.P.p.: , 3Xx f j j A -.>.>.>.>.>.>.>.:.l ..M =X- = w.'.'.",
"'.'.P.% k.{ j O.j j :.>.>.>.>.>.>.:.$.l j j f 7 %X1 - : P.'.'.'.'.'.'.'.'.d.: - c.@Xw h j l *.>.>.>.>.>.>.>.-.F O.j 1X1 + <.'.'.",
"'.'.'.P.m.{ j O.l H :.>.>.>.>.>.>.>.:.-.$.l h [ F.- ; 8.^.'.'.'.'.'.'.'.'.U.p.- 1 3Xd h A -.;.>.>.>.>.>.>.>.-.l O.j 1Xy.<.^.'.'.",
"'.'.'.'.}._ i j A ;.>.>.>.>.>.>.>.>.>.>.:.H t M #X6X6X{.'.'.'.'.'.'.'.'.'.`.~.6X3X` h a ;.>.>.>.>.>.>.>.>.>.=.l l f ;Xf._.'.'.'.",
"'.'.'.(.f.%Xx r l A :.>.>.>.>.>.>.>.>.>.&.V G g M m L 3X}.Y.Y.Y._.`.Y.Y.[.|.[ L m k g G C >.>.>.>.>.>.>.>.>.F l i w =X& 6._.'.'.",
"'.'.'.d.: = F.oXt $.:.>.>.>.>.>.>.>.>.>.:.;.:.;.H f h u =X_ ' ) I.R.' J @X! f f g %.;.:.;.>.>.>.>.>.>.>.>.>.:.f e ~ t.- < (.'.'.",
"'.'.'.i.: = ; G.c $.:.>.>.>.>.>.>.>.>.>.>.>.>.>.:.D a 5 h j j j c d j j j t a a %.:.>.>.>.>.>.>.>.>.>.>.>.;.=.f OXc.- - > (.'.'.",
"'.'.'.<.# : : 2Xm j H >.>.>.>.>.>.>.>.>.>.>.>.>.:.:.%.B 5 k f i 4 e i k f 5 G ;.:.>.>.>.>.>.>.>.>.>.>.>.>.:.S j ;X1 : = q.^.'.'.",
"'.'.'.^.@ * k.#XN F ;.-.>.>.>.>.>.>.>.>.>.>.>.>.>.>.D %.C %.B s s s s G G $.C &.>.>.>.>.>.>.>.>.>.>.>.>.:.$.=.l T Z.= + 4.'.'.'.",
"'.'.'.P.> = y.| A H :.:.>.>.>.>.>.>.>.>.>.>.>.>.>.>.>.>.>.>.>.>.>.>.>.>.>.>.>.>.>.>.>.>.>.>.>.>.>.>.>.>.:.:.H j O.&X> - 2.^.'.'.",
"'.'.'.d.: - k.} j $.:.:.:.>.>.>.>.>.>.>.>.>.>.>.>.>.>.>.>.>.>.>.>.>.>.>.>.>.>.>.>.>.>.>.>.>.>.>.>.>.>.:.:.:.;.l j U N.: 1 (.'.'.",
"'.'.'.u.- - k.} j l t $.G >.>.>.>.>.>.>.>.>.>.>.>.>.>.>.>.>.>.>.>.>.>.>.>.>.>.>.>.>.>.>.>.>.>.>.>.>.>.%.$.t f j l R v.- # /.'.'.",
"'.'.'.9.# + k.| j j j A D :.:.>.>.>.>.>.>.>.>.>.>.>.>.>.>.>.>.>.>.>.>.>.>.>.>.>.>.>.>.>.>.>.>.>.>.>.>.%.Z j j j O.{ k.+ ,.^.'.'.",
"'.'.'.P.> - c._ h  .f F ;.D :.>.>.>.>.>.>.>.>.>.>.>.>.>.>.>.>.>.>.>.>.>.>.>.>.>.>.>.>.>.>.>.>.>.>.>.:.-.$.j l l t OXk.- 2.^.'.'.",
"'.'.P.& : : 1 &Xy r 4 j F F -.-.>.>.>.>.>.>.>.>.>.>.>.>.>.>.:.:.H :.:.:.:.:.H :.:.:.:.>.>.>.>.>.>.:.H H l i w r / c.: : ; 1.'.'.",
"'.'.6.= - - = 1 ,X,XP j j j S ;.:.;.:.>.:.;.-.&.%.>.>.>.:.;.H S C V H H H f 4 V ;.H V ;.>.>.;.:.;.=.j l j l @X,Xc.- - : - w.'.'.",
"'.'.6.+ = * * * + N.m l j j l l F F ;.$.S g t k $.:.F =.H H S j 3 f A A l j X i S A i l F :.F =.l A j j j l XX# * * * = + e.'.'.",
"'.'.^.,.+ + - * O N.T j  .l i t j l l l f . . j A F l F j l j j X 4 l l j l X 3 l  .i e j l j l i 4 l l l u %X+ + - = + q.J.'.'.",
"'.'.'.^.4.r.: - * O v.T t h 3 i j j j  .e     e h j j j j O.f t   X t i t e / ! e e . X l j j j j X i i y &X# O - : ; 7.J.'.'.'.",
"'.'.'.'.'.i.- : - + = B.&XT *XU l  .l t Y ,X,X^ r l l l l t b oX,X.X0 T T ^ < y.! U $XXXw l l ..p 0 U ~ ,X> O - : : > (.'.'.'.'.",
"'.'.'.'.'.u.= : - = - - , N.# x.y X X Y v.= + < oXe h h c ;XB.k.: y.N.N.M.< * = c.N.> 1 XXX X 4 / z.M.k.; : = = : - # (.'.'.'.'.",
"'.'.'.'.'.1.# = + - - - - - * = *X,X,Xv.: : - = < oXT T %X1 : ; : : : - * + - : : : : : y.,X,X,Xy.+ - - : : : = = * q.^.'.'.'.'.",
"'.'.'.'.'._.1.+ + - : : : : - + + O + : ; : - - + t.N.N.- = : : : : : = + O - : : : : : - = O + + * : : ; ; - = O % K.'.'.'.'.'.",
"'.'.'.'.'.'.^.J.3.* - : : - * * = * + * - - - + + * = = + O = - - - + O O O + + = : - - = O + = = + = - : - = w.J.K.'.'.'.'.'.'.",
"'.'.'.'.'.'.'.'.5.* * = * O = : : : - + + * O + - : : : = O O * * * + O * = + O + = = + O = : ; : - O * = = * u.'.'.'.'.'.'.'.'.",
"'.'.'.'.'.'.'.'.^.,.% * O O = : : : - + O + O * - : : : = O O = = * O + - : = O O + + O O - : : : - O O + # w.J.'.'.'.'.'.'.'.'.",
"'.'.'.'.'.'.'.'.'.'.K.7.7.$ O - - ; = O O * O O = : : - O O = : : - O O - - O O O + * + O + - : - + o <.7.6.'.'.'.'.'.'.'.'.'.'.",
"'.'.'.'.'.'.'.'.'.'.'.'.'.K.e.@ O + $ 3.e.$ e.1.$ + + @ e.<.# - - = 7.@ + * O ,.9.$ $ $ 3.$ # + O $ 4._.'.'.'.'.'.'.'.'.'.'.'.'.",
"'.'.'.'.'.'.'.'.'.'.'.'.'.'.'.5.<.<.(.'.'.'.'.'.K.<.<.9.'.'.$ * = O P.H.<.<.3.'.'.'.'.'.'.'.4.<.3._.'.'.'.'.'.'.'.'.'.'.'.'.'.'.",
"'.'.'.'.'.'.'.'.'.'.'.'.'.'.'.'.'.'.'.'.'.'.'.'._._.'.'.'.'.9.q.q.,.^.'.'.'.'.'.'.'.'.'.'.'.'.'.'.'.'.'.'.'.'.'.'.'.'.'.'.'.'.'.",
"'.'.'.'.'.'.'.'.'.'.'.'.'.'.'.'.'.'.'.'.'.'.'.'._.'.'.'.'.'.'.'.'.'.'.'.'.'.'.'.'.'.'.'.'.'.'.'.'.'.'.'.'.'.'.'.'.'.'.'.'.'.'.'.",
"'.'.'.'.'.'.'.'.'.'.'.'.'.'.'.'.'.'.'.'.'.'.'.'._.'.'.'.'.'.'.'.'.'.'.'.'.'.'.'.'.'.'.'.'.'.'.'.'.'.'.'.'.'.'.'.'.'.'.'.'.'.'.'."
};
