/* XPM */
static char *cc05538d022e479cbd7d0719d762fd9aTTYS5Zr48D6fVByp[] = {
/* columns rows colors chars-per-pixel */
"64 64 217 2 ",
"   c #520D14",
".  c #746F2D",
"X  c #7A2947",
"o  c #73344B",
"O  c #793549",
"+  c #7D4359",
"@  c #5F7558",
"#  c #6A6C68",
"$  c #B1151B",
"%  c #A41C24",
"&  c #8E3D3E",
"*  c #8C4B33",
"=  c #905E3F",
"-  c #806E2C",
";  c #88792A",
":  c #987B2B",
">  c #867839",
",  c #9A7E33",
"<  c #872A4E",
"1  c #8C2C54",
"2  c #972D58",
"3  c #883C59",
"4  c #9C315C",
"5  c #95385C",
"6  c #A52F5F",
"7  c #973961",
"8  c #A72F62",
"9  c #AC2E62",
"0  c #B22E60",
"q  c #AB3264",
"w  c #B7336A",
"e  c #B53469",
"r  c #BC326B",
"t  c #C5316C",
"y  c #C33570",
"u  c #CB3573",
"i  c #D33778",
"p  c #D63679",
"a  c #DA377A",
"s  c #DA3A7D",
"d  c #E2397F",
"f  c #8A4658",
"g  c #8C7159",
"h  c #A77D5A",
"j  c #8B4862",
"k  c #934262",
"l  c #964B68",
"z  c #8C5469",
"x  c #845B6C",
"c  c #96546E",
"v  c #8C5D70",
"b  c #985A71",
"n  c #A4466D",
"m  c #AB4F75",
"M  c #A65778",
"N  c #A25D7A",
"B  c #86636D",
"V  c #926E63",
"C  c #8B6373",
"Z  c #8A6C78",
"A  c #99677B",
"S  c #946B7B",
"D  c #91707D",
"F  c #A2647D",
"G  c #A37A70",
"H  c #B07079",
"J  c #CE407A",
"K  c #7B9F52",
"L  c #6F8466",
"P  c #B1A717",
"I  c #9E9331",
"U  c #A9972B",
"Y  c #A29C3E",
"T  c #B39332",
"R  c #AAA828",
"E  c #B4AA2E",
"W  c #B5AB3C",
"Q  c #C9BE19",
"!  c #C6BA24",
"~  c #C5A430",
"^  c #CDC21B",
"/  c #D6CB15",
"(  c #DDD213",
")  c #E5DA16",
"_  c #FDED02",
"`  c #F5E80B",
"'  c #FBEE0A",
"]  c #FDF109",
"[  c #EBE31B",
"{  c #F2E612",
"}  c #F3E912",
"|  c #DBD328",
" . c #968C4F",
".. c #AB9347",
"X. c #A88A58",
"o. c #B5AD43",
"O. c #A88676",
"+. c #A5997D",
"@. c #AAA161",
"#. c #A6A276",
"$. c #DF3B80",
"%. c #E53780",
"&. c #ED3784",
"*. c #E53B83",
"=. c #ED3985",
"-. c #F23787",
";. c #F13986",
":. c #F13B88",
">. c #9D6D82",
",. c #987484",
"<. c #9C7485",
"1. c #A76A84",
"2. c #B46D8B",
"3. c #A27386",
"4. c #A6758A",
"5. c #A37C8D",
"6. c #AC7B8D",
"7. c #B0738F",
"8. c #AF7790",
"9. c #AB7C92",
"0. c #B47592",
"q. c #B47C95",
"w. c #C06A8F",
"e. c #C97694",
"r. c #1D95B7",
"t. c #3A94A9",
"y. c #488E94",
"u. c #9B888E",
"i. c #93908E",
"p. c #B98A8C",
"a. c #A58893",
"s. c #B08B90",
"d. c #B5839B",
"f. c #BA839B",
"g. c #B68899",
"h. c #A49699",
"j. c #BBB68C",
"k. c #B4AB97",
"l. c #BD84A1",
"z. c #AF9EA3",
"x. c #BC91A1",
"c. c #BA9BA9",
"v. c #B2AEA6",
"b. c #B7A9A9",
"n. c #AEB0A0",
"m. c #C1899E",
"M. c #C886A3",
"N. c #C48AA5",
"B. c #CC8CAA",
"V. c #D18BA7",
"C. c #CE91AD",
"Z. c #C799AA",
"A. c #D293AE",
"S. c #CC93B0",
"D. c #D494B2",
"F. c #DA95B4",
"G. c #D59AB4",
"H. c #DD99BA",
"J. c #E699B8",
"K. c #E49BBC",
"L. c #C2BCA8",
"P. c #C9A7B4",
"I. c #D3A5B7",
"U. c #D9A5BA",
"Y. c #C5B8BB",
"T. c #D0C8BA",
"R. c #E79EC0",
"E. c #EA9FC3",
"W. c #D5B0C0",
"Q. c #ECA1C5",
"!. c #E8A8C4",
"~. c #F3A3C6",
"^. c #F9A6C7",
"/. c #F5A4CA",
"(. c #FBA7C9",
"). c #F5AACE",
"_. c #FBA9CA",
"`. c #E6B2C9",
"'. c #E5B8CC",
"]. c #F3B2CE",
"[. c #FAB1CF",
"{. c #F9ABD1",
"}. c #EDB8D0",
"|. c #F6B5D1",
" X c #FBB4D2",
".X c #F6BCD5",
"XX c #FBBBD6",
"oX c #FABED8",
"OX c #C8C5C4",
"+X c #D3CFCF",
"@X c #D8D4C7",
"#X c #D8D5D5",
"$X c #E1C0CF",
"%X c #EDC9D9",
"&X c #F2C2D7",
"*X c #F6C3D9",
"=X c #FBC3DC",
"-X c #F3CBDE",
";X c #FAC9DF",
":X c #E1DCDD",
">X c #EDE2D1",
",X c #F5E2D1",
"<X c #F7CCE0",
"1X c #FBCDE2",
"2X c #F6D5E5",
"3X c #FAD2E4",
"4X c #FBD6E8",
"5X c #FBD9E9",
"6X c #E7E6E4",
"7X c #F7E6EF",
"8X c #FAE2EE",
"9X c #FBE6F0",
"0X c #F5F4F2",
"qX c #FCF2F7",
"wX c #FDF6F9",
"eX c #FDFEFD",
"rX c #FEFEFE",
/* pixels */
" X X XXX X X X X X X X X X X X X X X X X X X X X X X X X X X X X X X X X X X X X X X X X X X X X X X X X X X X X X X X X X X X X",
" X X X|.<XXX X X X X X X X X X X X X X X X X X X X X X X X X X X X X X X X X X X X X X X X X X X X X X X X X X X X X X X X X X X",
" X X*XXX X.X X X X X X X X X X X X X X X X X X X X X X X X X X X X X X X X X X X X X X X X X X X X X X X X X X X X X X X X X X X",
" X X*X X XoX X X X X X X X X X X X X X X X X X X X X X X X X X X X X X X X X X X X X X X X X X X X X X X X X X X X X X X XXX X X",
" X X XXX X*X X X X X X X X X X X X X X X X X X X X X X X X X X X X X X X X X X X X X X X X X X X X X X X X X X X X X X X X XXX.X",
" X X X X X X X X X X X X X X X X X X X X X X X X X X X X X X X X X X X X X X X X X X X X X X X X X X X X X X X X X X X X X.XXX X",
" X X X X X X X X X X X X X X X X X X X X X X X X X X X X X X X X X X X X X X X X X X X X X X X X X X X X X X X X X X X X XXXXX X",
" X X X X X X X X X X X X X X X X X X X X X X X X X X X X X X X X X X X X X X X X X X X X X X X X X X X X X X X X X X X X XXXoX X",
" X X X X X X X X X X X X X X X X X X X X X X X X X X X X X X X X X X X X X X X X X X X X X X X X X X X X X X X X X X X X X X X X",
" X X X X X X X X X X X X X X X X X X X X X X X X X X X X X X X X X X X X X X X X X X X X X X X X X X X X X X X X X X X X X X X X",
" X X X X X X X X X X X X X X X X X X X X X X X X X X X X X X X X X X X X X X X X X X X X X X X X X X X X X X X X X X X X X X X X",
" X X X X X X X X X X X X X X X X X X X X X X X X X X X X X X X X X X X X X X X X X X X X X X X X X X X X X X X X X X X X X X X X",
" X X X X X X X X X X X X X X X X X X X X X X X X X X X X X X X X X X X X X X X X X X X X X X X X X X X X X X X X X X X X X X X X",
" X X X X X X X X X X X X X X X X X X X X X X X X X X X X X X X X X X X X X X X X X X X X X X X X X X X X X X X X X X X X X X X X",
" X X X X X X X X X X X X X X X X X X X X X X X X X X X X X X X X X X X X X X X X X X X X X X X X X X X X X X X X X X X X X X X X",
"XXXXXXXXXXXXXXXXXXXXXXXXXXXXXXXXXXXXXXXXXXXXXXXXXXXXXXXXXXXXXXXXXXXXXXXXXXXXXXXXXXXXXXXXXXXX*XqXwXwXwXwX1X X X X X X X XXXXXXXXX",
"XXXXXXXXXXXXXXXXXXXXXXXXXXXXXXXXXXXXXXXXXXXXXXXXXXXXXXXXXXXXXXXXXXXXXXXXXXXXXXXXXXXXXXXX*XqXeXeXeXeXeXeXeX*X X X X X X X XXXXXXX",
"XXXXXXXXXXXXXXXXXXXXXXXXXXXXXXXXXXXXXXXXXXXXXXXXXXXXXXXXXXXXXXXXXXXXXXXXXXXXXXXXXXXXXX*X8XeXeXeXeXeXeXeXeXwXoX X X X X X XXXXXXX",
"XXXXXXXXXXXXXXXXXXXXXXXXXXXXXXXXXXXXXXXXXXXXXXXXXXXXXXXXXXXXXXXXXXXXXXXXXXXXXXXXXXXXXX9XeXeXeXeXeXeXeXeXeXeXqXXX X X X X XXXXXXX",
"XXXXXXXXXXXXXXXXXXXXXXXXXXXXXXXXXXXXXXXXXXXXXXXXXXXXXXXXXXXXXXXXXXXXXXXXXXXXXXXXXXXXXX*X7X9X9X9X9X9X9X9X9X9X9X5XXX X X X XXXXXXX",
"XXXXXXXXXXXXXXXXXXXXXXXXXXXXXXXXXXXXXXXXXXXXXXXXXXXXXXXXXXXXXXXXXXXXXXXXXXXXXX|.].XXXXXXXXXXXXXXXXXXXXXXXXXXXXXXXX X X X XXXXXXX",
"XXXXXXXXXXXXXXXXXXXXXXXXXXXXXXXXoXXXXXXXXXXXXXXXXXXXXXXXXXXXXXXXXXXX].XXU.G U.G C.XXXXXXXXXXXXXXXXXXXXXXXXXXXXXXoXXX X X XXXXXXX",
"XXXXXXXXXXXXXXXXXXXXXXXXXXXXXXoX.X=XXXXXXXXXXXXXXXXXXXXXXXXXXXXXXXXX6.G h ~ , , H .XXXXXXXXXXXXXoXXXXXXXXXXXXXXXXXXXXXXXXXXXXXXX",
"XXXXXXXXXXXXXXXXXXXXXXXXXXXXXXoXoX<XXXXXXXXXXXXXXXXXXXXXXXXXXXXXXXXXU.I T @ . , * ..g ].XXXXXXXXXXXXXXXXXXXXXXXXXXXXXXXXXXXXXXXX",
"XXXXXXXXXXXXXXXXXXXXXXXXXXXXXX*X*X*XXXXXXXXXXXXXXXXXXXXXXXXXXXXXoXXX!.* ; P / / ^ _ [ s.XXXXXXXXXXXXXXXXXXXXXXXXXXXXXXXXXXXXXXXX",
"XXXXXXXXXXXXXXXXXXXXXXXXXXXX*XXXXXXXXXXXXXXXXXXXXXXXXXXXXXXXXXXXoXXXm.U ' _ _ _ _ ' ] O.XXXXXXXXXXXXXXXXXXXXXXXXXXXXXXXXXXXXXXXX",
"XXXXXXXXXXXXXXXXXXXXXXXXXXXXXXXXXXXXXXXXXXXXXXXXXXXXXXXXXXXXXXXX|.p.! _ _ _ _ _ Q ! ) N.XXXXXXXXXXXXXXXXXXXXXXXXXXXXXXXXXXXXXXXX",
"oXoXoXoXoXoXoXoXoXoXoXoXoXoXoXoXXXXXoXoXoXoXoXoXoXoXoXoXoXoXoXZ...) _ _ _ _ _ ]  .T.O.XXoXoXoXoXoXoXoXoXoXoXoXoXoXoXoXXXXXoXoXoX",
"=X=X=X=X=X=X=X*X=X=X=X=X=X=X=X=X=X=X=X=X=X=X=X=X=X=X=X=X=X=X=XI.E _ _ _ _ _ ' o.i.i.I.*X=X=X=X=X=X=X=X=X=X=X=X=X=X=X=X=X=X*X=X=X",
"=X=X=X=X=X=X*X=X=X=X=X=X=X=X=X=X=X=X=X=X=X=X=X=X=X=X=X=X=X=X*Xd.> ) _ _ _ o.| j.T.i.I.=X=X=X=X=X=X=X=X=X=X=X=X=X=X=X=X;X2X*X=X=X",
"=X=X=X=X=X*X=X5X5X5X5X5X5X5X5X3X=X=X=X=X=X=X=X=X=X=X=X=X=X=X*X`.; _ _ _ ] @.@.W >X@Xb.=X=X=X*X=X=X=X=X=X=X=X=X=X=X=X*X=X=X=X=X*X",
"=X=X=X=X=X5X9XeXeXeXeXeXeXeXeXeX9X8X;X=X=X*X=X=X=X=X=X=X=X=X.X .{ _ _ _ _ K r.R +.,Xg.*X=X=X=X=X=X=X=X=X=X=X=X=X=X=X*X;X=X=X*X=X",
"=X=X*X=X5XeXeXeXeXeXeXeXeXeXeXeXeXeXwX*X=X=X=X=X=X=X=X=X=X*XU.Q _ _ _ ] {  .t.n.k.>XI.=X=X=X=X=X=X=X=X=X=X=X=X=X=X=X*X=X=X=X<X1X",
"=X=X=X9XeXeXeXeXeXeXeXeXeXeXeXeXeXeXeXqX3X=X=X=X=X=X=X=X!.g  .` _ _ ^ X.V O n A q.Z..X=X=X=X=X=X=X=X=X=X=X=X=X=X=X=X=X*X*X=X=X=X",
"=X*X=X9XeXeXeXeXeXeXeXeXeXeXeXeXeXeXeXeX8X=X=X=X=X=X=X=Xx.| ' _ _ ^ m././.H.F m z d.`.*X=X=X=X=X=X=X=X=X=X=X=X=X=X=X*X*X*X=X=X=X",
"=X*X*X=X3X3X3X3X3X3X3X3X3X3X3X3X3X3X3X3X=X=X=X=X=X=X=X=X`.- ` _ _ T Q./././.9.L # C.5.*X=X=X=X=X=X=X=X=X=X=X=X=X=X=X=X*X=X=X=X=X",
"=X=X=X*X=X=X=X=X=X=X=X=X=X=X=X=X=X*X=X=X=X*X=X=X=X=X=X*XG { _ _ ` I 3././.Q.g.L y.A d.`.=X=X=X=X=X=X=X=X=X=X=X=X=X=X=X=X*X*X=X=X",
"=X=X=X=X=X=X=X=X=X=X=X=X=X=X=X=X=X=X*X=X=X=X=X=X=X*XU.I.E _ _ _ ( i.v.S H.4.K.p.O.C <.*X=X=X=X=X=X=X=X=X=X=X=X=X=X=X=X=X=X=X=X=X",
"=X=X=X=X=X=X=X=X=X=X=X=X=X=X=X=X=X=X=X=X=X=X=X=X=X=XO.! ` _ ' R k.6XOXY V K././.N.# h.}.=X=X=X=X=X=X=X=X=X=X=X=X=X=X=X=X=X=X=X=X",
"=X=X=X=X;X=X=X=X;X=X=X=X=X=X=X=X=X=X=X=X=X=X;X;X=X.X5.. ( ^ #.6X0Xv.E U f M 0.~.C #XOXU.=X=X=X=X=X=X=X=X=X=X;X;X=X=X=X=X;X=X=X=X",
"1X1X1X1X1X1X1X1X1X1X1X1X1X1X1X1X1X1X1X1X1X1X1X1X1Xa.z.0XOXOX@Xj.Y = 9 a &.;.$.3 3 u.#X6XP.;X1X1X1X1X1X1X1X1X1X1X1X1X1X1X1X1X1X1X",
"1X1X1X1X1X1X1X1X1X1X1X1X3X3X1X1X1X1X1X1X1X1X3X3X1Xc.h.i.L.o.) ) * a =.0 r t t d a M c.z.:Xb.1X1X3X3X1X1X1X1X3X3X3X3X3X3X1X1X1X1X",
"1X1X1X1X1X2X1X1X1X1X1X1X1X1X1X1X1X1X1X1X1X1X1X1X1X&X'.W.W ; } : a p &.&.%.%.u d < s f.=Xh.+X'.1X1X1X1X1X1X1X1X1X1X1X1X1X1X1X1X1X",
"1X1X1X1X1X1X1X3X3X1X1X1X1X1X1X1X1X1X1X1X1X1X1X1X1X1X1X1XZ.x.> O :.9 r r r r %.e A.N C a.v.Y.&X1X1X1X1X1X1X1X1X1X1X1X1X1X1X1X1X1X",
"*X;X1X1X1X1X1X5X3X1X3X3X1X1X1X1X1X1X1X1X1X1X1X1X1X1X1X1X;XD A.z *.&.=.&.;.&.u 1./.~.{.G.5.u.1X1X1X1X1X1X1X1X1X1X1X1X1X1X1X1X1X1X",
"XXXX*X<X1X1X2X1X1X1X3X1X1X1X1X1X1X1X1X1X1X1X1X1X1X1X1X1XZ B./.K.3 *.&.&.s 1 q././././././.S 1X1X1X1X1X1X1X1X1X1X1X1X1X1X1X1X1X1X",
"XXXXXXoX=X1X1X3X1X2X2X1X1X1X1X1X1X1X1X1X1X1X1X1X1X*XoX<.f./././.K.1.M N 7.K././././././.~.D.Z.1X1X1X1X1X1X1X1X1X1X1X1X1X1X1X1X1X",
"XXXXXXXXXX*X;X1X1X3X3X2X1X1X1X1XoXXXoXoXXXoX;X1X=XXXg.6.K./././././././././././././././.K.E.5.1X1X1X1X1X1X1X1X1X1X1X1X1X1X1X1X1X",
"XXXXXXXXXXXXoX;X4X4X5X5X5X5X5X*XXX=X;X=X=XoXXXoXXXS.x N.Q./././.~././././././.F././././.E.D.S 2X5X5X5X5X5X5X5X5X5X5X5X5X5X5X5X5X",
"XXXXXXXXXXXXXXXX=X4X5X4X5X5X3XoX=X<X;X1X1X;X=XoXG.C B.H./././.K.F././././././.B./././././.M.M.c.5X5X5X5X5X5X5X5X5X5X5X5X5X8X5X5X",
"XXXXXXXXoXoXoXoXXXoX3X5X5X3X*X=X<X;X1X;X<X<X;XP.S S.N././././.d././././././._.f./././././.f.~.,.5X5X5X5X5X5X5X5X5X5X5X5X5X5X5X5X",
"XXXXoX*X1X<X<X;X=X=XoX<X4X*X=X<X;X;X1X1X<X;Xx.A D.q././././.D.D././././././.).q./././././.8.{.,.5X5X5X5X4X3X1X4X5X5X5X4X5X5X5X5X",
"3XoX=X1X<X1X;X<X<X1X=X*X*X=X<X<X<X;X;X;X&XD f.D.q././././.~.3./././././././.F.N./././././.x /.4..X*XXXoXoXXXXX*X3X5X5X5X4X4X5X5X",
"5X2X1X;X;X;X1X<X<X1X1X1X;X<X<X<X1XS j B S H.C.q./././././.f.R./././././././.4.Q././././.M.e c 9.].XXoX;X<X=XoXoX*X=X1X=XXX1X5X5X",
"5X5X5X3X;X1X<X1X1X1X1X1X;X1X<X3X$X2 :.j ).l.q./././././.F.8././././././././.4._./././.B.w i u X I.=X1X<X<X<X;X<X;X1X<X*XoXXX<X4X",
"5X5X5X5X4X<X1X1X;X1X1X1X<X;X3X5X-X2 =.c <.N.~./././././.<.)./././././././.Q.N./././.m.r =.< y &.w.1X1X<X<X;X<X<X<X;X<X1X<X=XXX*X",
"5X5X5X5X5X4X<X1X<X<X<X<X<X1X5X3XoXx u 4 H././././././.9.D././././././././.D.H./.R.M i &.e h.Y.7 e.<X;X<X<X<X;X1X;X<X1X1X;X;X*XXX",
"5X5X5X5X5X5X4X1XXXXX|.*X1X5X5XXX_.v *.q K./././././.K.9./././././././././.v 2.M r =.&.4 Z d.4 5 x.1X<X<X<X1X<X;X1X<X<X;X<X<X<X<X",
"5X5X5X5X5X5X5X5X X(._.*X2X5X5X|.(.+ *.d c /././././.>.Q./././././././.~.2.u %.&.&.i 3 + J *.3.-X1X;X1X1X<X1X.X).4X4X3X3X3X1X<X5X",
"5X<X).).;X1X2X5X X(._.).].1X5X X_.g.X &.i j F././.N.C././././././.~.B.k s 6 u e X   & B l N -X=X_.(.=X5X4X4X X).;X5X4X2X2X4X2X5X",
"5X;X_.(.(._.*X5X X_.(._.(.|.XX)._.*Xu.X =.%.r n m c )./././.{.Q.A k y =.r 1.e.V.J.O $ $ J._.2X*X(._.oX<X1X5X)._.;X5XXX_._._..X5X",
"2X=X(._._._.*X2X X_._._.(._._._._.].|.a.o y &.%.u p n M N M n 9 a &.=.4 F (.(._._.(.w.% b (._._._._._.(.).5X{.(.[. X_._._._.|.;X",
")._.(._._.(._._.(.(._._._._._._._._._.<X%XC k X p &.&.;.:.-.&.&.a 8 f V.(._._._._._._.~.J._._.(.(._._._._.*X)._.(._._._._._.(._.",
"(._._.(._._.(.(._._.(._._._._.(._._.(.<X5X).(.J.+ 2 e r r 8 < o b F.^._._._._._._._.(._.(.(._._._._._._.(._._._._._.(.(._._.(.(."
};
