/* XPM */
static char *_a668d4023f7496bbcbf5bdbe22a18e8HCCuq5Gs2B7WyPaV[] = {
/* columns rows colors chars-per-pixel */
"64 64 225 2 ",
"   c #732610",
".  c #723420",
"X  c #79463B",
"o  c #5A414D",
"O  c #6C4C59",
"+  c #705062",
"@  c #7A6271",
"#  c #851D15",
"$  c #971D1D",
"%  c #A71B19",
"&  c #BB1C1B",
"*  c #98271D",
"=  c #AC251F",
"-  c #BA2419",
";  c #A51D26",
":  c #B91D28",
">  c #972827",
",  c #8E372F",
"<  c #93322B",
"1  c #A72624",
"2  c #BA2527",
"3  c #A5382D",
"4  c #B23A29",
"5  c #AA3634",
"6  c #C51C1A",
"7  c #D71B1D",
"8  c #C3221D",
"9  c #CB231E",
"0  c #C41D27",
"q  c #C32324",
"w  c #CB2826",
"e  c #D92825",
"r  c #D42D30",
"t  c #E82C2D",
"y  c #E93739",
"u  c #F23837",
"i  c #B54C1B",
"p  c #94433A",
"a  c #B5482A",
"s  c #C3571C",
"d  c #C67A17",
"f  c #CF721D",
"g  c #C8562C",
"h  c #DC5D2C",
"j  c #D54D31",
"k  c #EB463A",
"l  c #F44A3A",
"z  c #E75433",
"x  c #DB6521",
"c  c #EC6C35",
"v  c #963F5F",
"b  c #A83248",
"n  c #B8374B",
"m  c #B93D54",
"M  c #CB3D4E",
"N  c #9A4948",
"B  c #944856",
"V  c #945C55",
"C  c #A64847",
"Z  c #AA4857",
"A  c #B55154",
"S  c #B55757",
"D  c #996D49",
"F  c #AA615F",
"G  c #845F6D",
"H  c #BE4A67",
"J  c #A5536D",
"K  c #B65976",
"L  c #B45A7A",
"P  c #B76869",
"I  c #A9706D",
"U  c #AF697E",
"Y  c #B66878",
"T  c #B8767B",
"R  c #C44942",
"E  c #D94642",
"W  c #C24A5D",
"Q  c #C05F56",
"!  c #E34643",
"~  c #F54A47",
"^  c #E75242",
"/  c #F26645",
"(  c #F0734B",
")  c #C64A63",
"_  c #D44D68",
"`  c #C3576C",
"'  c #D74974",
"]  c #EA527E",
"[  c #C3616F",
"{  c #C5657C",
"}  c #C47875",
"|  c #B88729",
" . c #DA891B",
".. c #EEB813",
"X. c #D29630",
"o. c #F0B928",
"O. c #F4D132",
"+. c #BB8A4D",
"@. c #B4836D",
"#. c #CF8F42",
"$. c #CCA442",
"%. c #CFAA66",
"&. c #EAC55D",
"*. c #FAE050",
"=. c #B7668A",
"-. c #AB7485",
";. c #B77A89",
":. c #BC7B8C",
">. c #BA7C91",
",. c #C95880",
"<. c #F25C87",
"1. c #C76884",
"2. c #D46A8F",
"3. c #C57788",
"4. c #CB6593",
"5. c #D86B94",
"6. c #C87894",
"7. c #DB7498",
"8. c #DA7A9B",
"9. c #EB6887",
"0. c #E37A98",
"q. c #F37394",
"w. c #DE6FA1",
"e. c #D573A0",
"r. c #DD74A4",
"t. c #E477A3",
"y. c #E27BA2",
"u. c #AF8285",
"i. c #BC888A",
"p. c #BD8698",
"a. c #BD9398",
"s. c #BC99A1",
"d. c #C6868A",
"f. c #C5968A",
"g. c #C78697",
"h. c #C58B9C",
"j. c #CC8B99",
"k. c #D3899A",
"l. c #C49599",
"z. c #CC939C",
"x. c #D5929B",
"c. c #C68CA0",
"v. c #CB8CA3",
"b. c #D988A5",
"n. c #C795A3",
"m. c #CC9BAA",
"M. c #D897A6",
"N. c #D29DAC",
"B. c #D49DB2",
"V. c #EF85AB",
"C. c #E589A9",
"Z. c #F088AE",
"A. c #E293AD",
"S. c #EA89B5",
"D. c #F28CB3",
"F. c #F28DBC",
"G. c #EA98B9",
"H. c #F395B7",
"J. c #CDA2A9",
"K. c #D5A6A7",
"L. c #DAA5B5",
"P. c #D8A6B9",
"I. c #DDAABB",
"U. c #D9B1BD",
"Y. c #E5A5B8",
"T. c #E5ADBF",
"R. c #E6B1BA",
"E. c #F39AC4",
"W. c #DDBBC7",
"Q. c #EAABC7",
"!. c #EBACC5",
"~. c #F4A6C6",
"^. c #FDA1C2",
"/. c #F4AAC5",
"(. c #F4A4CC",
"). c #FCA7C9",
"_. c #F6ADCC",
"`. c #FBA9CA",
"'. c #E2B7C5",
"]. c #EAB2C5",
"[. c #ECB5CB",
"{. c #E2BCCB",
"}. c #EEBACD",
"|. c #F5B4CC",
" X c #F9B0CF",
".X c #F1BACE",
"XX c #F5A8D1",
"oX c #EAB7D5",
"OX c #ECBDD1",
"+X c #FBB4D2",
"@X c #F5BCD3",
"#X c #F5B8D7",
"$X c #FBBBD6",
"%X c #FBBFD9",
"&X c #FBBDE0",
"*X c #DDC8D0",
"=X c #EAC6CA",
"-X c #EBC4D5",
";X c #E8C9D8",
":X c #F2C2D5",
">X c #FAC2D7",
",X c #F5C4D9",
"<X c #FAC3DC",
"1X c #F5CBDD",
"2X c #FAC9DF",
"3X c #F1D6DB",
"4X c #FAC5E3",
"5X c #F7CDE1",
"6X c #F7CCE6",
"7X c #FBCDE1",
"8X c #E8DCE6",
"9X c #F5D3E4",
"0X c #FAD3E5",
"qX c #FADAE7",
"wX c #FBD6E9",
"eX c #FBD9E9",
"rX c #FBD8F1",
"tX c #FAE7ED",
"yX c #FCE4F2",
"uX c #F9EAF3",
"iX c #FDEDFA",
"pX c #F9F3F7",
"aX c #FCF7FA",
"sX c #FEF5FC",
"dX c #FEFDFD",
/* pixels */
"+X+X+X+X+X+X+X+X+X+X+X+X+X+X+X+X+X+X+X+X+X+X+X+X+X+X+X+X+X+X+X+X+X+X+X+X+X+X+X+X+X+X+X+X+X+X+X+X+X+X+X+X+X+X+X+X+X+X+X+X+X+X+X+X",
"+X+X+X+X+X+X+X+X+X+X+X+X+X+X+X+X+X+X+X+X+X+X+X+X+X+X+X+X+X+X+X+X+X+X+X+X+X+X+X+X+X+X+X+X+X+X+X+X+X+X+X+X+X+X+X+X+X+X+X+X+X+X+X+X",
"+X+X+X+X$X,X+X+X+X+X+X+X+X+X+X+X+X+X+X+X+X+X+X+X+X+X+X+X+X+X+X+X+X+X+X+X+X+X+X+X+X+X+X+X+X+X+X+X+X+X+X+X+X+X+X+X+X+X+X+X+X+X+X+X",
"+X+X+X+X$X$X$X+X+X+X+X+X+X+X+X+X+X+X+X+X+X+X+X+X+X+X+X+X+X+X+X+X+X+X+X+X+X+X+X+X+X+X+X+X+X+X+X+X+X+X+X+X+X+X+X+X+X+X+X+X+X+X+X+X",
"+X+X$X,X+X$X$X+X+X+X+X+X+X+X+X+X+X+X+X+X+X+X+X+X+X+X+X+X+X+X+X+X+X+X+X+X+X+X+X+X+X+X+X+X+X+X+X+X+X+X+X+X+X+X+X+X+X+X$X+X+X+X+X+X",
"+X+X+X+X+X$X@X+X+X+X+X+X+X+X+X+X+X+X+X+X+X+X+X+X+X+X+X+X+X+X+X+X+X+X+X+X+X+X+X+X+X+X+X+X+X+X+X+X+X+X+X+X+X+X+X+X+X+X+X+X<X%X+X$X",
"+X+X+X+X+X+X+X+X+X+X+X+X+X+X+X+X+X+X+X+X+X+X+X+X+X+X+X+X+X+X+X+X+X+X+X+X+X+X+X+X+X+X+X+X+X+X+X+X+X+X+X+X+X+X+X+X+X+X@X+X+X+X+X+X",
"+X+X+X+X+X+X+X+X+X+X+X+X+X+X+X+X+X+X+X+X+X+X+X+X+X+X+X+X+X+X+X+X+X+X+X+X+X+X+X+X+X+X+X+X+X+X+X+X+X+X+X+X+X+X+X+X+X+X$X$X+X$X+X+X",
"+X+X+X+X+X+X+X+X+X+X+X+X+X+X+X+X+X+X+X+X+X+X+X+X+X+X+X+X+X+X+X+X+X+X+X+X+X+X+X+X+X+X+X+X+X+X+X+X+X+X+X+X+X+X+X+X+X+X$X@X+X+X+X+X",
"+X+X+X+X+X+X+X+X+X+X+X+X+X+X+X+X+X+X+X+X+X+X+X+X+X+X+X+X+X+X+X+X+X+X+X+X+X+X+X+X+X+X+X+X+X+X+X+X+X+X+X+X+X+X+X+X+X+X+X+X+X+X+X+X",
"+X+X+X+X+X+X+X+X+X+X+X+X+X+X+X+X+X+X+X+X+X+X+X+X+X+X+X+X+X+X+X+X+X+X+X+X+X+X+X+X+X+X+X+X+X+X+X+X+X+X+X+X+X+X+X+X+X+X+X+X$X+X+X+X",
"+X+X+X+X+X+X+X+X+X+X+X+X+X+X+X+X+X+X+X+X+X+X+X+X+X+X+X+X+X+X+X+X+X+X+X+X+X+X+X+X+X+X+X+X+X+X+X+X+X+X+X+X+X+X+X+X+X+X+X+X+X+X+X+X",
"+X+X+X+X+X+X+X+X+X+X+X+X+X+X+X+X+X+X+X+X+X+X+X+X+X+X+X+X+X+X+X+X+X+X+X+X+X+X+X+X+X+X+X+X+X+X+X+X+X+X+X+X+X+X+X+X+X+X+X+X+X+X+X+X",
"+X+X+X+X+X+X+X+X+X+X+X+X+X+X+X+X+X+X+X+X+X+X+X+X+X+X+X+X+X+X+X+X+X+X+X+X+X+X+X+X+X+X+X+X+X+X+X+X+X+X+X+X+X+X+X+X+X+X+X+X+X+X+X+X",
"+X+X+X+X+X+X+X+X+X+X+X+X+X+X+X+X+X+X+X+X+X+X+X+X+X+X+X+X+X+X+X+X+X+X+X+X+X+X+X+X+X+X+X+X+X+X+X+X+X+X+X+X+X+X+X+X+X+X+X+X+X+X+X+X",
"$X$X$X$X$X$X$X$X$X$X$X$X$X$X$X$X$X$X$X$X$X$X$X$X$X$X$X$X$X$X$X$X$X$X$X$X$X$X$X$X$X$X$X$X%XeXeXeXqXqXeXeXeX<X$X$X$X$X$X$X$X$X$X$X",
"$X$X$X$X$X$X$X$X$X$X$X$X$X$X$X$X$X$X$X$X$X$X$X$X$X$X$X$X$X$X$X$X$X$X$X$X$X$X$X$X$X$X%XeXuXdXdXdXdXdXdXdXdXpXtX0X$X$X$X$X$X$X$X$X",
"$X$X$X$X$X$X$X$X$X$X$X$X$X$X$X$X$X$X$X$X$X$X$X$X$X$X$X$X$X$X$X$X$X$X$X$X$X$X$X$X$X%X0XdXdXdXdXdXdXdXdXdXdXdXdXdX1X$X$X$X$X$X$X$X",
"$X$X$X$X$X$X$X$X$X$X$X$X$X$X$X$X$X$X$X$X$X$X$X$X$X$X$X$X$X$X$X$X$X$X$X$X$X$X$X$X$XtXdXdXdXdXdXdXdXdXdXdXdXdXdXdXaXeX$X$X$X$X$X$X",
"$X$X$X$X$X$X$X$X$X$X$X$X$X$X$X$X$X$X$X$X$X$X$X$X$X$X$X$X$X$X$X$X$X$X$X$X$X$X$X$X$X<XpXsXsXsXsXsXaXaXsXsXsXsXsXaXaXeX$X$X$X$X$X$X",
"$X$X$X$X$X$X$X$X$X$X$X$X$X$X$X$X$X$X$X$X$X$X$X$X$X$X$X$X$X$X$X$X$X$X$X$X$X$X$X$X$X$X$X$X$X$X$X$X%X$X$X$X$X$X$X$X$X$X$X$X$X$X$X$X",
"$X$X$X$X$X$X$X$X$X$X$X$X$X$X$X$X%X$X$X$X$X$X$X$X$X$X$X$X$X$X$X$X$X$X$X$X$X$X$X$X$X$X$X$X$X$X$X$X%X%X$X$X$X$X$X$X$X$X$X$X$X$X$X$X",
"$X$X$X$X$X$X$X$X$X$X$X$X$X$X$X%X@X<X$X$X$X$X$X$X$X$X$X$X$X$X$X$X$X$X$X$X$X$X$X$X$X$X$X$X$X$X$X$X$X$X$X$X$X$X$X$X$X$X$X$X$X$X$X$X",
"$X$X$X$X$X$X$X$X$X$X$X$X$X$X$X,X%X,X$X$X$X$X$X$X$X$X$X$X$X$X$X$X$X$X$X$X$X$X$X$X%X$X$X$X$X$X$X%X$X$X$X$X$X$X$X$X$X$X$X$X$X$X$X$X",
"$X$X$X$X$X$X$X$X$X$X$X$X$X$X$X,X%X<X$X$X$X$X$X$X$X$X$X$X$X$X$X$X$X%X$X$X$X$X$X$X$X$X$X$X$X%X@X!.@X%X%X>X%X$X$X%X<X%X$X$X$X$X$X$X",
"$X$X$X$X$X$X$X$X$X$X$X$X$X$X%X$X$X$X$X$X$X$X$X$X$X$X$X$X$X$X$X$X@X$X$X$X$X$X$X$X$X$X$X$X$X@XG.y.!.@X%X{.@X$X@X@X[.@X$X$X$X$X$X$X",
"$X$X$X$X$X$X$X$X$X$X$X$X$X$X$X$X$X$X$X$X$X$X$X$X$X$X$X$X$XY.j.d.d.M.$X$X$X$X$X$X$X$X$X$X$X!.A.8.L.}.$X$X$X$X@X}.[.|.$X$X$X$X$X$X",
"%X%X%X%X%X%X%X%X%X%X%X%X%X%X%X%X%X%X%X%X%X%X>X%X%X%X|.j.3.S 5 5 5 A M.%X%X%X%X%X%X%X%X%X%X>X@X!.,X@X@X>X@X@X%X<X>X%X%X%X%X%X%X%X",
"<X<X<X<X<X<X<X<X<X<X<X<X<X<X<X<X<X<X<X<X<X<X<X@X[.j.P 5 1 8 w t k E Q x.@X<X<X<X<X<X<X<X<X<X<X,XP.;.3.Y.g.:.N.@X<X2X<X2X<X<X>X<X",
"<X<X<X<X<X<X<X<X<X<X<X<X<X<X<X<X<X<X<X<X<X@X!.x.S 3 1 2 q 6 7 e l ( / A x.@X<X<X<X<X<X<X<X<X<XT.Y H H ` 1.b.z.n.:X1X>X<X<X5X<X<X",
"<X<X<X<X<X<X<XuXdXaXdXdXdXdXdXuX<X<X<X<X>Xg.N 3 = - 2 % % 9 t e z ( / j C z.<X<X<X<X<X<X<X<X<XL.b ] <.9.q.^.k.-.OX<X,X<X<X7X<X<X",
"<X<X<X<X<XyXdXdXdXdXdXdXdXdXdXdXdXaXqX@Xz.N * = % $ $ % - e u l c c h g 4 C R.<X<X<X<X<X<X<X<X].{ ' ] 9.9.9.3.N.@X]..X2X<X<X<X<X",
"<X<X<X<XeXaXdXdXdXdXdXdXdXdXdXdXdXdXpX;Xz.I 3 3 > # # % 9 e u ~ ( f f #.i 3 d.@X<X2X<X<X<X<X<X<XY.K ) _ _ ` M.@X<XQ.[.,X<X<X<X<X",
"<X<X<X7XdXdXdXdXdXdXdXdXdXdXdXdXdXdXdXdX1XT.d.d.d.T , % e 7 t k g d o.*.X.a p K.<X<X<X<X<X<X<X,X:XB.Y K 1.k.<X<X<X<X<X<X<X<X<X<X",
"<X<X<X<X0XeXeXeXeXeXeXeXeXeXeXeXeXeXeXqX<X<X<X<X<X].C % w e y k g d ..O.X.s a } [.<X2X>X<X<X<X:X}.>X>XI.[.<X<X2X<X<X<X<X<X<X<X<X",
"<X<X<X<X<X<X<X<X<X<X<X<X<X<X<X<X<X<X<X<X<X<X<X<X.XT < ; q w y ~ E i  . .s j ^ R } .X<X<X<X<X<X:XOX:XK.@.i.@X<X<X<X<X<X<X<X<X<X<X",
"<X<X<X<X<X<X<X<X<X<X<X<X<X<X<X<X<X<X<X<X>X@X].z.F < $ % & & e y y j x x h ^ ~ ! R P M.[.@X<X<X<X,XK.+.$.%.f.<X<X<X<X<X<X<X<X<X<X",
"<X<X<X<X<X<X<X<X<X<X<X<X<X<X<X<X<X<X<X@XL.i.V , # > 2 q 9 q r u u l / / / ^ E M w 1 p V l.I.<X<X@Xf.| O.&.D <X<X<X<X<X<X<X<X<X<X",
"<X<X<X<X2X2X<X<X<X<X<X<X<X2X2X<X<X,XP.i.X .   # $ ; : & & : : 0 6 8 q 2 q 2 n n 5 C I I u.a.,X<X:XJ.+.X.#.f.2X2X<X<X<X<X2X2X<X<X",
"7X7X7X7X7X7X7X7X7X7X7X7X7X7X7X7X7X1XU.l.a.l.l.i.N m m n M ) W W W W ) H W ) 5.0.{ 3.,X,X:X,X7X5X-XW.K.f.K.,X7X7X7X7X7X7X7X7X7X7X",
"7X7X7X7X7X7X7X7X7X7X7X7X7X7X7X7X7X7X2X1X2X2X2X-XY 0.7.5.y.H.H./.~._.XX[././.`.+Xb.h.0X7X7X7X7X-XW.{.,X2X2X7X7X7X7X7X7X7X7X7X7X7X",
"7X7X7X7X7X0X7X7X7X0X7X7X7X7X7X7X7X7X7X7X7X7X2XI.3.V.t.r.F.XX&XoXoX4XwXyXyXyXeXOXI.h.U.1X,X-X{.{.{.-X7X7X7X7X7X7X7X7X7X7X7X7X7X7X",
"7X7X7X7X7X7X7X0X0X7X7X0X7X7X7X7X7X7X7X7X7X7X:X;.1.8.4.r.E.%XoX@ + ;XuXsXaXaX8X@ G g.-.M.:.;.-.m.-X7X7X7X7X7X7X7X7X7X7X7X7X7X7X7X",
"$X%X<X7X7X7X7X0X0X7X0X7X7X7X7X7X7X7X7X7X7X2XJ.B J J J 6.#X4XoX+ o ;X3X'.=X=X*XO O g.J 3.G.].m.m.,X7X7X7X7X7X7X7X7X7X7X7X7X7X7X7X",
"$X%X$X%X2X7X0X7X7X7X7X7X7X7X7X7X7X7X7X7X7X2XL.Y b.T.{.;XqX2X~.b.B.:Xj.Z Z Z I.v.v.].A.C.|.I.s.{.7X7X7X7X7X7X7X7X7X7X7X7X7X7X7X7X",
"$X%X$X$X$X<X7X7X7X0XeX0X7X7X7X7X<X2X<X<X<X7X}.;.3.|.eXuXyX#XS.D. X/.1.b M b 8.D.H._.H.Z.b.p.'.1X7X7X7X7X7X7X7X7X7X7X7X7X7X7X7X7X",
"$X$X$X$X$X$X$X2X0X0X0X0X0X0X0X<X$X%X<X%X%X%X@X;.Z 2.|.wXwX$XG.S.G.@XA.` A [ Y.G.Z.H.V.2.6.OX0X0X0X0X0X0X0X0X0X0X0X0X0X0X0X0X0X0X",
"$X$X$X$X$X$X$X$X7XeXeXeXeXeX0X%X<X2X2X2X2X<X}.;.1.,.1.b.$X4X4X4X9XuXeXY.T R.tX0X%X~.8.v P.eXeXeXeXeXeXeXeXeXeXeXeXeXeXeXeXeXeXeX",
"$X$X$X$X$X$X$X$X$X<X0XeXeXeX2X<X2X7X2X7X2X7X@X;.2.5.K 4.~.%XrXiXsXdXdXuX3XuXsXsXiX,X:.-.-XeXeXeXeXeXeXeXeXeXeXwXeXeXeXeXeXeXeXeX",
"<X$X$X$X%X2X2X2X<X%X%X0XeX<X2X2X7X7X7X7X2X:XN.Y y.t.w.r.S.(.4XrXsXsXsXsXsXsXsXsXiXP.;.{.0XeXeXeXeXeXeXeXeXeXeXeXeXeXeXeXeXeXeX2X",
"eX2X%X<X2X2X7X7X2X2X<X%X<X>X2X7X7X7X7X2X2XJ.;.k.V.t.w.w.S.E.(.&X6X6X0X0X0X7X6X0X,X>.p.@X$X<X2X<X<X<X%X$X<X0XeXeXeXwXeXeXeXeX<X$X",
"eXeX0X7X7X7X7X7X7X7X2X7X2X7X7X2X7X7X7X7X7X:XN.6.8.4.4.4.e.S.F.E.(.(.(.(.(.~.~.Y.h.v.:X<X<X$X$X$X<X7X<X%X$X%X2X0X7X<X0XeXeX7X$X$X",
"eXeXeXeX7X2X2X7X7X7X7X7X2X7X2X7XeXeXeX0X7X7X,Xm.-.-.=.=.=.4.t.Z.F.F.F.F.F.S.b.g.c.@X2X2X7X2X<X<X2X7X7X7X<X2X7X2X%X%X$X0XeX%X$X$X",
"eXeXeXeXeX0X2X7X7X7X7X7X7X2X0XeXeXeXeXeXeXwXwX9X-X-X-X'.>.U K K K K L L L L :.n.OX2X2X7X7X2X7X7X7X7X7X2X7X7X2X7X7X7X%X$X%X$X%X<X",
"eXeXeXeXeXeX0X7X7X7X7X7X7X7XeX7X2XeXeXeXeXeXeXeXeXqXeX0X1XU.n.h.6.6.h.n.c.k.!._.<X<X%X<X2X7X7X7X7X7X7X7X7X2X7X7X7X2X2X%X$X<XwXeX",
"eXeXeXeXeXeXeX0X<X+X$X$X7XeXeX+X_.0XeXeXeXeXeXeX5X<X7XeXeX0X9X@X~.~.@XqX9X_.`.`.$X X)._.0X7X7X7X2X2X7X7X<X7X7X7X7X7X7X7X7XeXeXeX",
"eXeXeXeXeXeXeXeX2X).`.+X0XeXeX+X`.0XeXeXeXeXeXeX%X`.<XeX0X@X%X+X).`.<X0XeX_.`._.`.`.)._.eX7X<X<X7X7X7X7X`.0XeXeX0X0X7X7XeXeXeXeX",
"eXeX,X_._.<X,XeX7X`.`.`._.2XeX_._.0XeXeX2X_.`.`.`.`.+X,X%X`.).`.).).+X<X,X`.).`.).`.)._.eX@X).`.eXwXwX,X`.%XeX0X0X0X0X0XeX<X+X+X",
"eXeX<X`.`.`._.eX2X`.).`.)._. X`.`.0XeXeX7X`.`.`.`.`.).).`.`.`._.`.`.`.`.).).`.`.).`.`._.7X+X)._.$X$X7X%X`.%XeX$X`.`.`.<XeX%X`.`.",
"7X<X$X).`.`.`.<X%X`.`.`.`.`.`.`.`.`._.eX7X`.).`.`.`.`.`.`.).).).`.`.`.`.`.`.`.`.`.).`.`.).).`.`.).`.2X%X`.`.`.`.`.`.). X+X_.`.`.",
"%X_.).`.).`.`.`.).).).`.`.`.).`.`._.`.eX5X`.).`.`.`.`.`.).`.`.`.`.`.`.`.`.`.`.`.`.).).`.`.).).`.`.)._.`.`.`.).`.`.`.`.).`.).).`.",
"`.`.`.`.`.`.).).`.).`.`.`.`.`.).).`.`.2X<X`.).`.`.`.`.`.`.`.`.`.`.`.`.`.`.`.`.`.).`.).`.`.).`.`.).).`.`.`.).`.).).`.).`.`.).`.).",
"`.`.`.`.`.`.`.`.`.`.`.`.`.`.`.`.`.`.`.).).).).`.`.`.`.`.`.`.`.`.`.`.`.`.`.`.`.`.`.`.`.`.`.`.`.`.).`.`.`.`.`.`.`.`.`.`.`.`.`.`.`.",
"`.`.`.`.`.`.`.`.`.`.`.`.`.`.`.`.`.).`.).).`.`.`.`.`.`.`.`.`.`.`.`.`.`.`.`.`.`.`.`.`.`.`.`.`.`.`.`.`.`.`.`.`.`.`.`.`.`.`.`.`.`.`."
};
