/* XPM */
static char *_febad3eadbe465ad7eaa10e0980d89d7MC00hLxM3K88krn[] = {
/* columns rows colors chars-per-pixel */
"64 64 48 1 ",
"  c #FBA7C9",
". c #F7AECC",
"X c #FBA9CA",
"o c #F7B2CF",
"O c #FBAED0",
"+ c #F7B5D1",
"@ c #FBB4D2",
"# c #F7BBD5",
"$ c #FBBBD6",
"% c #FABED8",
"& c #F7C2DA",
"* c #FBC3DC",
"= c #F6C9DE",
"- c #FAC9DF",
"; c #F7CCE0",
": c #FBCAE0",
"> c #FACEE3",
", c #FBCFE3",
"< c #FCCDE2",
"1 c #F5D1E3",
"2 c #F9D1E3",
"3 c #F9D2E4",
"4 c #FCD3E7",
"5 c #F8D4E5",
"6 c #F8D8E7",
"7 c #FCD8E7",
"8 c #FBD6E8",
"9 c #FCD6E8",
"0 c #F7DBE8",
"q c #F8D9E8",
"w c #FCD9E9",
"e c #FADEEB",
"r c #FADEED",
"t c #F7E6EF",
"y c #FAE1ED",
"u c #F9E4EE",
"i c #FBE6F0",
"p c #FAE8F1",
"a c #FBF1F7",
"s c #FBF2F8",
"d c #FBF7F9",
"f c #FCF5F9",
"g c #FBFAFB",
"h c #FDFAFB",
"j c #FAFBFC",
"k c #FDFBFD",
"l c #FBFCFD",
"z c #FEFEFE",
/* pixels */
"@@@$@@@@@@@@@@@@@@@@@@@@@@@@@@@@@@@@@@@@@@@@@@@@@@@@@@@@@@@@@@@@",
"@@@+:$@@@@@@@@@@@@@@@@@@@@@@@@@@@@@@@@@@@@@@@@@@@@@@@@@@@@@@@@@@",
"@@&$@#@@@@@@@@@@@@@@@@@@@@@@@@@@@@@@@@@@@@@@@@@@@@@@@@@@@@@@@@@@",
"@@&@@%@@@@@@@@@@@@@@@@@@@@@@@@@@@@@@@@@@@@@@@@@@@@@@@@@@@@@@@$@@",
"@@@$@&@@@@@@@@@@@@@@@@@@@@@@@@@@@@@@@@@@@@@@@@@@@@@@@@@@@@@@@@$#",
"@@@@@@@@@@@@@@@@@@@@@@@@@@@@@@@@@@@@@@@@@@@@@@@@@@@@@@@@@@@@@#$@",
"@@@@@@@@@@@@@@@@@@@@@@@@@@@@@@@@@@@@@@@@@@@@@@@@@@@@@@@@@@@@@$$@",
"@@@@@@@@@@@@@@@@@@@@@@@@@@@@@@@@@@@@@@@@@@@@@@@@@@@@@@@@@@@@@$%@",
"@@@@@@@@@@@@@@@@@@@@@@@@@@@@@@@@@@@@@@@@@@@@@@@@@@@@@@@@@@@@@@@@",
"@@@@@@@@@@@@@@@@@@@@@@@@@@@@@@@@@@@@@@@@@@@@@@@@@@@@@@@@@@@@@@@@",
"@@@@@@@@@@@@@@@@@@@@@@@@@@@@@@@@@@@@@@@@@@@@@@@@@@@@@@@@@@@@@@@@",
"@@@@@@@@@@@@@@@@@@@@@@@@@@@@@@@@@@@@@@@@@@@@@@@@@@@@@@@@@@@@@@@@",
"@@@@@@@@@@@@@@@@@@@@@@@@@@@@@@@@@@@@@@@@@@@@@@@@@@@@@@@@@@@@@@@@",
"@@@@@@@@@@@@@@@@@@@@@@@@@@@@@@@@@@@@@@@@@@@@@@@@@@@@@@@@@@@@@@@@",
"@@@@@@@@@@@@@@@@@@@@@@@@@@@@@@@@@@@@@@@@@@@@@@@@@@@@@@@@@@@@@@@@",
"$$$$$$$$$$$$$$$$$$$$$$$$$$$$$$$$$$$$$$$$$$$$$$&affffffda=$$$$$$$",
"$$$$$$$$$$$$$$$$$$$$$$$$$$$$$$$$$$$$$$$$$$$$&shzzzzzzzzzkjp%$$$$",
"$$$$$$$$$$$$$$$$$$$$$$$$$$$$$$$$$$$$$$$$$$$&uzzzzzzzzzzzzzzq%$$$",
"$$$$$$$$$$$$$$$$$$$$$$$$$$$$$$$$$$$$$$$$$$$pzzzzzzzzzzzzzzzlp$$$",
"$$$$$$$$$$$$$$$$$$$$$$$$$$$$$$$$$$$$$$$$$$$&tppppppppppppppp6$$$",
"$$$$$$$$$$$$$$$$$$$$$$$$$$$$$$$$$$$$$$$$$$$$$$$$$$$$$$$$$$$$$$$$",
"$$$$$$$$$$$$$$$$%$$$$$$$$$$$$$$$$$$$$$$$$$$$$$$$$$$$$$$$$$$$$$$$",
"$$$$$$$$$$$$$$$%#*$$$$$$$$$$$$$$$$$$$$$$$$$$$$$$$$$$$$$$$$$$$$$$",
"$$$$$$$$$$$$$$$%%:$$$$$$$$$$$$$$$$$$$$$$$$$$$$$$$$$$$$$$$$$$$$$$",
"$$$$$$$$$$$$$$$&&&$$$$$$$$$$$$$$$$$$$$$$$$$$$$$$$$$$$$$$$$$$$$$$",
"$$$$$$$$$$$$$$&$$$$$$$$$$$$$$$$$$$$$$$$$$$$$$$$$$$$$$$$$$$$$$$$$",
"$$$$$$$$$$$$$$$$$$$$$$$$$$$$$$$$$$$$$$$$$$$$$$$$$$$$$$$$$$$$$$$$",
"%%%%%%%%%%%%%%%%$$%%%%%%%%%%%%%%%%%%%%%%%$%%%%%%%%%%%%%%%%%$$%%%",
"*******&&****************************************************&**",
"******&****************************************************-1&**",
"*****&*eeeeeeee3******************************************&****&",
"*****rpzzzzzzzzliy=**&************************************&-**&*",
"**&*0zzzzzzzzzzzzlf&**************************************&***:>",
"***pgzzzzzzzzzzzzzza2**************************************&&***",
"*&*pzzzzzzzzzzzzzzzzy*************************************&&&***",
"*&&*2333333333333222***************************************&****",
"***&*************&***&**************************************&&**",
"****************************************************************",
"****************************************************************",
"****-***-*******************************-*******************-***",
">>>>>>>>>>>>>>>>>>>>>>>>>>>>>>>>>>>>>>>>>>>>>>>>>>>>>>>>>>>>>>>>",
">>>>>>>>>>>>>>>>>>>>>>>>>>>>>>>>>>>>>>>>>>>>>>>>>>>>>>>>>>>>>>>>",
">>>>>5><>>>>>>>>>>>>>>>>>>>>>>>>>>>>>>><>>>>>>>>>>>>>>>>>>>>>>>>",
">>>>>>>23>>>>>>>>>>>>>>>>>>>>>>>>>>>>>>>>>>>>>>>>>>>>>>>>>>>>>>>",
"&-<>>>>q3>22>>>>>>>>>>>>>>>>>>>>>>>>>>>>>>><>>>>>>><>>>>>>>><>>>",
"$$%:>>5>>>2>>>>><<<<<>>>>>>>>>>>>>>>>>>>>>><>>>>>>>>>>>>>>>><<>>",
"$$$%*>>2>55>>>>>><<>><>>>&%:>>:-:>>>>>>>>>>>>>>>>>>><<>>>>>><<<<",
"$$$$$&-><335>>>:%$%%$%->*$$%*-::::>>>:-><>>>>>>>>>>>><>>>>>>>><<",
"$$$$$$%-8wwwqwq&$*-**%$%$$$&::::::***%%8qqqqqwwwwwqqqwwwwwwwqqqq",
"$$$$$$$$-9qwqw4%*:-::-*&$%&--::::::*$$$&8qqqqqwwwwqqqwwwwwwqqywq",
"$$$$%%%%$%5qw2&*:-:-::::*-::::::::-:*%$$&>qqqqqqqqqqqwqwqqqqweqq",
"$$%&:::-*&%;8&*:--:::::::::--::::::::*%$%***&**4qqqq93<9wwqqqqqq",
"3%*:::-:::-&&*::::::::::::354334::::::------%%$$&*%%%$$&2qqq8wqq",
"q53---::::::-:::>>2>:::->5qqwwwq9:-:-::::::::-*%$$%-:*%%&*>*%2qw",
"qqq3-:::::::-::3qqqq>::>9qqwwwq9q-3&-:::::::::-:**::::-:-::&%$:8",
"wqqq8:::-::::-3qwwqqq99wqqqwqwqqq*8=>:::::::::::-::::-:::-:::&$&",
"wqqqq9:::::::>q3&wqqqqqwwqqwqqqq2XX.q3*@@$-&&&-:::-:::-:-:::--&$",
"wwwqqq9>$$#&>wq$X-qqqqqqq:-<qqqq>XX.qq:.X.%@ .3>:::::::*>::-::::",
"qwwwwqwq@ X&5qq+X*qqqqqqq@X*88**% X.7q>XX.XX X853->::>#.8w532>:q",
"w:..->5q@ X.o>w@X&qqq@... X%>:.X X X22*  X  XX8* X*q88@.-q85585q",
"w-X  X&q+X X +$. &qqq@XX.X   X XXXX.   XX   XX5& X%:>q.X-q$XXX#q",
"9* XXX&5@XXX  XXXo@2qo XXXXXXX       X      XXXXX X .qO o@XXXX+-",
".X XX XX  XX X X XX:8@ XXX  XX X             XX   XXX&.XXXXXXX X",
"  X XX  X  X XX  X :q.X X   XXX               X    X XXX X      "
};
