/* XPM */
static char *e7e2ba6c464440189a9ead2399be732bxFp5ZMm4oFnehkzl[] = {
/* columns rows colors chars-per-pixel */
"64 64 48 1 ",
"  c #FBA7C9",
". c #F7AECC",
"X c #FBA9CA",
"o c #F7B2CF",
"O c #FBAED0",
"+ c #F7B5D1",
"@ c #FBB4D2",
"# c #F7BBD5",
"$ c #FBBBD6",
"% c #FABED8",
"& c #F7C2DA",
"* c #FBC3DC",
"= c #F6CADE",
"- c #FAC9DF",
"; c #F7CCE0",
": c #FBCAE0",
"> c #FCC9E0",
", c #FACEE3",
"< c #FBCFE3",
"1 c #FCCDE2",
"2 c #F5D1E3",
"3 c #F9D1E3",
"4 c #F9D2E4",
"5 c #FCD3E7",
"6 c #F8D4E5",
"7 c #FCD8E7",
"8 c #FBD6E8",
"9 c #FCD6E8",
"0 c #F7DBE8",
"q c #F8D9E8",
"w c #FCD9E9",
"e c #FADEEB",
"r c #FADEED",
"t c #F7E6EF",
"y c #FAE1ED",
"u c #FBE1EF",
"i c #F9E4EE",
"p c #FBE6F0",
"a c #FAE8F1",
"s c #FBF1F7",
"d c #FDF3F7",
"f c #FBF2F8",
"g c #FCF5F9",
"h c #FBFAFB",
"j c #FDFAFB",
"k c #FEFBFD",
"l c #FBFCFD",
"z c #FEFEFE",
/* pixels */
"@@@$@@@@@@@@@@@@@@@@@@@@@@@@@@@@@@@@@@@@@@@@@@@@@@@@@@@@@@@@@@@@",
"@@@+:$@@@@@@@@@@@@@@@@@@@@@@@@@@@@@@@@@@@@@@@@@@@@@@@@@@@@@@@@@@",
"@@&$@#@@@@@@@@@@@@@@@@@@@@@@@@@@@@@@@@@@@@@@@@@@@@@@@@@@@@@@@@@@",
"@@&@@%@@@@@@@@@@@@@@@@@@@@@@@@@@@@@@@@@@@@@@@@@@@@@@@@@@@@@@@$@@",
"@@@$@&@@@@@@@@@@@@@@@@@@@@@@@@@@@@@@@@@@@@@@@@@@@@@@@@@@@@@@@@$#",
"@@@@@@@@@@@@@@@@@@@@@@@@@@@@@@@@@@@@@@@@@@@@@@@@@@@@@@@@@@@@@#$@",
"@@@@@@@@@@@@@@@@@@@@@@@@@@@@@@@@@@@@@@@@@@@@@@@@@@@@@@@@@@@@@$$@",
"@@@@@@@@@@@@@@@@@@@@@@@@@@@@@@@@@@@@@@@@@@@@@@@@@@@@@@@@@@@@@$%@",
"@@@@@@@@@@@@@@@@@@@@@@@@@@@@@@@@@@@@@@@@@@@@@@@@@@@@@@@@@@@@@@@@",
"@@@@@@@@@@@@@@@@@@@@@@@@@@@@@@@@@@@@@@@@@@@@@@@@@@@@@@@@@@@@@@@@",
"@@@@@@@@@@@@@@@@@@@@@@@@@@@@@@@@@@@@@@@@@@@@@@@@@@@@@@@@@@@@@@@@",
"@@@@@@@@@@@@@@@@@@@@@@@@@@@@@@@@@@@@@@@@@@@@@@@@@@@@@@@@@@@@@@@@",
"@@@@@@@@@@@@@@@@@@@@@@@@@@@@@@@@@@@@@@@@@@@@@@@@@@@@@@@@@@@@@@@@",
"@@@@@@@@@@@@@@@@@@@@@@@@@@@@@@@@@@@@@@@@@@@@@@@@@@@@@@@@@@@@@@@@",
"@@@@@@@@@@@@@@@@@@@@@@@@@@@@@@@@@@@@@@@@@@@@@@@@@@@@@@@@@@@@@@@@",
"$$$$$$$$$$$$$$$$$$$$$$$$$$$$$$$$$$$$$$$$$$$$$$&sgggg,@@@@@@@$$$$",
"$$$$$$$$$$$$$$$$$$$$$$$$$$$$$$$$$$$$$$$$$$$$&fjzzzzzk&@@@@@@@$$$",
"$$$$$$$$$$$$$$$$$$$$$$$$$$$$$$$$$$$$$$$$$$$&izzzzzzzzg%@@@@@@$$$",
"$$$$$$$$$$$$$$$$$$$$$$$$$$$$$$$$$$$$$$$$$$$azzzzzzzzzzd$@@@@@$$$",
"$$$$$$$$$$$$$$$$$$$$$$$$$$$$$$$$$$$$$$$$$$$&taaaaaaaaaae$@@@@$$$",
"$$$$$$$$$$$$$$$$$$$$$$$$$$$$$$$$$$$$$$$$$$$$$$$$$$$$$$$$$@@@@$$$",
"$$$$$$$$$$$$$$$$%$$$$$$$$$$$$$$$$$$$$$$$$$$$$$$$$$$$$$$$%$@@@$$$",
"$$$$$$$$$$$$$$$%#*$$$$$$$$$$$$$$$$$$$$$$$$$$$$$$$$$$$$$$$$$$$$$$",
"$$$$$$$$$$$$$$$%%:$$$$$$$$$$$$$$$$$$$$$$$$$$$$$$$$$$$$$$$$$$$$$$",
"$$$$$$$$$$$$$$$&&&$$$$$$$$$$$$$$$$$$$$$$$$$$$$$$$$$$$$$$$$$$$$$$",
"$$$$$$$$$$$$$$&$$$$$$$$$$$$$$$$$$$$$$$$$$$$$$$$$$$$$$$$$$$$$$$$$",
"$$$$$$$$$$$$$$$$$$$$$$$$$$$$$$$$$$$$$$$$$$$$$$$$$$$$$$$$$$$$$$$$",
"%%%%%%%%%%%%%%%%$$%%%%%%%%%%%%%%%%%%%%%%%$%%%%%%%%%%%%%%%%%$$%%%",
"*******&&****************************************************&**",
"******&****************************************************-2&**",
"*****&*eeeeeeee4******************************&***********&****&",
"*****razzzzzzzzlpy=**&************************************&-**&*",
"**&*0zzzzzzzzzzzzzg&**************************************&***:,",
"***ahzzzzzzzzzzzzzzs3**************************************&&***",
"*&*azzzzzzzzzzzzzzzzy*************************************&&&***",
"*&&*3444444444444333***************************************&****",
"***&*************&***&**************************************&&**",
"******************&*********************************************",
"****************************************************************",
"****-***-*******************-*******-***-*******************-***",
",,,,,,,,,,,,,,,,,,,,,,,,,,,,,,,,,,,,,,,,,,,,,,,,,,,,,,,,,,,,,,,,",
",,,,,,,,,,,,,,,,,,,,,,,,,,,,,,,,,,,,,,,,,,,,,,,,,,,,,,,,,,,,,,,,",
",,,,,6,1,,,,,,,,,,,,,,,,,,,,,,,,,,,,,,,,,,,,,,,,,,,,,,,,,,,,,,,,",
",,,,,,,34,,,,,,,,,,,,,,,,,,,,,,,,,,,,,,,,,,,,,,,,,,,,,,,,,,,,,,,",
"&-1,,,,q4,33,,,,,,,,,,,,,,,,,,,,,,,,,,,,,,,1,,,,,,,1,,,,,,,,1,,,",
"$$%:,,6,,,3,,,,,11111,,,,,,,,,,,,,,,,,,,,,,1,,,,,,,,,,,,,,,,11,,",
"$$$%*,,3,66,,,,,,11,,1,,,&%>,,:-:,,,,,,,,,,,,,,,,,,,11,,,,,,1111",
"$$$$$&-,1446,,,:%$%%$%-,*$$%*-::::,,,>-,1,,,,,,,,,,,,1,,,,,,,,11",
"$$$$$$%-8qwwqwq&$*-**%$%$$$&::::::***%%8qqqqqwwwwwqqqwwwwwwwqqqq",
"$$$$$$$$-9qwqw5%*:-::-*&$%&--::::::*$$$&8qqqqqwwwwqqqwwwwwwqqywq",
"$$$$%%%%$%6qw3&*:-:-::::*->:::::::-:*%$$&,qqqqqqqqqqqwqwqqqqweqq",
"$$%&>::-*&%;8&*:--:::::::>>--:::>::::*%$%***&**5qqqq9419qwqqqqqq",
"4%*::>-::>-&&*::::::::::::465445::::::------%%$$&*%%%$$&3qqq8wqq",
"q64---::::::-:::,,3,:::-,6qqwwwq9:-:-::::::::-*%$$%-:*%%&*,*%3qw",
"qqq4->::::::->:4qqqq,::,9qqwwwq9q-4&-:::::::::->**>:::-:->:&%$:8",
"wqqq8:::-::::-4qwwqqq99wqqqwqwqqq*8=,:::::::::>:-::::-::>-:>:&$&",
"wqqqq9:>:::::,q4&wqqqqqwwqqwqqqq3XX.q4*@@$-&&&-:::-:::->-:::--&$",
"wwwqqq9,$$#&,wq$X-qqqqqqq:-1qqqq,XX.qq:.X.%@ .4,:>:::::*,::-::::",
"qwwqwqwq@ X&6qq+X*qqqqqqq@X*88**% X.7q,XX.XX X864-,::,#.8w643,:q",
"w:..-,6q@ X.o,w@X&qqq@... X%,:.X X X33*  X  XX8* X*q88@.-q86686q",
"w-X  X&q+X X +$. &qqq@XX.X   X XXXX.   XX   XX6& X%:,q.X-q$XXX#q",
"9* XXX&6@XXX  XXXo@3qo XXXXXXX       X      XXXXX X .qO o@XXXX+-",
".X XX XX  XX X X XX:8@ XXX  XX X             XX   XXX&.XXXXXXX X",
"  X XX  X  X XX  X :q.X X   XXX               X    X XXX X      "
};
