/* XPM */
static char *_299eefab87d4f7387e097a55d329304WrLCfeXaJC8mawTZ[] = {
/* columns rows colors chars-per-pixel */
"64 64 43 1 ",
"  c #FCA7C9",
". c #F6ACCB",
"X c #FBA9CA",
"o c #F9B0CF",
"O c #FBB4D2",
"+ c #F7BBD5",
"@ c #FBBBD6",
"# c #FBBFD9",
"$ c #F6C3DA",
"% c #FBC4DC",
"& c #F7C9DE",
"* c #FAC9DF",
"= c #F6CBE0",
"- c #FCC9E0",
"; c #F9CCE0",
": c #F9CDE1",
"> c #FACEE3",
", c #FCCEE2",
"< c #FCCEE3",
"1 c #F8D0E3",
"2 c #FAD0E3",
"3 c #FCD3E5",
"4 c #F8D4E4",
"5 c #FCD6E7",
"6 c #F9D9E7",
"7 c #FBD6E8",
"8 c #FBD7E8",
"9 c #FAD9E8",
"0 c #FBDAEA",
"q c #FCD8E9",
"w c #FADCE9",
"e c #F9DDEC",
"r c #F8E3ED",
"t c #FBE3EE",
"y c #FAE6F1",
"u c #F8EAF2",
"i c #F9F2F6",
"p c #F9F5F8",
"a c #FBF6F9",
"s c #FDFAFB",
"d c #FAFAFC",
"f c #FDFAFD",
"g c #FDFCFE",
/* pixels */
"OOOOOOOOOOOOOOOOOOOOOOOOOOOOOOOOOOOOOOOOOOOOOOOOOOOOOOOOOOOOOOOO",
"OOOOOOOOOOOOOOOOOOOOOOOOOOOOOOOOOOOOOOOOOOOOOOOOOOOOOOOOOOOOOOOO",
"OOOO+$OOOOOOOOOOOOOOOOOOOOOOOOOOOOOOOOOOOOOOOOOOOOOOOOOOOOOOOOOO",
"OOOO+++OOOOOOOOOOOOOOOOOOOOOOOOOOOOOOOOOOOOOOOOOOOOOOOOOOOOOOOOO",
"OO+$O++OOOOOOOOOOOOOOOOOOOOOOOOOOOOOOOOOOOOOOOOOOOOOOOOOOO+OOOOO",
"OOOOO++OOOOOOOOOOOOOOOOOOOOOOOOOOOOOOOOOOOOOOOOOOOOOOOOOOOOO%+O+",
"OOOOOOOOOOOOOOOOOOOOOOOOOOOOOOOOOOOOOOOOOOOOOOOOOOOOOOOOOO+OOOOO",
"OOOOOOOOOOOOOOOOOOOOOOOOOOOOOOOOOOOOOOOOOOOOOOOOOOOOOOOOOO++O+OO",
"OOOOOOOOOOOOOOOOOOOOOOOOOOOOOOOOOOOOOOOOOOOOOOOOOOOOOOOOOO++OOOO",
"OOOOOOOOOOOOOOOOOOOOOOOOOOOOOOOOOOOOOOOOOOOOOOOOOOOOOOOOOOOOOOOO",
"OOOOOOOOOOOOOOOOOOOOOOOOOOOOOOOOOOOOOOOOOOOOOOOOOOOOOOOOOOOO+OOO",
"OOOOOOOOOOOOOOOOOOOOOOOOOOOOOOOOOOOOOOOOOOOOOOOOOOOOOOOOOOOOOOOO",
"OOOOOOOOOOOOOOOOOOOOOOOOOOOOOOOOOOOOOOOOOOOOOOOOOOOOOOOOOOOOOOOO",
"OOOOOOOOOOOOOOOOOOOOOOOOOOOOOOOOOOOOOOOOOOOOOOOOOOOOOOOOOOOOOOOO",
"OOOOOOOOOOOOOOOOOOOOOOOOOOOOOOOOOOOOOOOOOOOOOOOOOOOOOOOOOOOOOOOO",
"+++++++++++++++++++++++++++++++++++++++++++++99966999%++++++++++",
"@@++@@@@@@@+@@@@++++++@@@@+++@@@+++@@@+++++wuggggggggit4+++@@@@+",
"@+++@@@@@@@+@@@@++++++@@@@+++@@@+@+@@@@@++4ggggggggggggg&@+@@@@+",
"@@@+@@+@@@++@@@@@@@@++@@@@@@@@@@@@@@@@@@+tggggggggggggggf9@@@@++",
"@@@@@@++@@+@@@@+@@@@@@@@@@@@@@@@@@@@@@@@+%ipppppppssppppp9@@@@++",
"@@@@@@@+@@@@++++@+@+@@@@++@@@+++@@@@@@@@++++++++++++++++++@@@@@+",
"@@@@@@++@@+++@++#+++++@@++@@@+++@+@@@@@@@@@@@@@@+###@@@@@@@@@@@+",
"++@+@@@@@@++@@+#+%+++@@@++@@@@@@++++@@@@+++@@@@@@@##@@@@++@@@@@@",
"@+++@@@@@+++@++%#%+++@@@@@@@@@@@+++@@@@+++@@@@@@@@@#@@@@@+++@@@@",
"@@@++@@@+++@+@@%+%+@++++@@+++@@@+++@@@@+@@@@++++@@+++@@@++++++@@",
"@@@@+@@@++++++#+@+@@++++@@@@@@@@++++@@@@@@@@++++@@+++@@@++++@+++",
"@@@@@@@@@@@@@@@@@@@@@@@@@@@@@@@@@@@@@@@@@@@@@@@@@@@@@@@@@@@@@@@@",
"################################################################",
"%%%%%%%%%%%%%%%%%%%%%%%%%%%%%%%%%%%%%%%%%%%%%%%%%%%%%%%%%*%*%%%%",
"%%%%%%%%%%%%%%%%%%%%%%%%%%%%%%%%%%%%%%%%%%%%%%%%%%%%%%%%%=%%%=%%",
"%%%%%%%ufsfffffu%%%%%%%%%%%%%%%%%%%%%%%%%%%%%%%%%%%%%%%%%%%%%:%%",
"%%%%%yfggggggggggd9%%%%%%%%%%%%%%%%%%%%%%%%%%%%%%%%%%%%%%%%*%%%%",
"%%%%wsggggggggggggp1%%%%%%%%%%%%%%%%%%%%%%%%%%%%%%%%%%%%%%*&%%%%",
"%%%:gggggggggggggggg&%%%%%%%%%%%%%%%%%%%%%%%%%%%%%%%%%%%%%%%%%%%",
"%%%%1wwwwwwwwwwwwww6%%%%%%%%%%%%%%%%%%%%%%%%%%%%%%%%%%%%%%%%%%%%",
"%%%%%%%%%%%%%%%%%%%%%%%%%%%%%%%%%%%%%%%%%%%%%%%%%%%%%%%%%%%%%%%%",
"%%%%%%%%%%%%%%%%%%%%%%%%%%%%%%%%%%%%%%%%%%%%%%%%%%%%%%%%%%%%%%%%",
"%%%%%%%%%%%%%%%%%%%%%%%%%%%%%%%%%%%%%%%%%%%%%%%%%%%%%%%%%%%%%%%%",
"%%%%*%%%**%%%%%%%%**%%%%%%%%**%%%%%%*%%%**%%%%%%%%*%%%%%%%%%**%%",
"::::::::::::::::::::::::::::::::::::::::::::::::::::::::::::::::",
",,,,:::,,,,,,,,,,,,,,,,,,,,,,,,,,,,,,,,,,,,,,,,,,,,,,,,,,,,,,,,,",
"::::,1:,:1:::::::::,::::,,,::::,::::::::::::,,,,::,,,,::,:,:::::",
":::::,,14::1::::,::::,::,,,::::::::::,::::::::,,::::,::::,,,,:::",
"++%::::14:1:::::,::::::,::::::,,::,,,,:::::::::::::::::::,::::,,",
"@+++*,1:::::,::,,,,:,::::*::,::::,,:,,,:::::::::,,,:::,,::::,,:,",
"+@+@+%,::19::,:,%%%%%-::%+%:-:*::,,,,,,::::,::::,,,::::,::::,,::",
"@@@@+++*1314133%++%#++%%+++%:-::::,*#111113333135511113331413111",
"@+@@++++:9999q5+%-:-*%++++%*::-::%++@%8999qqqqqqq99999qq9qw99999",
"++@@+++++%39q8*%*:*:*-%%%%*:::::::%+@@%8qqq99q9q999999989qe999q9",
"%@+@#%**%##18%%*::::--:-:::::-*-::-*@++%***:1999999999q9999q999*",
"q*+%**--:-%#%%*:::::::-:::1311,-:::**%%*:*+++%*%%%#+%1999q8998%+",
"qq1:-----:::*::*::::::*-:899qq91::*-::::--*%%+++%:%#+#*1:%59q:++",
"q998:**-::::*-*:9994:::399999999:%*::::::::*:*%%*::-%*-*#++18+++",
"9q9993*::::::*199999888999999999:&1:::-:*:::-*:::-:*::*:-:%+#+#%",
"9999991--:::::9:*999999q9999999$X.%8:OOO%%%%*::::::::*:::**#+%89",
"99999991%O++:q9O.1999q99:%:9999%XX%98.XX+o .1:::::::%::::::::898",
"999qqqq9* XO499OX1qq9888+X%94++O .%69oX.XX .9:%%,:::X1q811:,9q9q",
"99&..%$8:XXX.*9..1q9*.XXXXO$#X X  O%$X X X .8+ X988$X#9411449%OO",
"99%XXX.9*X X .oXX199:XXXXX  XXX.XXXX  XX XX.:O .++:+X+9+X.X%9#XX",
":%+ XXX%+XXXXXXXXX.9:X XXXXXX   XXXXXXXXX XX  XX  *#XXXXXX oO.X.",
"+. X XXX   XXX XX..9=X XXXXX XXXXXXXXXXXX  XX  XX .XXX XXXX X  X",
"XXXXXX  X XXXXX  XX*%X XXXXXXXXXXXXXXXXX X XX XXX XXX X  X XX X ",
"XXXXXXXXXXXXXXXXXXX    XXXXXXXXXXXXXXXXXXXXXXXXXXXXXXXXXXXXXXXXX",
"XXXXXXXXXXXXXXXXX X  XXXXXXXXXXXXXXXXXXXXXXXXXXXXXXXXXXXXXXXXXXX"
};
