/* XPM */
static char *befdceaba5b54325e75a2cddd5952c4bChXhoJZjwHWjCW4X[] = {
/* columns rows colors chars-per-pixel */
"64 64 2 1 ",
"  c #FCA8CA",
". c white",
/* pixels */
"                                                                ",
" .............................................................. ",
" .                                                            . ",
" . .......................................................... . ",
" . .                                                        . . ",
" . . ...................................................... . . ",
" . . .                                                    . . . ",
" . . . .................................................. . . . ",
" . . . .                                                . . . . ",
" . . . . .............................................. . . . . ",
" . . . . .                                            . . . . . ",
" . . . . . .......................................... . . . . . ",
" . . . . . .                                        . . . . . . ",
" . . . . . . ...................................... . . . . . . ",
" . . . . . . .                                    . . . . . . . ",
" . . . . . . . .................................. . . . . . . . ",
" . . . . . . . .                                . . . . . . . . ",
" . . . . . . . . .............................. . . . . . . . . ",
" . . . . . . . . .                            . . . . . . . . . ",
" . . . . . . . . . .......................... . . . . . . . . . ",
" . . . . . . . . . .                        . . . . . . . . . . ",
" . . . . . . . . . . ...................... . . . . . . . . . . ",
" . . . . . . . . . . .                    . . . . . . . . . . . ",
" . . . . . . . . . . . .................. . . . . . . . . . . . ",
" . . . . . . . . . . . .                . . . . . . . . . . . . ",
" . . . . . . . . . . . . .............. . . . . . . . . . . . . ",
" . . . . . . . . . . . . .            . . . . . . . . . . . . . ",
" . . . . . . . . . . . . . .......... . . . . . . . . . . . . . ",
" . . . . . . . . . . . . . .        . . . . . . . . . . . . . . ",
" . . . . . . . . . . . . . . ...... . . . . . . . . . . . . . . ",
" . . . . . . . . . . . . . . .    . . . . . . . . . . . . . . . ",
" . . . . . . . . . . . . . . . .. . . . . . . . . . . . . . . . ",
" . . . . . . . . . . . . . . . .  . . . . . . . . . . . . . . . ",
" . . . . . . . . . . . . . . .    . . . . . . . . . . . . . . . ",
" . . . . . . . . . . . . . . ...... . . . . . . . . . . . . . . ",
" . . . . . . . . . . . . . .        . . . . . . . . . . . . . . ",
" . . . . . . . . . . . . . .......... . . . . . . . . . . . . . ",
" . . . . . . . . . . . . .            . . . . . . . . . . . . . ",
" . . . . . . . . . . . . .............. . . . . . . . . . . . . ",
" . . . . . . . . . . . .                . . . . . . . . . . . . ",
" . . . . . . . . . . . .................. . . . . . . . . . . . ",
" . . . . . . . . . . .                    . . . . . . . . . . . ",
" . . . . . . . . . . ...................... . . . . . . . . . . ",
" . . . . . . . . . .                        . . . . . . . . . . ",
" . . . . . . . . . .......................... . . . . . . . . . ",
" . . . . . . . . .                            . . . . . . . . . ",
" . . . . . . . . .............................. . . . . . . . . ",
" . . . . . . . .                                . . . . . . . . ",
" . . . . . . . .................................. . . . . . . . ",
" . . . . . . .                                    . . . . . . . ",
" . . . . . . ...................................... . . . . . . ",
" . . . . . .                                        . . . . . . ",
" . . . . . .......................................... . . . . . ",
" . . . . .                                            . . . . . ",
" . . . . .............................................. . . . . ",
" . . . .                                                . . . . ",
" . . . .................................................. . . . ",
" . . .                                                    . . . ",
" . . ...................................................... . . ",
" . .                                                        . . ",
" . .......................................................... . ",
" .                                                            . ",
" .............................................................. ",
"                                                                "
};
